<?xml version="1.0" encoding="UTF-8"?>
<svg id="_图层_1" data-name="图层 1" xmlns="http://www.w3.org/2000/svg" xmlns:xlink="http://www.w3.org/1999/xlink" viewBox="0 0 595.28 841.89">
  <defs>
    <style>
      .cls-1 {
        stroke-width: .14px;
      }

      .cls-1, .cls-2, .cls-3, .cls-4, .cls-5, .cls-6, .cls-7, .cls-8 {
        fill: none;
      }

      .cls-1, .cls-2, .cls-3, .cls-4, .cls-6, .cls-7 {
        stroke-miterlimit: 10;
      }

      .cls-1, .cls-2, .cls-7, .cls-8 {
        stroke: #fff;
      }

      .cls-2 {
        stroke-width: .14px;
      }

      .cls-9 {
        fill: #023592;
      }

      .cls-9, .cls-5, .cls-10, .cls-11, .cls-12 {
        stroke-width: 0px;
      }

      .cls-13 {
        font-size: 8.27px;
      }

      .cls-13, .cls-14, .cls-15 {
        font-family: SourceHanSansCN-Heavy, 'SourceHanSansCN Heavy-GBpc-EUC-H';
        font-weight: 800;
      }

      .cls-13, .cls-14, .cls-15, .cls-10 {
        fill: #fff;
      }

      .cls-14 {
        font-size: 2.59px;
      }

      .cls-16 {
        letter-spacing: 0em;
      }

      .cls-17 {
        clip-path: url(#clippath-2);
      }

      .cls-15 {
        font-size: 14.5px;
      }

      .cls-18 {
        letter-spacing: 0em;
      }

      .cls-3 {
        stroke-width: .64px;
      }

      .cls-3, .cls-4, .cls-6 {
        stroke: #000;
      }

      .cls-3, .cls-19, .cls-20, .cls-6 {
        font-family: KaiTi, KaiTi;
      }

      .cls-3, .cls-20, .cls-21, .cls-22 {
        font-size: 16px;
      }

      .cls-4 {
        stroke-width: .4px;
      }

      .cls-19, .cls-6, .cls-23 {
        font-size: 22px;
      }

      .cls-24 {
        clip-path: url(#clippath-1);
      }

      .cls-25 {
        clip-path: url(#clippath-4);
      }

      .cls-26 {
        letter-spacing: 0em;
      }

      .cls-21, .cls-27 {
        font-family: SimHei, SimHei;
      }

      .cls-6 {
        stroke-width: .88px;
      }

      .cls-28 {
        letter-spacing: 0em;
      }

      .cls-29 {
        clip-path: url(#clippath);
      }

      .cls-7 {
        stroke-width: .28px;
      }

      .cls-8 {
        stroke-linecap: round;
        stroke-linejoin: round;
        stroke-width: .14px;
      }

      .cls-11 {
        fill: #003592;
      }

      .cls-27 {
        font-size: 26px;
      }

      .cls-30 {
        clip-path: url(#clippath-3);
      }

      .cls-12 {
        fill: #083683;
      }

      .cls-31 {
        letter-spacing: .8em;
      }

      .cls-32 {
        letter-spacing: -.09em;
      }

      .cls-22, .cls-23 {
        font-family: TimesNewRomanPS-BoldMT, 'Times New Roman';
        font-weight: 700;
      }

      .cls-33 {
        letter-spacing: 2em;
      }
    </style>
    <clipPath id="clippath">
      <rect class="cls-5" x="119.34" y="74.49" width="356.6" height="67.38"/>
    </clipPath>
    <clipPath id="clippath-1">
      <rect class="cls-5" x="119.34" y="74.49" width="356.6" height="67.38"/>
    </clipPath>
    <clipPath id="clippath-2">
      <rect class="cls-5" x="119.34" y="74.49" width="356.6" height="67.38"/>
    </clipPath>
    <clipPath id="clippath-3">
      <rect class="cls-5" x="119.34" y="74.49" width="356.6" height="67.38"/>
    </clipPath>
    <clipPath id="clippath-4">
      <rect class="cls-5" x="119.34" y="74.49" width="356.6" height="67.38"/>
    </clipPath>
  </defs>
  <g class="cls-29">
    <g class="cls-24">
      <path class="cls-11" d="M195.11,97.59c-1.86-1.57-5.68-3.87-8.58-5.29l2.21-3.43c2.84,1.27,6.71,3.43,8.67,4.95l-2.3,3.77ZM198.4,103.96c-2.21,5.05-5,10.83-7.5,15.44l-3.38-3.23c2.21-3.63,5.39-9.8,7.89-15.29l2.99,3.09ZM196.68,84.16c-1.76-1.42-5.34-3.58-8.04-5l2.35-3.43c2.6,1.18,6.22,3.18,8.09,4.61l-2.4,3.82ZM220.01,102.73c2.7,4.56,7.01,8.87,11.32,11.17-.98.88-2.45,2.45-3.18,3.63-3.97-2.6-7.89-6.96-10.73-11.71v13.97h-4.61v-14.02c-3.04,5.1-7.35,9.41-12.06,11.91-.69-1.08-2.01-2.65-3.04-3.48,5-2.25,9.56-6.57,12.45-11.47h-9.65v-4.12h12.3v-5.1h4.61v5.1h12.4v4.12h-9.8ZM213.25,85.63c-2.4,4.17-6.37,8.28-9.95,10.88-.69-.83-2.25-2.4-3.23-3.14,3.53-2.16,7.01-5.59,9.02-9.07l4.17,1.32ZM204.72,86.9h-4.02v-9.21h29.01v9.02h-4.17v-5.15h-20.83v5.34ZM220.01,83.92c3.33,2.94,7.4,7.15,9.26,10l-3.48,2.45c-1.72-2.79-5.69-7.15-9.07-10.29l3.28-2.16Z"/>
      <path class="cls-11" d="M252.75,107.73c-5.39,2.25-11.22,4.56-15.78,6.32l-1.47-4.7c1.86-.54,4.17-1.32,6.67-2.25v-15.73h-5.88v-4.46h5.88v-11.12h4.56v11.12h5.68v4.46h-5.68v14.11c1.72-.64,3.43-1.23,5.19-1.91l.83,4.17ZM255.2,76.61h4.51v16.61c0,9.31-.59,18.77-5.98,26.37-1.03-.73-2.99-2.01-4.31-2.55,5.24-6.91,5.78-15.29,5.78-23.82v-16.61ZM264.71,79.06h4.26v34.75h-4.26v-34.75ZM278.73,119.49h-4.66v-43.13h4.66v43.13Z"/>
      <path class="cls-11" d="M301.18,100.38c-1.86.54-3.72,1.08-5.59,1.62v12.89c0,2.35-.49,3.58-1.91,4.26-1.42.69-3.63.83-6.96.78-.2-1.08-.78-2.99-1.37-4.12,2.16.05,4.21.05,4.8,0,.73,0,.98-.25.98-.93v-11.61c-1.91.54-3.68,1.03-5.39,1.47l-1.18-4.36c1.86-.44,4.12-.98,6.57-1.57v-9.85h-6.03v-4.21h6.03v-9.6h4.46v9.56h5.15v4.26h-5.15v8.63l5.05-1.32.54,4.12ZM327.59,94.4c-1.96,6.76-5.24,12.11-9.56,16.22,3.38,2.55,7.4,4.46,12.06,5.69-1.03.88-2.3,2.7-2.94,3.87-4.95-1.42-9.12-3.63-12.69-6.62-3.92,2.94-8.48,5.1-13.38,6.52-.49-1.18-1.62-3.14-2.45-4.12,4.56-1.13,8.82-2.99,12.59-5.54-3.23-3.58-5.73-7.79-7.6-12.69l.64-.2h-1.96v-4.17h10.1v-6.71h-10.98v-4.17h10.98v-7.35h4.51v7.35h11.32v4.17h-11.32v6.71h6.96l.78-.15,2.94,1.18ZM308.08,97.54c1.57,3.82,3.72,7.2,6.57,10.09,3.04-2.79,5.49-6.17,7.15-10.09h-13.72Z"/>
      <path class="cls-11" d="M360.67,91.76c4.36,7.06,11.76,14.6,18.23,18.62-1.18.98-2.79,2.79-3.68,4.07-5.64-4.17-11.81-11.07-16.47-18.13v23.82h-5v-22c-4.56,6.96-10.59,13.04-16.91,16.66-.83-1.13-2.35-2.94-3.48-3.92,7.5-3.82,14.95-11.32,19.16-19.11h-17.49v-4.46h18.72v-12.1h5v12.1h18.28v4.46h-16.37ZM369.69,85.92c-1.76-2.06-5.49-5.15-8.38-7.3l3.38-2.79c2.79,2.01,6.66,4.95,8.53,6.91l-3.53,3.19Z"/>
      <path class="cls-11" d="M408.8,93.42c3.33,10.19,9.51,18.47,18.77,22.35-1.13.98-2.65,2.89-3.38,4.26-9.16-4.26-15.09-12.2-18.92-22.59-2.5,8.87-7.79,17.35-18.92,22.59-.73-1.23-2.21-2.84-3.48-3.82,11.66-5.1,16.42-13.92,18.38-22.79h-17.4v-4.7h18.23c.59-4.9.54-9.61.59-13.53h4.95c-.05,3.97-.1,8.67-.69,13.53h19.75v4.7h-17.89Z"/>
      <path class="cls-11" d="M475.85,106.8h-19.46v8.04c0,2.5-.64,3.77-2.65,4.41-2.01.69-4.9.74-9.16.74-.34-1.23-1.18-3.19-1.91-4.36,3.43.1,6.86.1,7.89.05.93-.05,1.18-.24,1.18-.93v-7.94h-18.97v-4.21h18.97v-3.33c2.45-.93,5.05-2.3,7.25-3.68h-17.84v-3.97h22.98l.93-.24,2.94,2.3c-3.09,2.79-7.35,5.44-11.61,7.4v1.52h19.46v4.21ZM437.87,93.13h-4.26v-10.05h7.74c-.88-1.76-2.4-3.97-3.87-5.73l3.87-1.76c1.76,2.01,3.72,4.7,4.56,6.52l-1.96.98h9.7c-.69-2.01-2.11-4.8-3.43-6.86l4.02-1.52c1.57,2.25,3.28,5.29,3.87,7.3l-2.7,1.08h7.25c1.72-2.25,3.58-5.34,4.61-7.64l4.66,1.57c-1.37,2.06-2.94,4.26-4.41,6.08h7.6v10.05h-4.51v-6.03h-32.74v6.03Z"/>
      <path class="cls-11" d="M187.73,140.38l1.08-1.11c.85.73,2,1.21,3.13,1.21,1.42,0,2.22-.58,2.22-1.44,0-.93-.8-1.22-1.88-1.64l-1.63-.61c-1.13-.42-2.39-1.19-2.39-2.68,0-1.61,1.63-2.82,3.86-2.82,1.37,0,2.66.5,3.56,1.29l-.97,1.03c-.73-.57-1.55-.92-2.58-.92-1.2,0-1.98.5-1.98,1.32,0,.87.94,1.21,1.9,1.54l1.61.6c1.39.51,2.39,1.26,2.39,2.76,0,1.64-1.56,2.97-4.13,2.97-1.61,0-3.11-.55-4.18-1.5"/>
      <polygon class="cls-11" points="198.26 131.48 200.11 131.48 200.11 135.65 205.14 135.65 205.14 131.48 206.99 131.48 206.99 141.69 205.14 141.69 205.14 137.05 200.11 137.05 200.11 141.69 198.26 141.69 198.26 131.48"/>
      <polygon class="cls-11" points="210.07 131.48 217.01 131.48 217.01 132.83 211.92 132.83 211.92 135.67 216.23 135.67 216.23 137.03 211.92 137.03 211.92 140.33 217.19 140.33 217.19 141.69 210.07 141.69 210.07 131.48"/>
      <path class="cls-11" d="M219.65,131.48h1.9l3.89,5.99,1.23,2.16h.08c-.1-1.05-.24-2.29-.24-3.4v-4.76h1.76v10.21h-1.9l-3.89-6.02-1.23-2.14h-.08c.1,1.05.24,2.23.24,3.34v4.81h-1.76v-10.21Z"/>
      <polygon class="cls-11" points="230.56 140.72 236.45 132.83 231.1 132.83 231.1 131.48 238.73 131.48 238.73 132.44 232.86 140.33 238.79 140.33 238.79 141.69 230.56 141.69 230.56 140.72"/>
      <polygon class="cls-11" points="241.05 131.48 242.9 131.48 242.9 135.65 247.92 135.65 247.92 131.48 249.77 131.48 249.77 141.69 247.92 141.69 247.92 137.05 242.9 137.05 242.9 141.69 241.05 141.69 241.05 131.48"/>
      <polygon class="cls-11" points="252.86 131.48 259.8 131.48 259.8 132.83 254.71 132.83 254.71 135.67 259.01 135.67 259.01 137.03 254.71 137.03 254.71 140.33 259.97 140.33 259.97 141.69 252.86 141.69 252.86 131.48"/>
      <path class="cls-11" d="M262.43,131.48h1.9l3.89,5.99,1.23,2.16h.08c-.1-1.05-.24-2.29-.24-3.4v-4.76h1.76v10.21h-1.9l-3.89-6.02-1.23-2.14h-.08c.1,1.05.24,2.23.24,3.34v4.81h-1.76v-10.21Z"/>
      <polygon class="cls-11" points="280.13 132.83 276.68 132.83 276.68 131.48 285.44 131.48 285.44 132.83 281.98 132.83 281.98 141.69 280.13 141.69 280.13 132.83"/>
      <polygon class="cls-11" points="287.47 131.48 294.41 131.48 294.41 132.83 289.32 132.83 289.32 135.67 293.63 135.67 293.63 137.03 289.32 137.03 289.32 140.33 294.59 140.33 294.59 141.69 287.47 141.69 287.47 131.48"/>
      <path class="cls-11" d="M296.41,136.62c0-3.33,2.33-5.33,5.3-5.33,1.47,0,2.62.61,3.34,1.29l-1.01,1.03c-.61-.54-1.34-.92-2.3-.92-2.03,0-3.43,1.47-3.43,3.87s1.31,3.91,3.38,3.91c1.07,0,1.9-.42,2.6-1.08l.99,1.01c-.94.94-2.14,1.47-3.65,1.47-2.95,0-5.22-1.91-5.22-5.26"/>
      <polygon class="cls-11" points="307.35 131.48 309.21 131.48 309.21 135.65 314.23 135.65 314.23 131.48 316.08 131.48 316.08 141.69 314.23 141.69 314.23 137.05 309.21 137.05 309.21 141.69 307.35 141.69 307.35 131.48"/>
      <path class="cls-11" d="M319.16,131.48h1.9l3.89,5.99,1.23,2.16h.08c-.1-1.05-.24-2.29-.24-3.4v-4.76h1.76v10.21h-1.9l-3.89-6.02-1.23-2.14h-.08c.1,1.05.24,2.23.24,3.34v4.81h-1.76v-10.21Z"/>
      <path class="cls-11" d="M330.24,136.55c0-3.29,2.09-5.26,5.11-5.26s5.12,1.97,5.12,5.26-2.11,5.33-5.12,5.33-5.11-2.04-5.11-5.33M338.57,136.55c0-2.4-1.28-3.86-3.22-3.86s-3.21,1.46-3.21,3.86,1.26,3.93,3.21,3.93,3.22-1.53,3.22-3.93"/>
      <polygon class="cls-11" points="342.91 131.48 344.76 131.48 344.76 140.33 349.72 140.33 349.72 141.69 342.91 141.69 342.91 131.48"/>
      <path class="cls-11" d="M350.63,136.55c0-3.29,2.09-5.26,5.11-5.26s5.12,1.97,5.12,5.26-2.11,5.33-5.12,5.33-5.11-2.04-5.11-5.33M358.96,136.55c0-2.4-1.28-3.86-3.22-3.86s-3.21,1.46-3.21,3.86,1.26,3.93,3.21,3.93,3.22-1.53,3.22-3.93"/>
      <path class="cls-11" d="M362.67,136.62c0-3.33,2.36-5.33,5.47-5.33,1.66,0,2.78.64,3.5,1.29l-1.01,1.03c-.57-.51-1.29-.92-2.43-.92-2.19,0-3.64,1.47-3.64,3.87s1.29,3.91,3.72,3.91c.72,0,1.44-.18,1.85-.5v-2.4h-2.33v-1.32h4v4.42c-.78.68-2.11,1.19-3.72,1.19-3.14,0-5.43-1.91-5.43-5.26"/>
      <path class="cls-11" d="M376.42,137.82l-3.53-6.34h1.98l1.36,2.71c.37.76.7,1.47,1.1,2.25h.06c.38-.78.77-1.48,1.12-2.25l1.37-2.71h1.93l-3.54,6.34v3.87h-1.85v-3.87Z"/>
      <path class="cls-11" d="M386.84,137.31v-5.83h1.85v5.94c0,2.3,1.05,3.05,2.52,3.05s2.57-.75,2.57-3.05v-5.94h1.79v5.83c0,3.33-1.76,4.56-4.36,4.56s-4.37-1.23-4.37-4.56"/>
      <path class="cls-11" d="M398.61,131.48h1.9l3.89,5.99,1.23,2.16h.08c-.1-1.05-.24-2.29-.24-3.4v-4.76h1.76v10.21h-1.9l-3.89-6.02-1.23-2.14h-.08c.1,1.05.24,2.23.24,3.34v4.81h-1.76v-10.21Z"/>
      <rect class="cls-11" x="410.32" y="131.48" width="1.85" height="10.21"/>
      <path class="cls-11" d="M413.67,131.48h1.96l1.74,5.29c.4,1.17.65,2.16,1.07,3.34h.08c.4-1.18.69-2.18,1.07-3.34l1.74-5.29h1.88l-3.67,10.21h-2.19l-3.69-10.21Z"/>
      <polygon class="cls-11" points="424.73 131.48 431.67 131.48 431.67 132.83 426.58 132.83 426.58 135.67 430.89 135.67 430.89 137.03 426.58 137.03 426.58 140.33 431.85 140.33 431.85 141.69 424.73 141.69 424.73 131.48"/>
      <path class="cls-11" d="M440.72,141.69l-2.66-4.12h-1.9v4.12h-1.85v-10.21h3.85c2.43,0,4.24.75,4.24,2.96,0,1.58-.97,2.53-2.46,2.93l2.87,4.33h-2.09ZM436.16,136.28h1.77c1.71,0,2.63-.61,2.63-1.85s-.93-1.66-2.63-1.66h-1.77v3.51Z"/>
      <path class="cls-11" d="M443.69,140.38l1.08-1.11c.85.73,2,1.21,3.13,1.21,1.42,0,2.22-.58,2.22-1.44,0-.93-.8-1.22-1.88-1.64l-1.63-.61c-1.13-.42-2.39-1.19-2.39-2.68,0-1.61,1.63-2.82,3.86-2.82,1.37,0,2.66.5,3.56,1.29l-.97,1.03c-.73-.57-1.55-.92-2.58-.92-1.2,0-1.98.5-1.98,1.32,0,.87.94,1.21,1.9,1.54l1.61.6c1.39.51,2.39,1.26,2.39,2.76,0,1.64-1.56,2.97-4.13,2.97-1.61,0-3.11-.55-4.18-1.5"/>
      <rect class="cls-11" x="454.22" y="131.48" width="1.85" height="10.21"/>
      <polygon class="cls-11" points="461.55 132.83 458.1 132.83 458.1 131.48 466.86 131.48 466.86 132.83 463.4 132.83 463.4 141.69 461.55 141.69 461.55 132.83"/>
      <path class="cls-11" d="M470.55,137.82l-3.53-6.34h1.98l1.36,2.71c.37.76.7,1.47,1.1,2.25h.06c.38-.78.77-1.48,1.12-2.25l1.37-2.71h1.93l-3.54,6.34v3.87h-1.85v-3.87Z"/>
      <polygon class="cls-12" points="119.38 74.49 176.13 74.49 176.09 120.9 147.76 141.48 119.34 120.9 119.38 74.49"/>
    </g>
    <text class="cls-13" transform="translate(122.28 86.17) scale(1.03 1)"><tspan x="0" y="0">深圳技术大学</tspan></text>
    <text class="cls-14" transform="translate(122.28 89.69) scale(1.03 1)"><tspan x="0" y="0">SHENZHEN TECHNOLOGY UNIVERSITY</tspan></text>
    <g class="cls-17">
      <line class="cls-2" x1="121.68" y1="91.22" x2="173.84" y2="91.22"/>
      <polygon class="cls-10" points="128.99 125.88 125.82 123.52 125.87 116.44 129.04 116.44 128.99 125.88"/>
      <polygon class="cls-10" points="137.14 131.87 133.94 129.54 133.99 116.44 137.19 116.44 137.14 131.87"/>
      <polygon class="cls-10" points="142.09 135.56 142.14 116.44 145.3 116.44 145.26 137.89 142.09 135.56"/>
      <polygon class="cls-10" points="153.41 135.56 150.24 137.89 150.29 116.44 153.45 116.44 153.41 135.56"/>
      <polygon class="cls-10" points="161.57 116.44 161.53 129.54 158.36 131.87 158.4 116.44 161.57 116.44"/>
      <polygon class="cls-10" points="166.51 125.88 166.55 116.44 169.72 116.44 169.67 123.52 166.51 125.88"/>
      <rect class="cls-10" x="139.67" y="108.09" width="7.27" height="6.58"/>
      <rect class="cls-10" x="130.71" y="108.09" width="7.24" height="6.58"/>
      <rect class="cls-10" x="121.73" y="108.09" width="7.27" height="6.58"/>
      <rect class="cls-10" x="148.65" y="108.09" width="7.27" height="6.58"/>
      <rect class="cls-10" x="157.61" y="108.09" width="7.27" height="6.58"/>
      <rect class="cls-10" x="166.59" y="108.09" width="7.27" height="6.58"/>
      <polygon class="cls-8" points="121.68 76.71 173.84 76.71 173.79 120 147.71 139.62 121.64 120 121.68 76.71"/>
    </g>
    <text class="cls-15" transform="translate(121.92 104.58) scale(1.33 1)"><tspan class="cls-18" x="0" y="0">S</tspan><tspan class="cls-26" x="7.38" y="0">Z</tspan><tspan class="cls-16" x="14.78" y="0">T</tspan><tspan class="cls-28" x="22.16" y="0">U</tspan></text>
    <g class="cls-30">
      <path class="cls-1" d="M128.69,100.76c.48.36.72.73.72,1.1,0,.72-.21,1.27-.64,1.64-.43.38-1.07.57-1.93.57-.81,0-1.52-.18-2.15-.54-.63-.36-1.12-1.01-1.47-1.95l-.45.11.6,2.78c.2-.11.38-.21.53-.28.15-.08.3-.11.45-.11.25,0,.6.06,1.06.17.4.15.86.23,1.36.23,1.21,0,2.13-.26,2.76-.79.63-.53.94-1.14.94-1.82,0-.64-.26-1.2-.79-1.68-.53-.47-1.4-.89-2.61-1.26-1.46-.49-2.36-.86-2.68-1.11-.33-.25-.49-.58-.49-.99,0-.45.18-.88.53-1.27.35-.4,1.01-.6,1.97-.6.76,0,1.37.14,1.85.43.48.28.94.82,1.4,1.61l.38-.11-.3-2.32c-.1.15-.22.26-.34.31-.13.06-.27.09-.42.09-.2,0-.53-.08-.98-.23-.45-.11-.93-.17-1.44-.17-1.16,0-2.05.26-2.68.77-.63.51-.94,1.05-.94,1.61,0,.72.25,1.25.76,1.59.5.34,1.44.74,2.8,1.19,1.01.34,1.75.69,2.23,1.05Z"/>
      <path class="cls-1" d="M133.98,104.01l6.65-9.35h-6.88l-.91,1.93.45.11c.4-.57.87-.99,1.4-1.27.53-.28,1.12-.42,1.78-.42h2.65l-6.65,9.35h7.26l.83-2.21-.45-.06c-.3.64-.69,1.12-1.17,1.45-.48.32-1.05.48-1.7.48h-3.25Z"/>
      <path class="cls-1" d="M148.39,104.01h-.68c-.2,0-.37-.04-.49-.11-.13-.08-.19-.19-.19-.34v-7.88c0-.34.02-.53.08-.57.05-.04.33-.06.83-.06.71,0,1.17.1,1.4.31.23.21.54.71.95,1.5l.38-.06-.6-2.15h-7.18l-.68,2.15.45.06c.4-.83.74-1.34,1.02-1.53.28-.19.77-.28,1.47-.28.35,0,.55.02.6.06.05.04.08.21.08.51v7.93c0,.15-.05.27-.15.34-.1.08-.28.11-.53.11h-.68v.34h3.93v-.34Z"/>
      <path class="cls-1" d="M154.74,103.62c-.43-.26-.64-.77-.64-1.53v-6.63c0-.15.06-.26.19-.34.13-.08.29-.11.49-.11h.38v-.34h-3.33v.34h.38c.25,0,.43.04.53.11.1.08.15.19.15.34v6.63c0,.83.34,1.44,1.02,1.81.68.38,1.47.57,2.38.57.86,0,1.63-.22,2.31-.65.68-.43,1.02-1.03,1.02-1.78v-6.57c0-.15.06-.26.19-.34.12-.08.29-.11.49-.11h.45v-.34h-2.72v.34h.45c.25,0,.43.04.53.11.1.08.15.19.15.34v6.57c0,.57-.27,1.04-.79,1.42-.53.38-1.17.57-1.93.57-.71,0-1.27-.13-1.7-.4Z"/>
    </g>
    <text class="cls-15" transform="translate(161.4 104.58) scale(1.33 1)"><tspan x="0" y="0"> </tspan></text>
    <g class="cls-25">
      <line class="cls-2" x1="121.68" y1="106.01" x2="173.84" y2="106.01"/>
      <polygon class="cls-9" points="119.38 74.49 176.13 74.49 176.09 120.9 147.76 141.48 119.34 120.9 119.38 74.49"/>
      <polygon class="cls-7" points="121.65 76.71 173.86 76.71 173.82 119.87 147.76 138.8 121.61 119.87 121.65 76.71"/>
      <path class="cls-10" d="M123.95,83.29c-.32-.28-1-.7-1.48-.97l.55-.9c.46.22,1.17.59,1.51.86l-.59,1.01ZM124.76,84.28c-.38.87-.82,1.76-1.26,2.59l-.92-.83c.38-.61.93-1.61,1.38-2.58l.8.83ZM124.19,80.91c-.31-.23-.96-.6-1.41-.83l.61-.93c.43.19,1.11.51,1.44.73l-.64,1.03ZM128.92,84.18c.44.58,1.07,1.12,1.69,1.46-.27.22-.66.64-.86.93-.54-.36-1.04-.89-1.46-1.5v1.77h-1.26v-1.82c-.48.67-1.09,1.23-1.78,1.6-.18-.27-.54-.69-.81-.9.77-.33,1.45-.9,1.94-1.55h-1.38v-1.07h2.02v-.78h1.26v.78h2.02v1.07h-1.39ZM127.45,81.05c-.43.72-1.14,1.47-1.78,1.92-.19-.22-.6-.63-.84-.83.39-.22.78-.55,1.1-.89h-.94v-1.81h5.32v1.76h-1.06c.4.4.78.82.99,1.15l-.94.63c-.29-.5-.98-1.26-1.55-1.79l.88-.55c.18.16.37.33.56.51v-.69h-3.12v.64c.1-.13.2-.26.28-.4l1.11.36Z"/>
      <path class="cls-10" d="M134.4,79.36h1.22v2.89c0,1.59-.09,3.32-.92,4.66-.29-.21-.85-.52-1.22-.65.28-.41.48-.84.61-1.28-.92.38-1.92.76-2.74,1.08l-.4-1.24c.31-.08.67-.2,1.08-.33v-2.26h-.92v-1.18h.92v-1.83h1.24v1.83h.87v1.18h-.87v1.84l.69-.24.2.9c.2-.79.23-1.64.23-2.49v-2.89ZM135.98,79.81h1.17v6h-1.17v-6ZM138.83,86.85h-1.27v-7.56h1.27v7.56Z"/>
      <path class="cls-10" d="M142.58,83.68c-.28.07-.56.14-.85.22v1.77c0,.55-.09.84-.42,1.02-.32.18-.77.21-1.38.21-.04-.31-.2-.79-.34-1.09.3,0,.65,0,.76,0,.13,0,.16-.04.16-.16v-1.47l-.72.17-.31-1.15c.3-.05.65-.12,1.03-.2v-1.27h-.92v-1.11h.92v-1.52h1.22v1.52h.78v1.11h-.78v1.01l.71-.16.14,1.1ZM147.42,82.43c-.31,1.17-.82,2.07-1.51,2.78.53.31,1.14.56,1.85.72-.26.24-.61.73-.78,1.03-.8-.22-1.47-.55-2.05-.96-.62.4-1.34.7-2.14.93-.13-.31-.43-.83-.66-1.08.71-.15,1.34-.38,1.88-.69-.44-.5-.8-1.11-1.1-1.79l.39-.11h-.54v-1.08h1.6v-.85h-1.74v-1.1h1.74v-1.12h1.22v1.12h1.84v1.1h-1.84v.85h.84l.2-.04.8.31ZM144.1,83.25c.22.45.5.85.85,1.22.37-.36.67-.75.9-1.22h-1.75Z"/>
      <path class="cls-10" d="M153.3,82.28c.71,1.04,1.83,2.11,2.9,2.76-.31.25-.77.74-.99,1.08-.88-.65-1.74-1.61-2.44-2.65v3.48h-1.37v-3.06c-.7.94-1.56,1.75-2.53,2.29-.22-.31-.65-.81-.94-1.07,1.28-.61,2.45-1.7,3.14-2.84h-2.76v-1.18h3.1v-1.99h1.37v1.99h1.51c-.28-.34-.89-.87-1.33-1.23l.92-.73c.43.33,1.08.83,1.39,1.16l-.95.8h1.5v1.18h-2.5Z"/>
      <path class="cls-10" d="M161.49,82.49c.55,1.5,1.54,2.7,3.1,3.29-.31.26-.72.79-.92,1.14-1.5-.67-2.43-1.77-3.09-3.23-.48,1.27-1.39,2.42-3.06,3.23-.2-.33-.57-.76-.94-1.03,1.86-.82,2.64-2.06,2.99-3.41h-2.82v-1.25h3.02c.06-.73.05-1.46.06-2.14h1.36c0,.69-.02,1.41-.09,2.14h3.27v1.25h-2.89Z"/>
      <path class="cls-10" d="M172.91,84.88h-3.23v.77c0,.59-.14.89-.6,1.06-.45.17-1.02.19-1.72.19-.08-.34-.31-.85-.49-1.16.48.03,1.15.03,1.32.02.17,0,.22-.03.22-.14v-.74h-3.16v-1.1h3.16v-.48c.22-.09.46-.21.67-.33h-2.26v-1.03h3.67l.26-.06.78.6c-.5.45-1.15.89-1.85,1.25v.05h3.23v1.1ZM166.47,82.3h-1.16v-1.92h1.25c-.14-.25-.34-.53-.52-.75l1.05-.45c.29.31.62.74.76,1.06l-.33.15h1.2c-.12-.31-.31-.68-.5-.97l1.1-.4c.26.35.54.83.65,1.16l-.55.21h.96c.26-.38.51-.85.66-1.22l1.29.36c-.21.3-.43.59-.65.86h1.15v1.92h-1.22v-.87h-5.15v.87Z"/>
      <path class="cls-10" d="M122.39,89.45l.27-.32c.14.12.33.2.48.2.18,0,.26-.06.26-.17,0-.11-.11-.15-.28-.22l-.25-.1c-.21-.08-.4-.25-.4-.53,0-.32.3-.58.72-.58.23,0,.47.09.65.25l-.24.29c-.13-.1-.25-.15-.41-.15-.15,0-.24.06-.24.16s.13.15.3.22l.25.1c.25.1.39.26.39.53,0,.32-.28.6-.76.6-.26,0-.54-.09-.74-.28"/>
      <polygon class="cls-10" points="124.21 87.76 124.69 87.76 124.69 88.49 125.34 88.49 125.34 87.76 125.82 87.76 125.82 89.69 125.34 89.69 125.34 88.89 124.69 88.89 124.69 89.69 124.21 89.69 124.21 87.76"/>
      <polygon class="cls-10" points="126.27 87.76 127.53 87.76 127.53 88.14 126.75 88.14 126.75 88.5 127.42 88.5 127.42 88.89 126.75 88.89 126.75 89.3 127.56 89.3 127.56 89.69 126.27 89.69 126.27 87.76"/>
      <path class="cls-10" d="M127.95,87.76h.49l.49.92.19.43h.01c-.03-.2-.06-.48-.06-.71v-.64h.45v1.92h-.49l-.49-.93-.19-.42h-.01c.02.22.06.48.06.71v.64h-.45v-1.92Z"/>
      <polygon class="cls-10" points="129.86 89.41 130.72 88.14 129.94 88.14 129.94 87.76 131.3 87.76 131.3 88.04 130.45 89.3 131.31 89.3 131.31 89.69 129.86 89.69 129.86 89.41"/>
      <polygon class="cls-10" points="131.63 87.76 132.11 87.76 132.11 88.49 132.77 88.49 132.77 87.76 133.24 87.76 133.24 89.69 132.77 89.69 132.77 88.89 132.11 88.89 132.11 89.69 131.63 89.69 131.63 87.76"/>
      <polygon class="cls-10" points="133.7 87.76 134.96 87.76 134.96 88.14 134.17 88.14 134.17 88.5 134.84 88.5 134.84 88.89 134.17 88.89 134.17 89.3 134.98 89.3 134.98 89.69 133.7 89.69 133.7 87.76"/>
      <path class="cls-10" d="M135.37,87.76h.49l.49.92.19.43h.01c-.03-.2-.06-.48-.06-.71v-.64h.45v1.92h-.49l-.49-.93-.19-.42h-.01c.02.22.06.48.06.71v.64h-.45v-1.92Z"/>
      <polygon class="cls-10" points="138.4 88.14 137.87 88.14 137.87 87.76 139.42 87.76 139.42 88.14 138.88 88.14 138.88 89.69 138.4 89.69 138.4 88.14"/>
      <polygon class="cls-10" points="139.72 87.76 140.98 87.76 140.98 88.14 140.2 88.14 140.2 88.5 140.86 88.5 140.86 88.89 140.2 88.89 140.2 89.3 141.01 89.3 141.01 89.69 139.72 89.69 139.72 87.76"/>
      <path class="cls-10" d="M141.31,88.73c0-.64.44-1.01.95-1.01.26,0,.47.12.6.25l-.25.3c-.1-.09-.2-.15-.34-.15-.26,0-.47.22-.47.6s.18.6.46.6c.16,0,.29-.08.38-.18l.25.29c-.17.19-.39.28-.65.28-.5,0-.93-.34-.93-.99"/>
      <polygon class="cls-10" points="143.18 87.76 143.65 87.76 143.65 88.49 144.31 88.49 144.31 87.76 144.78 87.76 144.78 89.69 144.31 89.69 144.31 88.89 143.65 88.89 143.65 89.69 143.18 89.69 143.18 87.76"/>
      <path class="cls-10" d="M145.24,87.76h.49l.49.92.19.43h.01c-.03-.2-.06-.48-.06-.71v-.64h.45v1.92h-.49l-.49-.93-.19-.42h-.01c.02.22.06.48.06.71v.64h-.45v-1.92Z"/>
      <path class="cls-10" d="M147.18,88.71c0-.63.37-.99.91-.99s.91.36.91.99-.37,1.01-.91,1.01-.91-.38-.91-1.01M148.52,88.71c0-.37-.16-.59-.42-.59s-.42.22-.42.59.16.61.42.61.42-.24.42-.61"/>
      <polygon class="cls-10" points="149.37 87.76 149.84 87.76 149.84 89.3 150.61 89.3 150.61 89.69 149.37 89.69 149.37 87.76"/>
      <path class="cls-10" d="M150.75,88.71c0-.63.37-.99.91-.99s.91.36.91.99-.37,1.01-.91,1.01-.91-.38-.91-1.01M152.08,88.71c0-.37-.16-.59-.42-.59s-.42.22-.42.59.16.61.42.61.42-.24.42-.61"/>
      <path class="cls-10" d="M152.84,88.73c0-.64.45-1.01.98-1.01.29,0,.5.12.63.25l-.25.3c-.1-.09-.2-.15-.37-.15-.29,0-.5.22-.5.6s.18.6.54.6c.07,0,.15-.02.19-.05v-.31h-.31v-.38h.74v.9c-.14.13-.38.24-.66.24-.55,0-.98-.34-.98-.99"/>
      <path class="cls-10" d="M155.23,89.01l-.6-1.24h.51l.17.43c.05.15.1.28.16.43h.01c.06-.15.11-.28.17-.43l.17-.43h.5l-.6,1.24v.68h-.47v-.68Z"/>
      <path class="cls-10" d="M157.1,88.78v-1.02h.47v1.07c0,.36.11.49.33.49s.34-.13.34-.49v-1.07h.46v1.02c0,.65-.27.94-.8.94s-.81-.29-.81-.94"/>
      <path class="cls-10" d="M159.15,87.76h.49l.49.92.19.43h.01c-.03-.2-.06-.48-.06-.71v-.64h.45v1.92h-.49l-.49-.93-.19-.42h-.01c.02.22.06.48.06.71v.64h-.45v-1.92Z"/>
      <rect class="cls-10" x="161.18" y="87.76" width=".48" height="1.92"/>
      <path class="cls-10" d="M161.86,87.76h.5l.23.88c.06.21.1.41.15.62h.01c.06-.21.1-.41.15-.62l.22-.88h.49l-.6,1.92h-.57l-.6-1.92Z"/>
      <polygon class="cls-10" points="163.83 87.76 165.08 87.76 165.08 88.14 164.3 88.14 164.3 88.5 164.97 88.5 164.97 88.89 164.3 88.89 164.3 89.3 165.11 89.3 165.11 89.69 163.83 89.69 163.83 87.76"/>
      <path class="cls-10" d="M166.58,89.69l-.37-.68h-.23v.68h-.48v-1.92h.73c.42,0,.78.14.78.6,0,.28-.14.46-.34.56l.44.76h-.53ZM165.98,88.64h.21c.23,0,.35-.1.35-.28s-.12-.24-.35-.24h-.21v.52Z"/>
      <path class="cls-10" d="M167.22,89.45l.27-.32c.14.12.33.2.48.2.18,0,.26-.06.26-.17,0-.11-.11-.15-.28-.22l-.25-.1c-.21-.08-.4-.25-.4-.53,0-.32.3-.58.72-.58.23,0,.47.09.65.25l-.24.29c-.13-.1-.25-.15-.41-.15-.15,0-.24.06-.24.16s.13.15.3.22l.25.1c.25.1.39.26.39.53,0,.32-.28.6-.76.6-.26,0-.54-.09-.74-.28"/>
      <rect class="cls-10" x="169.05" y="87.76" width=".48" height="1.92"/>
      <polygon class="cls-10" points="170.36 88.14 169.83 88.14 169.83 87.76 171.38 87.76 171.38 88.14 170.84 88.14 170.84 89.69 170.36 89.69 170.36 88.14"/>
      <path class="cls-10" d="M171.97,89.01l-.6-1.24h.51l.17.43c.05.15.1.28.16.43h.01c.06-.15.11-.28.17-.43l.17-.43h.5l-.6,1.24v.68h-.47v-.68Z"/>
      <line class="cls-2" x1="121.68" y1="91.22" x2="173.84" y2="91.22"/>
      <rect class="cls-10" x="139.67" y="107.91" width="7.27" height="6.58"/>
      <rect class="cls-10" x="130.71" y="107.91" width="7.24" height="6.58"/>
      <rect class="cls-10" x="121.73" y="107.91" width="7.27" height="6.58"/>
      <rect class="cls-10" x="148.65" y="107.91" width="7.27" height="6.58"/>
      <rect class="cls-10" x="157.61" y="107.91" width="7.27" height="6.58"/>
      <rect class="cls-10" x="166.59" y="107.91" width="7.27" height="6.58"/>
      <polygon class="cls-10" points="125.87 116.44 125.82 122.95 128.99 125.25 129.04 116.44 125.87 116.44"/>
      <polygon class="cls-10" points="133.99 116.44 133.94 128.86 137.14 131.19 137.19 116.44 133.99 116.44"/>
      <polygon class="cls-10" points="142.14 116.44 142.09 134.8 145.26 137.11 145.3 116.44 142.14 116.44"/>
      <polygon class="cls-10" points="150.29 116.44 150.24 137.06 153.41 134.75 153.45 116.44 150.29 116.44"/>
      <polygon class="cls-10" points="158.4 116.44 158.36 131.14 161.53 128.83 161.57 116.44 158.4 116.44"/>
      <polygon class="cls-10" points="166.55 116.44 166.51 125.2 169.67 122.89 169.72 116.44 166.55 116.44"/>
      <path class="cls-10" d="M122.48,102.91l1.95-1.78c1.03.65,2.36,1.1,3.5,1.1,1.28,0,1.88-.36,1.88-.94,0-.62-.79-.83-2.03-1.22l-1.84-.58c-1.51-.45-2.92-1.39-2.92-2.96,0-1.81,2.17-3.26,5.22-3.26,1.66,0,3.43.48,4.68,1.42l-1.72,1.62c-.95-.54-1.84-.83-2.96-.83-1.06,0-1.72.32-1.72.9s.91.83,2.19,1.2l1.8.54c1.78.54,2.84,1.44,2.84,2.96,0,1.8-2.01,3.38-5.5,3.38-1.88,0-3.89-.52-5.38-1.55"/>
      <polygon class="cls-10" points="135.04 102.69 141.25 95.61 135.64 95.61 135.64 93.47 145.51 93.47 145.51 95.02 139.3 102.08 145.57 102.08 145.57 104.26 135.04 104.26 135.04 102.69"/>
      <polygon class="cls-10" points="150.91 95.61 147.02 95.61 147.02 93.47 158.28 93.47 158.28 95.61 154.37 95.61 154.37 104.26 150.91 104.26 150.91 95.61"/>
      <path class="cls-10" d="M160.62,99.18v-5.72h3.44v5.99c0,2.05.81,2.77,2.4,2.77s2.44-.73,2.44-2.77v-5.99h3.33v5.72c0,3.64-1.94,5.28-5.77,5.28s-5.84-1.64-5.84-5.28"/>
      <line class="cls-2" x1="121.68" y1="106.01" x2="173.84" y2="106.01"/>
    </g>
  </g>
  <text class="cls-27" transform="translate(123.46 214.58)"><tspan class="cls-31" x="0" y="0">本科毕业论</tspan><tspan x="234" y="0">文（设计）</tspan></text>
  <text class="cls-19" transform="translate(95.15 305.1)"><tspan x="0" y="0">深</tspan></text>
  <text class="cls-6" transform="translate(95.15 305.1)"><tspan x="0" y="0">深</tspan></text>
  <text class="cls-19" transform="translate(117.15 305.1)"><tspan x="0" y="0">圳</tspan></text>
  <text class="cls-6" transform="translate(117.15 305.1)"><tspan x="0" y="0">圳</tspan></text>
  <text class="cls-19" transform="translate(139.15 305.1)"><tspan x="0" y="0">技</tspan></text>
  <text class="cls-6" transform="translate(139.15 305.1)"><tspan x="0" y="0">技</tspan></text>
  <text class="cls-19" transform="translate(161.15 305.1)"><tspan x="0" y="0">术</tspan></text>
  <text class="cls-6" transform="translate(161.15 305.1)"><tspan x="0" y="0">术</tspan></text>
  <text class="cls-19" transform="translate(183.15 305.1)"><tspan x="0" y="0">大</tspan></text>
  <text class="cls-6" transform="translate(183.15 305.1)"><tspan x="0" y="0">大</tspan></text>
  <text class="cls-19" transform="translate(205.15 305.1)"><tspan x="0" y="0">学</tspan></text>
  <text class="cls-6" transform="translate(205.15 305.1)"><tspan x="0" y="0">学</tspan></text>
  <text class="cls-19" transform="translate(227.15 305.1)"><tspan x="0" y="0">本</tspan></text>
  <text class="cls-6" transform="translate(227.15 305.1)"><tspan x="0" y="0">本</tspan></text>
  <text class="cls-19" transform="translate(249.15 305.1)"><tspan x="0" y="0">科</tspan></text>
  <text class="cls-6" transform="translate(249.15 305.1)"><tspan x="0" y="0">科</tspan></text>
  <text class="cls-19" transform="translate(271.15 305.1)"><tspan x="0" y="0">学</tspan></text>
  <text class="cls-6" transform="translate(271.15 305.1)"><tspan x="0" y="0">学</tspan></text>
  <text class="cls-19" transform="translate(293.15 305.1)"><tspan x="0" y="0">位</tspan></text>
  <text class="cls-6" transform="translate(293.15 305.1)"><tspan x="0" y="0">位</tspan></text>
  <text class="cls-19" transform="translate(315.15 305.1)"><tspan x="0" y="0">论</tspan></text>
  <text class="cls-6" transform="translate(315.15 305.1)"><tspan x="0" y="0">论</tspan></text>
  <text class="cls-19" transform="translate(337.15 305.1)"><tspan x="0" y="0">文</tspan></text>
  <text class="cls-6" transform="translate(337.15 305.1)"><tspan x="0" y="0">文</tspan></text>
  <text class="cls-23" transform="translate(364.65 305.1)"><tspan x="0" y="0">La</tspan><tspan class="cls-32" x="25.67" y="0">T</tspan><tspan x="38.37" y="0">eX</tspan></text>
  <text class="cls-19" transform="translate(434.13 305.1)"><tspan x="0" y="0">模</tspan></text>
  <text class="cls-6" transform="translate(434.13 305.1)"><tspan x="0" y="0">模</tspan></text>
  <text class="cls-19" transform="translate(456.13 305.1)"><tspan x="0" y="0">板</tspan></text>
  <text class="cls-6" transform="translate(456.13 305.1)"><tspan x="0" y="0">板</tspan></text>
  <text class="cls-19" transform="translate(478.13 305.1)"><tspan x="0" y="0">标</tspan></text>
  <text class="cls-6" transform="translate(478.13 305.1)"><tspan x="0" y="0">标</tspan></text>
  <text class="cls-19" transform="translate(187.64 344.7)"><tspan x="0" y="0">题</tspan></text>
  <text class="cls-6" transform="translate(187.64 344.7)"><tspan x="0" y="0">题</tspan></text>
  <text class="cls-19" transform="translate(209.64 344.7)"><tspan x="0" y="0">可</tspan></text>
  <text class="cls-6" transform="translate(209.64 344.7)"><tspan x="0" y="0">可</tspan></text>
  <text class="cls-19" transform="translate(231.64 344.7)"><tspan x="0" y="0">能</tspan></text>
  <text class="cls-6" transform="translate(231.64 344.7)"><tspan x="0" y="0">能</tspan></text>
  <text class="cls-19" transform="translate(253.64 344.7)"><tspan x="0" y="0">很</tspan></text>
  <text class="cls-6" transform="translate(253.64 344.7)"><tspan x="0" y="0">很</tspan></text>
  <text class="cls-19" transform="translate(275.64 344.7)"><tspan x="0" y="0">长</tspan></text>
  <text class="cls-6" transform="translate(275.64 344.7)"><tspan x="0" y="0">长</tspan></text>
  <text class="cls-19" transform="translate(297.64 344.7)"><tspan x="0" y="0">则</tspan></text>
  <text class="cls-6" transform="translate(297.64 344.7)"><tspan x="0" y="0">则</tspan></text>
  <text class="cls-19" transform="translate(319.64 344.7)"><tspan x="0" y="0">两</tspan></text>
  <text class="cls-6" transform="translate(319.64 344.7)"><tspan x="0" y="0">两</tspan></text>
  <text class="cls-19" transform="translate(341.64 344.7)"><tspan x="0" y="0">行</tspan></text>
  <text class="cls-6" transform="translate(341.64 344.7)"><tspan x="0" y="0">行</tspan></text>
  <text class="cls-19" transform="translate(363.64 344.7)"><tspan x="0" y="0">呈</tspan></text>
  <text class="cls-6" transform="translate(363.64 344.7)"><tspan x="0" y="0">呈</tspan></text>
  <text class="cls-19" transform="translate(385.64 344.7)"><tspan x="0" y="0">现</tspan></text>
  <text class="cls-6" transform="translate(385.64 344.7)"><tspan x="0" y="0">现</tspan></text>
  <text class="cls-21" transform="translate(137.66 472.91)"><tspan class="cls-33" x="0" y="0">姓</tspan><tspan x="48" y="0">名：</tspan></text>
  <line class="cls-4" x1="229.38" y1="476.57" x2="317.73" y2="476.57"/>
  <line class="cls-4" x1="317.26" y1="476.57" x2="365.73" y2="476.57"/>
  <text class="cls-20" transform="translate(317.5 472.91)"><tspan x="0" y="0">郭</tspan></text>
  <text class="cls-3" transform="translate(317.5 472.91)"><tspan x="0" y="0">郭</tspan></text>
  <text class="cls-20" transform="translate(333.5 472.91)"><tspan x="0" y="0">大</tspan></text>
  <text class="cls-3" transform="translate(333.5 472.91)"><tspan x="0" y="0">大</tspan></text>
  <text class="cls-20" transform="translate(349.5 472.91)"><tspan x="0" y="0">侠</tspan></text>
  <text class="cls-3" transform="translate(349.5 472.91)"><tspan x="0" y="0">侠</tspan></text>
  <line class="cls-4" x1="365.26" y1="476.57" x2="453.61" y2="476.57"/>
  <text class="cls-21" transform="translate(137.66 512.66)"><tspan class="cls-33" x="0" y="0">学</tspan><tspan x="48" y="0">院：</tspan></text>
  <line class="cls-4" x1="229.38" y1="516.31" x2="269.73" y2="516.31"/>
  <line class="cls-4" x1="269.26" y1="516.31" x2="413.73" y2="516.31"/>
  <text class="cls-20" transform="translate(269.5 512.66)"><tspan x="0" y="0">大</tspan></text>
  <text class="cls-3" transform="translate(269.5 512.66)"><tspan x="0" y="0">大</tspan></text>
  <text class="cls-20" transform="translate(285.5 512.66)"><tspan x="0" y="0">数</tspan></text>
  <text class="cls-3" transform="translate(285.5 512.66)"><tspan x="0" y="0">数</tspan></text>
  <text class="cls-20" transform="translate(301.5 512.66)"><tspan x="0" y="0">据</tspan></text>
  <text class="cls-3" transform="translate(301.5 512.66)"><tspan x="0" y="0">据</tspan></text>
  <text class="cls-20" transform="translate(317.5 512.66)"><tspan x="0" y="0">与</tspan></text>
  <text class="cls-3" transform="translate(317.5 512.66)"><tspan x="0" y="0">与</tspan></text>
  <text class="cls-20" transform="translate(333.5 512.66)"><tspan x="0" y="0">互</tspan></text>
  <text class="cls-3" transform="translate(333.5 512.66)"><tspan x="0" y="0">互</tspan></text>
  <text class="cls-20" transform="translate(349.5 512.66)"><tspan x="0" y="0">联</tspan></text>
  <text class="cls-3" transform="translate(349.5 512.66)"><tspan x="0" y="0">联</tspan></text>
  <text class="cls-20" transform="translate(365.5 512.66)"><tspan x="0" y="0">网</tspan></text>
  <text class="cls-3" transform="translate(365.5 512.66)"><tspan x="0" y="0">网</tspan></text>
  <text class="cls-20" transform="translate(381.5 512.66)"><tspan x="0" y="0">学</tspan></text>
  <text class="cls-3" transform="translate(381.5 512.66)"><tspan x="0" y="0">学</tspan></text>
  <text class="cls-20" transform="translate(397.5 512.66)"><tspan x="0" y="0">院</tspan></text>
  <text class="cls-3" transform="translate(397.5 512.66)"><tspan x="0" y="0">院</tspan></text>
  <line class="cls-4" x1="413.26" y1="516.31" x2="453.61" y2="516.31"/>
  <text class="cls-21" transform="translate(137.66 552.4)"><tspan class="cls-33" x="0" y="0">专</tspan><tspan x="48" y="0">业：</tspan></text>
  <line class="cls-4" x1="229.38" y1="556.05" x2="301.73" y2="556.05"/>
  <line class="cls-4" x1="301.26" y1="556.05" x2="381.73" y2="556.05"/>
  <text class="cls-20" transform="translate(301.5 552.4)"><tspan x="0" y="0">物</tspan></text>
  <text class="cls-3" transform="translate(301.5 552.4)"><tspan x="0" y="0">物</tspan></text>
  <text class="cls-20" transform="translate(317.5 552.4)"><tspan x="0" y="0">联</tspan></text>
  <text class="cls-3" transform="translate(317.5 552.4)"><tspan x="0" y="0">联</tspan></text>
  <text class="cls-20" transform="translate(333.5 552.4)"><tspan x="0" y="0">网</tspan></text>
  <text class="cls-3" transform="translate(333.5 552.4)"><tspan x="0" y="0">网</tspan></text>
  <text class="cls-20" transform="translate(349.5 552.4)"><tspan x="0" y="0">工</tspan></text>
  <text class="cls-3" transform="translate(349.5 552.4)"><tspan x="0" y="0">工</tspan></text>
  <text class="cls-20" transform="translate(365.5 552.4)"><tspan x="0" y="0">程</tspan></text>
  <text class="cls-3" transform="translate(365.5 552.4)"><tspan x="0" y="0">程</tspan></text>
  <line class="cls-4" x1="381.26" y1="556.05" x2="453.61" y2="556.05"/>
  <text class="cls-21" transform="translate(137.66 592.15)"><tspan class="cls-33" x="0" y="0">学</tspan><tspan x="48" y="0">号：</tspan></text>
  <line class="cls-4" x1="229.38" y1="595.8" x2="305.73" y2="595.8"/>
  <line class="cls-4" x1="305.26" y1="595.8" x2="377.73" y2="595.8"/>
  <text class="cls-22" transform="translate(305.5 592.15)"><tspan x="0" y="0">123456789</tspan></text>
  <line class="cls-4" x1="377.26" y1="595.8" x2="453.61" y2="595.8"/>
  <text class="cls-21" transform="translate(137.66 631.89)"><tspan x="0" y="0">指导教师：</tspan></text>
  <line class="cls-4" x1="229.38" y1="635.54" x2="317.73" y2="635.54"/>
  <line class="cls-4" x1="317.26" y1="635.54" x2="365.73" y2="635.54"/>
  <text class="cls-20" transform="translate(317.5 631.89)"><tspan x="0" y="0">我</tspan></text>
  <text class="cls-3" transform="translate(317.5 631.89)"><tspan x="0" y="0">我</tspan></text>
  <text class="cls-20" transform="translate(333.5 631.89)"><tspan x="0" y="0">自</tspan></text>
  <text class="cls-3" transform="translate(333.5 631.89)"><tspan x="0" y="0">自</tspan></text>
  <text class="cls-20" transform="translate(349.5 631.89)"><tspan x="0" y="0">己</tspan></text>
  <text class="cls-3" transform="translate(349.5 631.89)"><tspan x="0" y="0">己</tspan></text>
  <line class="cls-4" x1="365.26" y1="635.54" x2="453.61" y2="635.54"/>
  <text class="cls-21" transform="translate(137.66 671.63)"><tspan class="cls-33" x="0" y="0">职</tspan><tspan x="48" y="0">称：</tspan></text>
  <line class="cls-4" x1="229.38" y1="675.29" x2="309.73" y2="675.29"/>
  <line class="cls-4" x1="309.26" y1="675.29" x2="373.73" y2="675.29"/>
  <text class="cls-20" transform="translate(309.5 671.63)"><tspan x="0" y="0">助</tspan></text>
  <text class="cls-3" transform="translate(309.5 671.63)"><tspan x="0" y="0">助</tspan></text>
  <text class="cls-20" transform="translate(325.5 671.63)"><tspan x="0" y="0">理</tspan></text>
  <text class="cls-3" transform="translate(325.5 671.63)"><tspan x="0" y="0">理</tspan></text>
  <text class="cls-20" transform="translate(341.5 671.63)"><tspan x="0" y="0">教</tspan></text>
  <text class="cls-3" transform="translate(341.5 671.63)"><tspan x="0" y="0">教</tspan></text>
  <text class="cls-20" transform="translate(357.5 671.63)"><tspan x="0" y="0">授</tspan></text>
  <text class="cls-3" transform="translate(357.5 671.63)"><tspan x="0" y="0">授</tspan></text>
  <line class="cls-4" x1="373.26" y1="675.29" x2="453.61" y2="675.29"/>
  <text class="cls-21" transform="translate(137.66 711.38)"><tspan x="0" y="0">提交日期：</tspan></text>
  <line class="cls-4" x1="229.38" y1="715.03" x2="283.73" y2="715.03"/>
  <line class="cls-4" x1="283.26" y1="715.03" x2="399.73" y2="715.03"/>
  <text class="cls-22" transform="translate(283.5 711.38)"><tspan x="0" y="0">2023</tspan></text>
  <text class="cls-20" transform="translate(319.5 711.38)"><tspan x="0" y="0">年</tspan></text>
  <text class="cls-3" transform="translate(319.5 711.38)"><tspan x="0" y="0">年</tspan></text>
  <text class="cls-22" transform="translate(339.5 711.38)"><tspan x="0" y="0">5</tspan></text>
  <text class="cls-20" transform="translate(351.5 711.38)"><tspan x="0" y="0">月</tspan></text>
  <text class="cls-3" transform="translate(351.5 711.38)"><tspan x="0" y="0">月</tspan></text>
  <text class="cls-22" transform="translate(371.5 711.38)"><tspan x="0" y="0">1</tspan></text>
  <text class="cls-20" transform="translate(383.5 711.38)"><tspan x="0" y="0">日</tspan></text>
  <text class="cls-3" transform="translate(383.5 711.38)"><tspan x="0" y="0">日</tspan></text>
  <line class="cls-4" x1="399.26" y1="715.03" x2="453.61" y2="715.03"/>
</svg>