<?xml version="1.0" encoding="utf-8"?>
<!-- Generator: Adobe Illustrator 28.2.0, SVG Export Plug-In . SVG Version: 6.00 Build 0)  -->
<svg version="1.1" id="图层_1" xmlns="http://www.w3.org/2000/svg" xmlns:xlink="http://www.w3.org/1999/xlink" x="0px" y="0px"
	 viewBox="0 0 595.3 841.9" style="enable-background:new 0 0 595.3 841.9;" xml:space="preserve">
<style type="text/css">
	.st0{clip-path:url(#SVGID_00000061451019580968757960000007444725118830154909_);}
	.st1{clip-path:url(#SVGID_00000073695837583978169160000003533603862103490199_);fill:#003592;}
	.st2{clip-path:url(#SVGID_00000073695837583978169160000003533603862103490199_);fill:#083683;}
	.st3{fill:#FFFFFF;}
	.st4{font-family:'SourceHanSansCN-Heavy';}
	.st5{font-size:7.3008px;}
	.st6{font-size:2.2856px;}
	.st7{clip-path:url(#SVGID_00000142171190536049660390000018226766237153125812_);fill:#FFFFFF;}
	
		.st8{clip-path:url(#SVGID_00000142171190536049660390000018226766237153125812_);fill:none;stroke:#FFFFFF;stroke-width:0.1241;stroke-miterlimit:10;}
	
		.st9{clip-path:url(#SVGID_00000142171190536049660390000018226766237153125812_);fill:none;stroke:#FFFFFF;stroke-width:0.1235;stroke-linecap:round;stroke-linejoin:round;stroke-miterlimit:10;}
	.st10{font-size:12.7981px;}
	
		.st11{clip-path:url(#SVGID_00000147927962935763454660000010026981114012293786_);fill:none;stroke:#FFFFFF;stroke-width:0.1259;stroke-miterlimit:10;}
	.st12{clip-path:url(#SVGID_00000001633986022919161250000009924744188217325969_);fill:#FFFFFF;}
	
		.st13{clip-path:url(#SVGID_00000001633986022919161250000009924744188217325969_);fill:none;stroke:#FFFFFF;stroke-width:0.1241;stroke-miterlimit:10;}
	.st14{clip-path:url(#SVGID_00000001633986022919161250000009924744188217325969_);fill:#023592;}
	
		.st15{clip-path:url(#SVGID_00000001633986022919161250000009924744188217325969_);fill:none;stroke:#FFFFFF;stroke-width:0.2465;stroke-miterlimit:10;}
	.st16{font-family:'SimSun';}
	.st17{font-size:22px;}
	.st18{fill:none;stroke:#000000;stroke-width:0.8833;stroke-miterlimit:10;}
	.st19{font-family:'SimHei';}
	.st20{font-size:16px;}
	.st21{fill:none;stroke:#000000;stroke-width:0.6424;stroke-miterlimit:10;}
	.st22{fill:none;stroke:#000000;stroke-width:0.3985;stroke-miterlimit:10;}
	.st23{font-family:'KaiTi';}
	.st24{font-family:'TimesNewRomanPS-BoldMT';}
	.st25{letter-spacing:-1;}
	.st26{letter-spacing:32;}
</style>
<g>
	<defs>
		<rect id="SVGID_1_" x="140.3" y="74.5" width="314.6" height="59.5"/>
	</defs>
	<clipPath id="SVGID_00000178921430582881367800000014844609432971391636_">
		<use xlink:href="#SVGID_1_"  style="overflow:visible;"/>
	</clipPath>
	<g style="clip-path:url(#SVGID_00000178921430582881367800000014844609432971391636_);">
		<defs>
			<rect id="SVGID_00000025413884464989171650000001974646569938983310_" x="140.3" y="74.5" width="314.6" height="59.5"/>
		</defs>
		<clipPath id="SVGID_00000044867498824141598920000017922296677763375283_">
			<use xlink:href="#SVGID_00000025413884464989171650000001974646569938983310_"  style="overflow:visible;"/>
		</clipPath>
		<path style="clip-path:url(#SVGID_00000044867498824141598920000017922296677763375283_);fill:#003592;" d="M207.2,94.9
			c-1.6-1.4-5-3.4-7.6-4.7l1.9-3c2.5,1.1,5.9,3,7.7,4.4L207.2,94.9z M210.1,100.5c-1.9,4.5-4.4,9.6-6.6,13.6l-3-2.9
			c1.9-3.2,4.8-8.6,7-13.5L210.1,100.5z M208.6,83c-1.6-1.3-4.7-3.2-7.1-4.4l2.1-3c2.3,1,5.5,2.8,7.1,4.1L208.6,83z M229.1,99.4
			c2.4,4,6.2,7.8,10,9.9c-0.9,0.8-2.2,2.2-2.8,3.2c-3.5-2.3-7-6.1-9.5-10.3v12.3h-4.1v-12.4c-2.7,4.5-6.5,8.3-10.6,10.5
			c-0.6-1-1.8-2.3-2.7-3.1c4.4-2,8.4-5.8,11-10.1h-8.5v-3.6h10.9v-4.5h4.1v4.5h10.9v3.6H229.1z M223.2,84.3
			c-2.1,3.7-5.6,7.3-8.8,9.6c-0.6-0.7-2-2.1-2.9-2.8c3.1-1.9,6.2-4.9,8-8L223.2,84.3z M215.7,85.4h-3.5v-8.1h25.6v8H234v-4.5h-18.4
			V85.4z M229.1,82.8c2.9,2.6,6.5,6.3,8.2,8.8l-3.1,2.2c-1.5-2.5-5-6.3-8-9.1L229.1,82.8z"/>
		<path style="clip-path:url(#SVGID_00000044867498824141598920000017922296677763375283_);fill:#003592;" d="M258,103.8
			c-4.8,2-9.9,4-13.9,5.6l-1.3-4.2c1.6-0.5,3.7-1.2,5.9-2V89.4h-5.2v-3.9h5.2v-9.8h4v9.8h5v3.9h-5v12.5c1.5-0.6,3-1.1,4.6-1.7
			L258,103.8z M260.2,76.4h4V91c0,8.2-0.5,16.6-5.3,23.3c-0.9-0.6-2.6-1.8-3.8-2.2c4.6-6.1,5.1-13.5,5.1-21V76.4z M268.6,78.5h3.8
			v30.7h-3.8V78.5z M280.9,114.2h-4.1V76.1h4.1V114.2z"/>
		<path style="clip-path:url(#SVGID_00000044867498824141598920000017922296677763375283_);fill:#003592;" d="M300.8,97.3
			c-1.6,0.5-3.3,1-4.9,1.4v11.4c0,2.1-0.4,3.2-1.7,3.8s-3.2,0.7-6.1,0.7c-0.2-1-0.7-2.6-1.2-3.6c1.9,0,3.7,0,4.2,0
			c0.6,0,0.9-0.2,0.9-0.8V99.9c-1.7,0.5-3.2,0.9-4.8,1.3l-1-3.8c1.6-0.4,3.6-0.9,5.8-1.4v-8.7h-5.3v-3.7h5.3v-8.5h3.9v8.4h4.5v3.8
			h-4.5v7.6l4.5-1.2L300.8,97.3z M324.1,92.1c-1.7,6-4.6,10.7-8.4,14.3c3,2.2,6.5,3.9,10.6,5c-0.9,0.8-2,2.4-2.6,3.4
			c-4.4-1.3-8-3.2-11.2-5.8c-3.5,2.6-7.5,4.5-11.8,5.8c-0.4-1-1.4-2.8-2.2-3.6c4-1,7.8-2.6,11.1-4.9c-2.9-3.2-5.1-6.9-6.7-11.2
			l0.6-0.2h-1.7v-3.7h8.9v-5.9H301v-3.7h9.7v-6.5h4v6.5h10v3.7h-10v5.9h6.1l0.7-0.1L324.1,92.1z M306.9,94.8
			c1.4,3.4,3.3,6.4,5.8,8.9c2.7-2.5,4.8-5.4,6.3-8.9H306.9z"/>
		<path style="clip-path:url(#SVGID_00000044867498824141598920000017922296677763375283_);fill:#003592;" d="M353.3,89.7
			c3.8,6.2,10.4,12.9,16.1,16.4c-1,0.9-2.5,2.5-3.2,3.6c-5-3.7-10.4-9.8-14.5-16v21h-4.4V95.3c-4,6.1-9.3,11.5-14.9,14.7
			c-0.7-1-2.1-2.6-3.1-3.5c6.6-3.4,13.2-10,16.9-16.9h-15.4v-3.9h16.5V75.1h4.4v10.7h16.1v3.9H353.3z M361.2,84.6
			c-1.6-1.8-4.8-4.5-7.4-6.4l3-2.5c2.5,1.8,5.9,4.4,7.5,6.1L361.2,84.6z"/>
		<path style="clip-path:url(#SVGID_00000044867498824141598920000017922296677763375283_);fill:#003592;" d="M395.7,91.2
			c2.9,9,8.4,16.3,16.6,19.7c-1,0.9-2.3,2.6-3,3.8c-8.1-3.8-13.3-10.8-16.7-19.9c-2.2,7.8-6.9,15.3-16.7,19.9
			c-0.6-1.1-1.9-2.5-3.1-3.4c10.3-4.5,14.5-12.3,16.2-20.1h-15.3V87h16.1c0.5-4.3,0.5-8.5,0.5-11.9h4.4c0,3.5-0.1,7.7-0.6,11.9h17.4
			v4.2H395.7z"/>
		<path style="clip-path:url(#SVGID_00000044867498824141598920000017922296677763375283_);fill:#003592;" d="M454.9,103h-17.2v7.1
			c0,2.2-0.6,3.3-2.3,3.9c-1.8,0.6-4.3,0.6-8.1,0.6c-0.3-1.1-1-2.8-1.7-3.8c3,0.1,6.1,0.1,7,0c0.8,0,1-0.2,1-0.8v-7h-16.7v-3.7h16.7
			v-2.9c2.2-0.8,4.5-2,6.4-3.2h-15.7v-3.5h20.3l0.8-0.2l2.6,2c-2.7,2.5-6.5,4.8-10.2,6.5v1.3h17.2V103z M421.4,90.9h-3.8v-8.9h6.8
			c-0.8-1.6-2.1-3.5-3.4-5.1l3.4-1.6c1.6,1.8,3.3,4.2,4,5.8l-1.7,0.9h8.6c-0.6-1.8-1.9-4.2-3-6.1l3.5-1.3c1.4,2,2.9,4.7,3.4,6.4
			l-2.4,1h6.4c1.5-2,3.2-4.7,4.1-6.7l4.1,1.4c-1.2,1.8-2.6,3.8-3.9,5.4h6.7v8.9h-4v-5.3h-28.9V90.9z"/>
		<path style="clip-path:url(#SVGID_00000044867498824141598920000017922296677763375283_);fill:#003592;" d="M200.7,132.6l1-1
			c0.7,0.6,1.8,1.1,2.8,1.1c1.3,0,2-0.5,2-1.3c0-0.8-0.7-1.1-1.7-1.4l-1.4-0.5c-1-0.4-2.1-1.1-2.1-2.4c0-1.4,1.4-2.5,3.4-2.5
			c1.2,0,2.4,0.4,3.1,1.1l-0.9,0.9c-0.6-0.5-1.4-0.8-2.3-0.8c-1.1,0-1.7,0.4-1.7,1.2c0,0.8,0.8,1.1,1.7,1.4l1.4,0.5
			c1.2,0.5,2.1,1.1,2.1,2.4c0,1.4-1.4,2.6-3.6,2.6C202.9,133.9,201.6,133.5,200.7,132.6"/>
		<polygon style="clip-path:url(#SVGID_00000044867498824141598920000017922296677763375283_);fill:#003592;" points="210,124.8 
			211.6,124.8 211.6,128.4 216,128.4 216,124.8 217.7,124.8 217.7,133.8 216,133.8 216,129.7 211.6,129.7 211.6,133.8 210,133.8 		
			"/>
		<polygon style="clip-path:url(#SVGID_00000044867498824141598920000017922296677763375283_);fill:#003592;" points="220.4,124.8 
			226.5,124.8 226.5,126 222,126 222,128.5 225.8,128.5 225.8,129.7 222,129.7 222,132.6 226.7,132.6 226.7,133.8 220.4,133.8 		"/>
		<path style="clip-path:url(#SVGID_00000044867498824141598920000017922296677763375283_);fill:#003592;" d="M228.8,124.8h1.7
			l3.4,5.3l1.1,1.9h0.1c-0.1-0.9-0.2-2-0.2-3v-4.2h1.5v9h-1.7l-3.4-5.3l-1.1-1.9h-0.1c0.1,0.9,0.2,2,0.2,3v4.2h-1.5V124.8z"/>
		<polygon style="clip-path:url(#SVGID_00000044867498824141598920000017922296677763375283_);fill:#003592;" points="238.5,132.9 
			243.6,126 238.9,126 238.9,124.8 245.7,124.8 245.7,125.6 240.5,132.6 245.7,132.6 245.7,133.8 238.5,133.8 		"/>
		<polygon style="clip-path:url(#SVGID_00000044867498824141598920000017922296677763375283_);fill:#003592;" points="247.7,124.8 
			249.3,124.8 249.3,128.4 253.8,128.4 253.8,124.8 255.4,124.8 255.4,133.8 253.8,133.8 253.8,129.7 249.3,129.7 249.3,133.8 
			247.7,133.8 		"/>
		<polygon style="clip-path:url(#SVGID_00000044867498824141598920000017922296677763375283_);fill:#003592;" points="258.1,124.8 
			264.2,124.8 264.2,126 259.8,126 259.8,128.5 263.6,128.5 263.6,129.7 259.8,129.7 259.8,132.6 264.4,132.6 264.4,133.8 
			258.1,133.8 		"/>
		<path style="clip-path:url(#SVGID_00000044867498824141598920000017922296677763375283_);fill:#003592;" d="M266.6,124.8h1.7
			l3.4,5.3l1.1,1.9h0.1c-0.1-0.9-0.2-2-0.2-3v-4.2h1.5v9h-1.7l-3.4-5.3l-1.1-1.9h-0.1c0.1,0.9,0.2,2,0.2,3v4.2h-1.5V124.8z"/>
		<polygon style="clip-path:url(#SVGID_00000044867498824141598920000017922296677763375283_);fill:#003592;" points="282.2,126 
			279.1,126 279.1,124.8 286.9,124.8 286.9,126 283.8,126 283.8,133.8 282.2,133.8 		"/>
		<polygon style="clip-path:url(#SVGID_00000044867498824141598920000017922296677763375283_);fill:#003592;" points="288.7,124.8 
			294.8,124.8 294.8,126 290.3,126 290.3,128.5 294.1,128.5 294.1,129.7 290.3,129.7 290.3,132.6 294.9,132.6 294.9,133.8 
			288.7,133.8 		"/>
		<path style="clip-path:url(#SVGID_00000044867498824141598920000017922296677763375283_);fill:#003592;" d="M296.5,129.3
			c0-2.9,2.1-4.7,4.7-4.7c1.3,0,2.3,0.5,2.9,1.1l-0.9,0.9c-0.5-0.5-1.2-0.8-2-0.8c-1.8,0-3,1.3-3,3.4c0,2.1,1.2,3.5,3,3.5
			c0.9,0,1.7-0.4,2.3-1l0.9,0.9c-0.8,0.8-1.9,1.3-3.2,1.3C298.5,133.9,296.5,132.3,296.5,129.3"/>
		<polygon style="clip-path:url(#SVGID_00000044867498824141598920000017922296677763375283_);fill:#003592;" points="306.2,124.8 
			307.8,124.8 307.8,128.4 312.3,128.4 312.3,124.8 313.9,124.8 313.9,133.8 312.3,133.8 312.3,129.7 307.8,129.7 307.8,133.8 
			306.2,133.8 		"/>
		<path style="clip-path:url(#SVGID_00000044867498824141598920000017922296677763375283_);fill:#003592;" d="M316.6,124.8h1.7
			l3.4,5.3l1.1,1.9h0.1c-0.1-0.9-0.2-2-0.2-3v-4.2h1.5v9h-1.7l-3.4-5.3l-1.1-1.9H318c0.1,0.9,0.2,2,0.2,3v4.2h-1.5V124.8z"/>
		<path style="clip-path:url(#SVGID_00000044867498824141598920000017922296677763375283_);fill:#003592;" d="M326.4,129.2
			c0-2.9,1.8-4.6,4.5-4.6c2.7,0,4.5,1.7,4.5,4.6c0,2.9-1.9,4.7-4.5,4.7C328.2,133.9,326.4,132.1,326.4,129.2 M333.7,129.2
			c0-2.1-1.1-3.4-2.8-3.4c-1.7,0-2.8,1.3-2.8,3.4c0,2.1,1.1,3.5,2.8,3.5C332.6,132.7,333.7,131.4,333.7,129.2"/>
		<polygon style="clip-path:url(#SVGID_00000044867498824141598920000017922296677763375283_);fill:#003592;" points="337.6,124.8 
			339.2,124.8 339.2,132.6 343.6,132.6 343.6,133.8 337.6,133.8 		"/>
		<path style="clip-path:url(#SVGID_00000044867498824141598920000017922296677763375283_);fill:#003592;" d="M344.4,129.2
			c0-2.9,1.8-4.6,4.5-4.6c2.7,0,4.5,1.7,4.5,4.6c0,2.9-1.9,4.7-4.5,4.7C346.2,133.9,344.4,132.1,344.4,129.2 M351.7,129.2
			c0-2.1-1.1-3.4-2.8-3.4c-1.7,0-2.8,1.3-2.8,3.4c0,2.1,1.1,3.5,2.8,3.5C350.6,132.7,351.7,131.4,351.7,129.2"/>
		<path style="clip-path:url(#SVGID_00000044867498824141598920000017922296677763375283_);fill:#003592;" d="M355,129.3
			c0-2.9,2.1-4.7,4.8-4.7c1.5,0,2.4,0.6,3.1,1.1l-0.9,0.9c-0.5-0.5-1.1-0.8-2.1-0.8c-1.9,0-3.2,1.3-3.2,3.4c0,2.1,1.1,3.5,3.3,3.5
			c0.6,0,1.3-0.2,1.6-0.4v-2.1h-2.1V129h3.5v3.9c-0.7,0.6-1.9,1.1-3.3,1.1C357,133.9,355,132.3,355,129.3"/>
		<path style="clip-path:url(#SVGID_00000044867498824141598920000017922296677763375283_);fill:#003592;" d="M367.2,130.4l-3.1-5.6
			h1.7l1.2,2.4c0.3,0.7,0.6,1.3,1,2h0.1c0.3-0.7,0.7-1.3,1-2l1.2-2.4h1.7l-3.1,5.6v3.4h-1.6V130.4z"/>
		<path style="clip-path:url(#SVGID_00000044867498824141598920000017922296677763375283_);fill:#003592;" d="M376.3,129.9v-5.1h1.6
			v5.2c0,2,0.9,2.7,2.2,2.7c1.3,0,2.3-0.7,2.3-2.7v-5.2h1.6v5.1c0,2.9-1.5,4-3.8,4C377.9,133.9,376.3,132.9,376.3,129.9"/>
		<path style="clip-path:url(#SVGID_00000044867498824141598920000017922296677763375283_);fill:#003592;" d="M386.7,124.8h1.7
			l3.4,5.3l1.1,1.9h0.1c-0.1-0.9-0.2-2-0.2-3v-4.2h1.5v9h-1.7l-3.4-5.3l-1.1-1.9h-0.1c0.1,0.9,0.2,2,0.2,3v4.2h-1.5V124.8z"/>
		
			<rect x="397.1" y="124.8" style="clip-path:url(#SVGID_00000044867498824141598920000017922296677763375283_);fill:#003592;" width="1.6" height="9"/>
		<path style="clip-path:url(#SVGID_00000044867498824141598920000017922296677763375283_);fill:#003592;" d="M400,124.8h1.7
			l1.5,4.7c0.4,1,0.6,1.9,0.9,2.9h0.1c0.4-1,0.6-1.9,0.9-2.9l1.5-4.7h1.7l-3.2,9h-1.9L400,124.8z"/>
		<polygon style="clip-path:url(#SVGID_00000044867498824141598920000017922296677763375283_);fill:#003592;" points="409.8,124.8 
			415.9,124.8 415.9,126 411.4,126 411.4,128.5 415.2,128.5 415.2,129.7 411.4,129.7 411.4,132.6 416.1,132.6 416.1,133.8 
			409.8,133.8 		"/>
		<path style="clip-path:url(#SVGID_00000044867498824141598920000017922296677763375283_);fill:#003592;" d="M423.9,133.8l-2.4-3.6
			h-1.7v3.6h-1.6v-9h3.4c2.1,0,3.7,0.7,3.7,2.6c0,1.4-0.9,2.2-2.2,2.6l2.5,3.8H423.9z M419.9,129h1.6c1.5,0,2.3-0.5,2.3-1.6
			s-0.8-1.5-2.3-1.5h-1.6V129z"/>
		<path style="clip-path:url(#SVGID_00000044867498824141598920000017922296677763375283_);fill:#003592;" d="M426.5,132.6l1-1
			c0.7,0.6,1.8,1.1,2.8,1.1c1.3,0,2-0.5,2-1.3c0-0.8-0.7-1.1-1.7-1.4l-1.4-0.5c-1-0.4-2.1-1.1-2.1-2.4c0-1.4,1.4-2.5,3.4-2.5
			c1.2,0,2.4,0.4,3.1,1.1l-0.9,0.9c-0.6-0.5-1.4-0.8-2.3-0.8c-1.1,0-1.7,0.4-1.7,1.2c0,0.8,0.8,1.1,1.7,1.4l1.4,0.5
			c1.2,0.5,2.1,1.1,2.1,2.4c0,1.4-1.4,2.6-3.6,2.6C428.8,133.9,427.4,133.5,426.5,132.6"/>
		
			<rect x="435.8" y="124.8" style="clip-path:url(#SVGID_00000044867498824141598920000017922296677763375283_);fill:#003592;" width="1.6" height="9"/>
		<polygon style="clip-path:url(#SVGID_00000044867498824141598920000017922296677763375283_);fill:#003592;" points="442.3,126 
			439.2,126 439.2,124.8 446.9,124.8 446.9,126 443.9,126 443.9,133.8 442.3,133.8 		"/>
		<path style="clip-path:url(#SVGID_00000044867498824141598920000017922296677763375283_);fill:#003592;" d="M450.2,130.4l-3.1-5.6
			h1.7l1.2,2.4c0.3,0.7,0.6,1.3,1,2h0.1c0.3-0.7,0.7-1.3,1-2l1.2-2.4h1.7l-3.1,5.6v3.4h-1.6V130.4z"/>
		<polygon style="clip-path:url(#SVGID_00000044867498824141598920000017922296677763375283_);fill:#083683;" points="140.4,74.5 
			190.4,74.5 190.4,115.4 165.4,133.6 140.3,115.4 		"/>
	</g>
	<g style="clip-path:url(#SVGID_00000178921430582881367800000014844609432971391636_);">
		<text transform="matrix(1.028 0 0 1 142.9131 84.7924)" class="st3 st4 st5">深圳技术大学</text>
	</g>
	<g style="clip-path:url(#SVGID_00000178921430582881367800000014844609432971391636_);">
		<text transform="matrix(1.0281 0 0 1 142.9131 87.8983)" class="st3 st4 st6">SHENZHEN TECHNOLOGY UNIVERSITY</text>
	</g>
	<g style="clip-path:url(#SVGID_00000178921430582881367800000014844609432971391636_);">
		<defs>
			<rect id="SVGID_00000016766164277995229270000014698014725900729237_" x="140.3" y="74.5" width="314.6" height="59.5"/>
		</defs>
		<clipPath id="SVGID_00000062894641119844417650000003517299852259184045_">
			<use xlink:href="#SVGID_00000016766164277995229270000014698014725900729237_"  style="overflow:visible;"/>
		</clipPath>
		
			<line style="clip-path:url(#SVGID_00000062894641119844417650000003517299852259184045_);fill:none;stroke:#FFFFFF;stroke-width:0.1241;stroke-miterlimit:10;" x1="142.4" y1="89.2" x2="188.4" y2="89.2"/>
		<polygon style="clip-path:url(#SVGID_00000062894641119844417650000003517299852259184045_);fill:#FFFFFF;" points="148.8,119.8 
			146,117.8 146.1,111.5 148.9,111.5 		"/>
		<polygon style="clip-path:url(#SVGID_00000062894641119844417650000003517299852259184045_);fill:#FFFFFF;" points="156,125.1 
			153.2,123.1 153.2,111.5 156.1,111.5 		"/>
		<polygon style="clip-path:url(#SVGID_00000062894641119844417650000003517299852259184045_);fill:#FFFFFF;" points="160.4,128.4 
			160.4,111.5 163.2,111.5 163.2,130.4 		"/>
		<polygon style="clip-path:url(#SVGID_00000062894641119844417650000003517299852259184045_);fill:#FFFFFF;" points="170.4,128.4 
			167.6,130.4 167.6,111.5 170.4,111.5 		"/>
		<polygon style="clip-path:url(#SVGID_00000062894641119844417650000003517299852259184045_);fill:#FFFFFF;" points="177.6,111.5 
			177.5,123.1 174.7,125.1 174.8,111.5 		"/>
		<polygon style="clip-path:url(#SVGID_00000062894641119844417650000003517299852259184045_);fill:#FFFFFF;" points="181.9,119.8 
			182,111.5 184.8,111.5 184.7,117.8 		"/>
		
			<rect x="158.3" y="104.1" style="clip-path:url(#SVGID_00000062894641119844417650000003517299852259184045_);fill:#FFFFFF;" width="6.4" height="5.8"/>
		
			<rect x="150.4" y="104.1" style="clip-path:url(#SVGID_00000062894641119844417650000003517299852259184045_);fill:#FFFFFF;" width="6.4" height="5.8"/>
		
			<rect x="142.4" y="104.1" style="clip-path:url(#SVGID_00000062894641119844417650000003517299852259184045_);fill:#FFFFFF;" width="6.4" height="5.8"/>
		
			<rect x="166.2" y="104.1" style="clip-path:url(#SVGID_00000062894641119844417650000003517299852259184045_);fill:#FFFFFF;" width="6.4" height="5.8"/>
		
			<rect x="174.1" y="104.1" style="clip-path:url(#SVGID_00000062894641119844417650000003517299852259184045_);fill:#FFFFFF;" width="6.4" height="5.8"/>
		
			<rect x="182" y="104.1" style="clip-path:url(#SVGID_00000062894641119844417650000003517299852259184045_);fill:#FFFFFF;" width="6.4" height="5.8"/>
		
			<polygon style="clip-path:url(#SVGID_00000062894641119844417650000003517299852259184045_);fill:none;stroke:#FFFFFF;stroke-width:0.1235;stroke-linecap:round;stroke-linejoin:round;stroke-miterlimit:10;" points="
			142.4,76.4 188.4,76.4 188.4,114.6 165.4,132 142.3,114.6 		"/>
	</g>
	<g style="clip-path:url(#SVGID_00000178921430582881367800000014844609432971391636_);">
		<text transform="matrix(1.3341 0 0 1 142.5967 101.0389)"><tspan x="0" y="0" class="st3 st4 st10">S</tspan><tspan x="6.5" y="0" class="st3 st4 st10">Z</tspan><tspan x="13" y="0" class="st3 st4 st10">T</tspan><tspan x="19.6" y="0" class="st3 st4 st10">U</tspan></text>
	</g>
	<g style="clip-path:url(#SVGID_00000178921430582881367800000014844609432971391636_);">
		<defs>
			<rect id="SVGID_00000007424609774653018280000004117191028820276618_" x="140.3" y="74.5" width="314.6" height="59.5"/>
		</defs>
		<clipPath id="SVGID_00000151520698098239228260000001592629191004104609_">
			<use xlink:href="#SVGID_00000007424609774653018280000004117191028820276618_"  style="overflow:visible;"/>
		</clipPath>
		
			<path style="clip-path:url(#SVGID_00000151520698098239228260000001592629191004104609_);fill:none;stroke:#FFFFFF;stroke-width:0.1259;stroke-miterlimit:10;" d="
			M148.6,97.7c0.4,0.3,0.6,0.6,0.6,1c0,0.6-0.2,1.1-0.6,1.5c-0.4,0.3-0.9,0.5-1.7,0.5c-0.7,0-1.3-0.2-1.9-0.5
			c-0.6-0.3-1-0.9-1.3-1.7l-0.4,0.1l0.5,2.4c0.2-0.1,0.3-0.2,0.5-0.2c0.1-0.1,0.3-0.1,0.4-0.1c0.2,0,0.5,0,0.9,0.1
			c0.4,0.1,0.8,0.2,1.2,0.2c1.1,0,1.9-0.2,2.4-0.7c0.6-0.5,0.8-1,0.8-1.6c0-0.6-0.2-1.1-0.7-1.5c-0.5-0.4-1.2-0.8-2.3-1.1
			c-1.3-0.4-2.1-0.8-2.4-1c-0.3-0.2-0.4-0.5-0.4-0.9c0-0.4,0.2-0.8,0.5-1.1c0.3-0.4,0.9-0.5,1.7-0.5c0.7,0,1.2,0.1,1.6,0.4
			c0.4,0.2,0.8,0.7,1.2,1.4l0.3-0.1l-0.3-2c-0.1,0.1-0.2,0.2-0.3,0.3c-0.1,0.1-0.2,0.1-0.4,0.1c-0.2,0-0.5-0.1-0.9-0.2
			c-0.4-0.1-0.8-0.2-1.3-0.2c-1,0-1.8,0.2-2.4,0.7c-0.6,0.5-0.8,0.9-0.8,1.4c0,0.6,0.2,1.1,0.7,1.4c0.4,0.3,1.3,0.7,2.5,1.1
			C147.5,97,148.1,97.3,148.6,97.7z"/>
		
			<path style="clip-path:url(#SVGID_00000151520698098239228260000001592629191004104609_);fill:none;stroke:#FFFFFF;stroke-width:0.1259;stroke-miterlimit:10;" d="
			M153.2,100.5l5.9-8.2H153l-0.8,1.7l0.4,0.1c0.4-0.5,0.8-0.9,1.2-1.1c0.5-0.3,1-0.4,1.6-0.4h2.3l-5.9,8.2h6.4l0.7-2l-0.4-0.1
			c-0.3,0.6-0.6,1-1,1.3c-0.4,0.3-0.9,0.4-1.5,0.4H153.2z"/>
		
			<path style="clip-path:url(#SVGID_00000151520698098239228260000001592629191004104609_);fill:none;stroke:#FFFFFF;stroke-width:0.1259;stroke-miterlimit:10;" d="
			M165.9,100.5h-0.6c-0.2,0-0.3,0-0.4-0.1c-0.1-0.1-0.2-0.2-0.2-0.3v-6.9c0-0.3,0-0.5,0.1-0.5c0,0,0.3,0,0.7,0c0.6,0,1,0.1,1.2,0.3
			c0.2,0.2,0.5,0.6,0.8,1.3l0.3-0.1l-0.5-1.9h-6.3l-0.6,1.9l0.4,0.1c0.4-0.7,0.7-1.2,0.9-1.3c0.2-0.2,0.7-0.3,1.3-0.3
			c0.3,0,0.5,0,0.5,0c0,0,0.1,0.2,0.1,0.4v7c0,0.1,0,0.2-0.1,0.3c-0.1,0.1-0.2,0.1-0.5,0.1h-0.6v0.3h3.5V100.5z"/>
		
			<path style="clip-path:url(#SVGID_00000151520698098239228260000001592629191004104609_);fill:none;stroke:#FFFFFF;stroke-width:0.1259;stroke-miterlimit:10;" d="
			M171.6,100.2c-0.4-0.2-0.6-0.7-0.6-1.4V93c0-0.1,0.1-0.2,0.2-0.3c0.1-0.1,0.3-0.1,0.4-0.1h0.3v-0.3H169v0.3h0.3
			c0.2,0,0.4,0,0.5,0.1c0.1,0.1,0.1,0.2,0.1,0.3v5.8c0,0.7,0.3,1.3,0.9,1.6c0.6,0.3,1.3,0.5,2.1,0.5c0.8,0,1.4-0.2,2-0.6
			c0.6-0.4,0.9-0.9,0.9-1.6V93c0-0.1,0.1-0.2,0.2-0.3c0.1-0.1,0.3-0.1,0.4-0.1h0.4v-0.3h-2.4v0.3h0.4c0.2,0,0.4,0,0.5,0.1
			c0.1,0.1,0.1,0.2,0.1,0.3v5.8c0,0.5-0.2,0.9-0.7,1.2c-0.5,0.3-1,0.5-1.7,0.5C172.4,100.5,171.9,100.4,171.6,100.2z"/>
	</g>
	<g style="clip-path:url(#SVGID_00000178921430582881367800000014844609432971391636_);">
		<text transform="matrix(1.3341 0 0 1 177.4277 101.0389)" class="st3 st4 st10"> </text>
	</g>
	<g style="clip-path:url(#SVGID_00000178921430582881367800000014844609432971391636_);">
		<defs>
			<rect id="SVGID_00000138560624984390925480000008835172547927427226_" x="140.3" y="74.5" width="314.6" height="59.5"/>
		</defs>
		<clipPath id="SVGID_00000063601876358415892230000004315600953500440240_">
			<use xlink:href="#SVGID_00000138560624984390925480000008835172547927427226_"  style="overflow:visible;"/>
		</clipPath>
		
			<line style="clip-path:url(#SVGID_00000063601876358415892230000004315600953500440240_);fill:none;stroke:#FFFFFF;stroke-width:0.1241;stroke-miterlimit:10;" x1="142.4" y1="102.3" x2="188.4" y2="102.3"/>
		<polygon style="clip-path:url(#SVGID_00000063601876358415892230000004315600953500440240_);fill:#023592;" points="140.4,74.5 
			190.4,74.5 190.4,115.4 165.4,133.6 140.3,115.4 		"/>
		
			<polygon style="clip-path:url(#SVGID_00000063601876358415892230000004315600953500440240_);fill:none;stroke:#FFFFFF;stroke-width:0.2465;stroke-miterlimit:10;" points="
			142.4,76.4 188.4,76.4 188.4,114.5 165.4,131.2 142.3,114.5 		"/>
		<path style="clip-path:url(#SVGID_00000063601876358415892230000004315600953500440240_);fill:#FFFFFF;" d="M144.4,82.3
			c-0.3-0.2-0.9-0.6-1.3-0.9l0.5-0.8c0.4,0.2,1,0.5,1.3,0.8L144.4,82.3z M145.1,83.1c-0.3,0.8-0.7,1.6-1.1,2.3l-0.8-0.7
			c0.3-0.5,0.8-1.4,1.2-2.3L145.1,83.1z M144.6,80.2c-0.3-0.2-0.8-0.5-1.2-0.7l0.5-0.8c0.4,0.2,1,0.5,1.3,0.6L144.6,80.2z M148.8,83
			c0.4,0.5,0.9,1,1.5,1.3c-0.2,0.2-0.6,0.6-0.8,0.8c-0.5-0.3-0.9-0.8-1.3-1.3v1.6h-1.1v-1.6c-0.4,0.6-1,1.1-1.6,1.4
			c-0.2-0.2-0.5-0.6-0.7-0.8c0.7-0.3,1.3-0.8,1.7-1.4h-1.2v-0.9h1.8v-0.7h1.1v0.7h1.8V83H148.8z M147.5,80.3c-0.4,0.6-1,1.3-1.6,1.7
			c-0.2-0.2-0.5-0.6-0.7-0.7c0.3-0.2,0.7-0.5,1-0.8h-0.8v-1.6h4.7v1.6h-0.9c0.4,0.3,0.7,0.7,0.9,1l-0.8,0.6
			c-0.3-0.4-0.9-1.1-1.4-1.6l0.8-0.5c0.2,0.1,0.3,0.3,0.5,0.5v-0.6h-2.8v0.6c0.1-0.1,0.2-0.2,0.2-0.3L147.5,80.3z"/>
		<path style="clip-path:url(#SVGID_00000063601876358415892230000004315600953500440240_);fill:#FFFFFF;" d="M153.6,78.8h1.1v2.6
			c0,1.4-0.1,2.9-0.8,4.1c-0.3-0.2-0.8-0.5-1.1-0.6c0.2-0.4,0.4-0.7,0.5-1.1c-0.8,0.3-1.7,0.7-2.4,0.9l-0.4-1.1
			c0.3-0.1,0.6-0.2,1-0.3v-2h-0.8v-1h0.8v-1.6h1.1v1.6h0.8v1h-0.8v1.6l0.6-0.2l0.2,0.8c0.2-0.7,0.2-1.4,0.2-2.2V78.8z M155,79.2h1
			v5.3h-1V79.2z M157.5,85.4h-1.1v-6.7h1.1V85.4z"/>
		<path style="clip-path:url(#SVGID_00000063601876358415892230000004315600953500440240_);fill:#FFFFFF;" d="M160.8,82.6
			c-0.2,0.1-0.5,0.1-0.8,0.2v1.6c0,0.5-0.1,0.7-0.4,0.9c-0.3,0.2-0.7,0.2-1.2,0.2c0-0.3-0.2-0.7-0.3-1c0.3,0,0.6,0,0.7,0
			c0.1,0,0.1,0,0.1-0.1V83l-0.6,0.1l-0.3-1c0.3,0,0.6-0.1,0.9-0.2v-1.1h-0.8v-1h0.8v-1.3h1.1v1.3h0.7v1h-0.7v0.9l0.6-0.1L160.8,82.6
			z M165.1,81.5c-0.3,1-0.7,1.8-1.3,2.5c0.5,0.3,1,0.5,1.6,0.6c-0.2,0.2-0.5,0.6-0.7,0.9c-0.7-0.2-1.3-0.5-1.8-0.8
			c-0.5,0.4-1.2,0.6-1.9,0.8c-0.1-0.3-0.4-0.7-0.6-1c0.6-0.1,1.2-0.3,1.7-0.6c-0.4-0.4-0.7-1-1-1.6l0.3-0.1H161v-1h1.4v-0.8h-1.5v-1
			h1.5v-1h1.1v1h1.6v1h-1.6v0.8h0.7l0.2,0L165.1,81.5z M162.2,82.2c0.2,0.4,0.4,0.8,0.8,1.1c0.3-0.3,0.6-0.7,0.8-1.1H162.2z"/>
		<path style="clip-path:url(#SVGID_00000063601876358415892230000004315600953500440240_);fill:#FFFFFF;" d="M170.3,81.4
			c0.6,0.9,1.6,1.9,2.6,2.4c-0.3,0.2-0.7,0.7-0.9,1c-0.8-0.6-1.5-1.4-2.2-2.3v3.1h-1.2v-2.7c-0.6,0.8-1.4,1.5-2.2,2
			c-0.2-0.3-0.6-0.7-0.8-0.9c1.1-0.5,2.2-1.5,2.8-2.5h-2.4v-1h2.7v-1.8h1.2v1.8h1.3c-0.2-0.3-0.8-0.8-1.2-1.1l0.8-0.6
			c0.4,0.3,1,0.7,1.2,1l-0.8,0.7h1.3v1H170.3z"/>
		<path style="clip-path:url(#SVGID_00000063601876358415892230000004315600953500440240_);fill:#FFFFFF;" d="M177.5,81.5
			c0.5,1.3,1.4,2.4,2.7,2.9c-0.3,0.2-0.6,0.7-0.8,1c-1.3-0.6-2.1-1.6-2.7-2.9c-0.4,1.1-1.2,2.1-2.7,2.9c-0.2-0.3-0.5-0.7-0.8-0.9
			c1.6-0.7,2.3-1.8,2.6-3h-2.5v-1.1h2.7c0.1-0.6,0-1.3,0.1-1.9h1.2c0,0.6,0,1.2-0.1,1.9h2.9v1.1H177.5z"/>
		<path style="clip-path:url(#SVGID_00000063601876358415892230000004315600953500440240_);fill:#FFFFFF;" d="M187.6,83.7h-2.9v0.7
			c0,0.5-0.1,0.8-0.5,0.9c-0.4,0.2-0.9,0.2-1.5,0.2c-0.1-0.3-0.3-0.8-0.4-1c0.4,0,1,0,1.2,0c0.2,0,0.2,0,0.2-0.1v-0.6h-2.8v-1h2.8
			v-0.4c0.2-0.1,0.4-0.2,0.6-0.3h-2v-0.9h3.2l0.2-0.1l0.7,0.5c-0.4,0.4-1,0.8-1.6,1.1v0h2.9V83.7z M181.9,81.4h-1v-1.7h1.1
			c-0.1-0.2-0.3-0.5-0.5-0.7l0.9-0.4c0.3,0.3,0.5,0.7,0.7,0.9l-0.3,0.1h1.1c-0.1-0.3-0.3-0.6-0.4-0.9l1-0.3c0.2,0.3,0.5,0.7,0.6,1
			l-0.5,0.2h0.8c0.2-0.3,0.5-0.8,0.6-1.1l1.1,0.3c-0.2,0.3-0.4,0.5-0.6,0.8h1v1.7h-1.1v-0.8h-4.5V81.4z"/>
		<path style="clip-path:url(#SVGID_00000063601876358415892230000004315600953500440240_);fill:#FFFFFF;" d="M143,87.7l0.2-0.3
			c0.1,0.1,0.3,0.2,0.4,0.2c0.2,0,0.2-0.1,0.2-0.1c0-0.1-0.1-0.1-0.2-0.2l-0.2-0.1c-0.2-0.1-0.4-0.2-0.4-0.5c0-0.3,0.3-0.5,0.6-0.5
			c0.2,0,0.4,0.1,0.6,0.2l-0.2,0.3c-0.1-0.1-0.2-0.1-0.4-0.1c-0.1,0-0.2,0.1-0.2,0.1c0,0.1,0.1,0.1,0.3,0.2l0.2,0.1
			c0.2,0.1,0.3,0.2,0.3,0.5c0,0.3-0.2,0.5-0.7,0.5C143.4,87.9,143.2,87.8,143,87.7"/>
		<polygon style="clip-path:url(#SVGID_00000063601876358415892230000004315600953500440240_);fill:#FFFFFF;" points="144.6,86.2 
			145,86.2 145,86.8 145.6,86.8 145.6,86.2 146,86.2 146,87.9 145.6,87.9 145.6,87.2 145,87.2 145,87.9 144.6,87.9 		"/>
		<polygon style="clip-path:url(#SVGID_00000063601876358415892230000004315600953500440240_);fill:#FFFFFF;" points="146.4,86.2 
			147.5,86.2 147.5,86.5 146.9,86.5 146.9,86.9 147.4,86.9 147.4,87.2 146.9,87.2 146.9,87.6 147.6,87.6 147.6,87.9 146.4,87.9 		
			"/>
		<path style="clip-path:url(#SVGID_00000063601876358415892230000004315600953500440240_);fill:#FFFFFF;" d="M147.9,86.2h0.4
			l0.4,0.8l0.2,0.4h0c0-0.2-0.1-0.4-0.1-0.6v-0.6h0.4v1.7h-0.4l-0.4-0.8l-0.2-0.4h0c0,0.2,0.1,0.4,0.1,0.6v0.6h-0.4V86.2z"/>
		<polygon style="clip-path:url(#SVGID_00000063601876358415892230000004315600953500440240_);fill:#FFFFFF;" points="149.6,87.7 
			150.4,86.5 149.7,86.5 149.7,86.2 150.9,86.2 150.9,86.4 150.1,87.6 150.9,87.6 150.9,87.9 149.6,87.9 		"/>
		<polygon style="clip-path:url(#SVGID_00000063601876358415892230000004315600953500440240_);fill:#FFFFFF;" points="151.2,86.2 
			151.6,86.2 151.6,86.8 152.2,86.8 152.2,86.2 152.6,86.2 152.6,87.9 152.2,87.9 152.2,87.2 151.6,87.2 151.6,87.9 151.2,87.9 		
			"/>
		<polygon style="clip-path:url(#SVGID_00000063601876358415892230000004315600953500440240_);fill:#FFFFFF;" points="153,86.2 
			154.1,86.2 154.1,86.5 153.4,86.5 153.4,86.9 154,86.9 154,87.2 153.4,87.2 153.4,87.6 154.1,87.6 154.1,87.9 153,87.9 		"/>
		<path style="clip-path:url(#SVGID_00000063601876358415892230000004315600953500440240_);fill:#FFFFFF;" d="M154.5,86.2h0.4
			l0.4,0.8l0.2,0.4h0c0-0.2-0.1-0.4-0.1-0.6v-0.6h0.4v1.7h-0.4l-0.4-0.8l-0.2-0.4h0c0,0.2,0.1,0.4,0.1,0.6v0.6h-0.4V86.2z"/>
		<polygon style="clip-path:url(#SVGID_00000063601876358415892230000004315600953500440240_);fill:#FFFFFF;" points="157.1,86.5 
			156.7,86.5 156.7,86.2 158,86.2 158,86.5 157.6,86.5 157.6,87.9 157.1,87.9 		"/>
		<polygon style="clip-path:url(#SVGID_00000063601876358415892230000004315600953500440240_);fill:#FFFFFF;" points="158.3,86.2 
			159.4,86.2 159.4,86.5 158.7,86.5 158.7,86.9 159.3,86.9 159.3,87.2 158.7,87.2 158.7,87.6 159.4,87.6 159.4,87.9 158.3,87.9 		
			"/>
		<path style="clip-path:url(#SVGID_00000063601876358415892230000004315600953500440240_);fill:#FFFFFF;" d="M159.7,87.1
			c0-0.6,0.4-0.9,0.8-0.9c0.2,0,0.4,0.1,0.5,0.2l-0.2,0.3c-0.1-0.1-0.2-0.1-0.3-0.1c-0.2,0-0.4,0.2-0.4,0.5c0,0.3,0.2,0.5,0.4,0.5
			c0.1,0,0.3-0.1,0.3-0.2l0.2,0.3c-0.1,0.2-0.3,0.3-0.6,0.3C160.1,87.9,159.7,87.6,159.7,87.1"/>
		<polygon style="clip-path:url(#SVGID_00000063601876358415892230000004315600953500440240_);fill:#FFFFFF;" points="161.3,86.2 
			161.8,86.2 161.8,86.8 162.3,86.8 162.3,86.2 162.8,86.2 162.8,87.9 162.3,87.9 162.3,87.2 161.8,87.2 161.8,87.9 161.3,87.9 		
			"/>
		<path style="clip-path:url(#SVGID_00000063601876358415892230000004315600953500440240_);fill:#FFFFFF;" d="M163.2,86.2h0.4
			L164,87l0.2,0.4h0c0-0.2-0.1-0.4-0.1-0.6v-0.6h0.4v1.7h-0.4l-0.4-0.8l-0.2-0.4h0c0,0.2,0.1,0.4,0.1,0.6v0.6h-0.4V86.2z"/>
		<path style="clip-path:url(#SVGID_00000063601876358415892230000004315600953500440240_);fill:#FFFFFF;" d="M164.9,87
			c0-0.6,0.3-0.9,0.8-0.9c0.5,0,0.8,0.3,0.8,0.9c0,0.6-0.3,0.9-0.8,0.9C165.2,87.9,164.9,87.6,164.9,87 M166.1,87
			c0-0.3-0.1-0.5-0.4-0.5c-0.2,0-0.4,0.2-0.4,0.5c0,0.3,0.1,0.5,0.4,0.5C165.9,87.6,166.1,87.4,166.1,87"/>
		<polygon style="clip-path:url(#SVGID_00000063601876358415892230000004315600953500440240_);fill:#FFFFFF;" points="166.8,86.2 
			167.2,86.2 167.2,87.6 167.9,87.6 167.9,87.9 166.8,87.9 		"/>
		<path style="clip-path:url(#SVGID_00000063601876358415892230000004315600953500440240_);fill:#FFFFFF;" d="M168,87
			c0-0.6,0.3-0.9,0.8-0.9c0.5,0,0.8,0.3,0.8,0.9c0,0.6-0.3,0.9-0.8,0.9C168.4,87.9,168,87.6,168,87 M169.2,87c0-0.3-0.1-0.5-0.4-0.5
			s-0.4,0.2-0.4,0.5c0,0.3,0.1,0.5,0.4,0.5S169.2,87.4,169.2,87"/>
		<path style="clip-path:url(#SVGID_00000063601876358415892230000004315600953500440240_);fill:#FFFFFF;" d="M169.9,87.1
			c0-0.6,0.4-0.9,0.9-0.9c0.3,0,0.4,0.1,0.6,0.2l-0.2,0.3c-0.1-0.1-0.2-0.1-0.3-0.1c-0.3,0-0.4,0.2-0.4,0.5c0,0.3,0.2,0.5,0.5,0.5
			c0.1,0,0.1,0,0.2,0v-0.3h-0.3v-0.3h0.7v0.8c-0.1,0.1-0.3,0.2-0.6,0.2C170.3,87.9,169.9,87.6,169.9,87.1"/>
		<path style="clip-path:url(#SVGID_00000063601876358415892230000004315600953500440240_);fill:#FFFFFF;" d="M172,87.3l-0.5-1.1
			h0.4l0.1,0.4c0,0.1,0.1,0.2,0.1,0.4h0c0-0.1,0.1-0.3,0.1-0.4l0.1-0.4h0.4l-0.5,1.1v0.6H172V87.3z"/>
		<path style="clip-path:url(#SVGID_00000063601876358415892230000004315600953500440240_);fill:#FFFFFF;" d="M173.6,87.1v-0.9h0.4
			v0.9c0,0.3,0.1,0.4,0.3,0.4c0.2,0,0.3-0.1,0.3-0.4v-0.9h0.4v0.9c0,0.6-0.2,0.8-0.7,0.8C173.9,87.9,173.6,87.7,173.6,87.1"/>
		<path style="clip-path:url(#SVGID_00000063601876358415892230000004315600953500440240_);fill:#FFFFFF;" d="M175.4,86.2h0.4
			l0.4,0.8l0.2,0.4h0c0-0.2-0.1-0.4-0.1-0.6v-0.6h0.4v1.7h-0.4l-0.4-0.8l-0.2-0.4h0c0,0.2,0.1,0.4,0.1,0.6v0.6h-0.4V86.2z"/>
		
			<rect x="177.2" y="86.2" style="clip-path:url(#SVGID_00000063601876358415892230000004315600953500440240_);fill:#FFFFFF;" width="0.4" height="1.7"/>
		<path style="clip-path:url(#SVGID_00000063601876358415892230000004315600953500440240_);fill:#FFFFFF;" d="M177.8,86.2h0.4
			l0.2,0.8c0.1,0.2,0.1,0.4,0.1,0.5h0c0-0.2,0.1-0.4,0.1-0.5l0.2-0.8h0.4l-0.5,1.7h-0.5L177.8,86.2z"/>
		<polygon style="clip-path:url(#SVGID_00000063601876358415892230000004315600953500440240_);fill:#FFFFFF;" points="179.6,86.2 
			180.7,86.2 180.7,86.5 180,86.5 180,86.9 180.6,86.9 180.6,87.2 180,87.2 180,87.6 180.7,87.6 180.7,87.9 179.6,87.9 		"/>
		<path style="clip-path:url(#SVGID_00000063601876358415892230000004315600953500440240_);fill:#FFFFFF;" d="M182,87.9l-0.3-0.6
			h-0.2v0.6H181v-1.7h0.6c0.4,0,0.7,0.1,0.7,0.5c0,0.2-0.1,0.4-0.3,0.5l0.4,0.7H182z M181.5,87h0.2c0.2,0,0.3-0.1,0.3-0.2
			c0-0.2-0.1-0.2-0.3-0.2h-0.2V87z"/>
		<path style="clip-path:url(#SVGID_00000063601876358415892230000004315600953500440240_);fill:#FFFFFF;" d="M182.6,87.7l0.2-0.3
			c0.1,0.1,0.3,0.2,0.4,0.2c0.2,0,0.2-0.1,0.2-0.1c0-0.1-0.1-0.1-0.2-0.2l-0.2-0.1c-0.2-0.1-0.4-0.2-0.4-0.5c0-0.3,0.3-0.5,0.6-0.5
			c0.2,0,0.4,0.1,0.6,0.2l-0.2,0.3c-0.1-0.1-0.2-0.1-0.4-0.1c-0.1,0-0.2,0.1-0.2,0.1c0,0.1,0.1,0.1,0.3,0.2l0.2,0.1
			c0.2,0.1,0.3,0.2,0.3,0.5c0,0.3-0.2,0.5-0.7,0.5C183,87.9,182.7,87.8,182.6,87.7"/>
		
			<rect x="184.2" y="86.2" style="clip-path:url(#SVGID_00000063601876358415892230000004315600953500440240_);fill:#FFFFFF;" width="0.4" height="1.7"/>
		<polygon style="clip-path:url(#SVGID_00000063601876358415892230000004315600953500440240_);fill:#FFFFFF;" points="185.3,86.5 
			184.9,86.5 184.9,86.2 186.2,86.2 186.2,86.5 185.8,86.5 185.8,87.9 185.3,87.9 		"/>
		<path style="clip-path:url(#SVGID_00000063601876358415892230000004315600953500440240_);fill:#FFFFFF;" d="M186.8,87.3l-0.5-1.1
			h0.4l0.1,0.4c0,0.1,0.1,0.2,0.1,0.4h0c0-0.1,0.1-0.3,0.1-0.4l0.1-0.4h0.4l-0.5,1.1v0.6h-0.4V87.3z"/>
		
			<line style="clip-path:url(#SVGID_00000063601876358415892230000004315600953500440240_);fill:none;stroke:#FFFFFF;stroke-width:0.1241;stroke-miterlimit:10;" x1="142.4" y1="89.2" x2="188.4" y2="89.2"/>
		
			<rect x="158.3" y="104" style="clip-path:url(#SVGID_00000063601876358415892230000004315600953500440240_);fill:#FFFFFF;" width="6.4" height="5.8"/>
		
			<rect x="150.4" y="104" style="clip-path:url(#SVGID_00000063601876358415892230000004315600953500440240_);fill:#FFFFFF;" width="6.4" height="5.8"/>
		
			<rect x="142.4" y="104" style="clip-path:url(#SVGID_00000063601876358415892230000004315600953500440240_);fill:#FFFFFF;" width="6.4" height="5.8"/>
		
			<rect x="166.2" y="104" style="clip-path:url(#SVGID_00000063601876358415892230000004315600953500440240_);fill:#FFFFFF;" width="6.4" height="5.8"/>
		
			<rect x="174.1" y="104" style="clip-path:url(#SVGID_00000063601876358415892230000004315600953500440240_);fill:#FFFFFF;" width="6.4" height="5.8"/>
		
			<rect x="182" y="104" style="clip-path:url(#SVGID_00000063601876358415892230000004315600953500440240_);fill:#FFFFFF;" width="6.4" height="5.8"/>
		<polygon style="clip-path:url(#SVGID_00000063601876358415892230000004315600953500440240_);fill:#FFFFFF;" points="146.1,111.5 
			146,117.2 148.8,119.3 148.9,111.5 		"/>
		<polygon style="clip-path:url(#SVGID_00000063601876358415892230000004315600953500440240_);fill:#FFFFFF;" points="153.2,111.5 
			153.2,122.5 156,124.5 156.1,111.5 		"/>
		<polygon style="clip-path:url(#SVGID_00000063601876358415892230000004315600953500440240_);fill:#FFFFFF;" points="160.4,111.5 
			160.4,127.7 163.2,129.7 163.2,111.5 		"/>
		<polygon style="clip-path:url(#SVGID_00000063601876358415892230000004315600953500440240_);fill:#FFFFFF;" points="167.6,111.5 
			167.6,129.7 170.4,127.7 170.4,111.5 		"/>
		<polygon style="clip-path:url(#SVGID_00000063601876358415892230000004315600953500440240_);fill:#FFFFFF;" points="174.8,111.5 
			174.7,124.5 177.5,122.4 177.6,111.5 		"/>
		<polygon style="clip-path:url(#SVGID_00000063601876358415892230000004315600953500440240_);fill:#FFFFFF;" points="182,111.5 
			181.9,119.2 184.7,117.2 184.8,111.5 		"/>
		<path style="clip-path:url(#SVGID_00000063601876358415892230000004315600953500440240_);fill:#FFFFFF;" d="M143.1,99.6l1.7-1.6
			c0.9,0.6,2.1,1,3.1,1c1.1,0,1.7-0.3,1.7-0.8c0-0.6-0.7-0.7-1.8-1.1l-1.6-0.5c-1.3-0.4-2.6-1.2-2.6-2.6c0-1.6,1.9-2.9,4.6-2.9
			c1.5,0,3,0.4,4.1,1.3l-1.5,1.4c-0.8-0.5-1.6-0.7-2.6-0.7c-0.9,0-1.5,0.3-1.5,0.8c0,0.5,0.8,0.7,1.9,1.1l1.6,0.5
			c1.6,0.5,2.5,1.3,2.5,2.6c0,1.6-1.8,3-4.8,3C146.2,100.9,144.4,100.5,143.1,99.6"/>
		<polygon style="clip-path:url(#SVGID_00000063601876358415892230000004315600953500440240_);fill:#FFFFFF;" points="154.2,99.4 
			159.7,93.1 154.7,93.1 154.7,91.2 163.4,91.2 163.4,92.6 157.9,98.8 163.5,98.8 163.5,100.8 154.2,100.8 		"/>
		<polygon style="clip-path:url(#SVGID_00000063601876358415892230000004315600953500440240_);fill:#FFFFFF;" points="168.2,93.1 
			164.7,93.1 164.7,91.2 174.7,91.2 174.7,93.1 171.2,93.1 171.2,100.8 168.2,100.8 		"/>
		<path style="clip-path:url(#SVGID_00000063601876358415892230000004315600953500440240_);fill:#FFFFFF;" d="M176.7,96.3v-5h3v5.3
			c0,1.8,0.7,2.4,2.1,2.4c1.4,0,2.2-0.6,2.2-2.4v-5.3h2.9v5c0,3.2-1.7,4.7-5.1,4.7C178.5,100.9,176.7,99.5,176.7,96.3"/>
		
			<line style="clip-path:url(#SVGID_00000063601876358415892230000004315600953500440240_);fill:none;stroke:#FFFFFF;stroke-width:0.1241;stroke-miterlimit:10;" x1="142.4" y1="102.3" x2="188.4" y2="102.3"/>
	</g>
</g>
<text transform="matrix(1 0 0 1 193.8682 171.1016)" class="st16 st17">本</text>
<text transform="matrix(1 0 0 1 193.8682 171.1016)" class="st18 st16 st17">本</text>
<text transform="matrix(1 0 0 1 215.8682 171.1016)" class="st16 st17">科</text>
<text transform="matrix(1 0 0 1 215.8682 171.1016)" class="st18 st16 st17">科</text>
<text transform="matrix(1 0 0 1 237.8682 171.1016)" class="st16 st17">毕</text>
<text transform="matrix(1 0 0 1 237.8682 171.1016)" class="st18 st16 st17">毕</text>
<text transform="matrix(1 0 0 1 259.8682 171.1016)" class="st16 st17">业</text>
<text transform="matrix(1 0 0 1 259.8682 171.1016)" class="st18 st16 st17">业</text>
<text transform="matrix(1 0 0 1 281.8682 171.1016)" class="st16 st17">论</text>
<text transform="matrix(1 0 0 1 281.8682 171.1016)" class="st18 st16 st17">论</text>
<text transform="matrix(1 0 0 1 303.8682 171.1016)" class="st16 st17">文</text>
<text transform="matrix(1 0 0 1 303.8682 171.1016)" class="st18 st16 st17">文</text>
<text transform="matrix(1 0 0 1 325.8682 171.1016)" class="st16 st17">（</text>
<text transform="matrix(1 0 0 1 325.8682 171.1016)" class="st18 st16 st17">（</text>
<text transform="matrix(1 0 0 1 347.8682 171.1016)" class="st16 st17">设</text>
<text transform="matrix(1 0 0 1 347.8682 171.1016)" class="st18 st16 st17">设</text>
<text transform="matrix(1 0 0 1 369.8682 171.1016)" class="st16 st17">计</text>
<text transform="matrix(1 0 0 1 369.8682 171.1016)" class="st18 st16 st17">计</text>
<text transform="matrix(1 0 0 1 391.8682 171.1016)" class="st16 st17">）</text>
<text transform="matrix(1 0 0 1 391.8682 171.1016)" class="st18 st16 st17">）</text>
<text transform="matrix(1 0 0 1 105.4028 275.373)" class="st19 st20">题</text>
<text transform="matrix(1 0 0 1 105.4028 275.373)" class="st21 st19 st20">题</text>
<text transform="matrix(1 0 0 1 121.4028 275.373)" class="st19 st20">目</text>
<text transform="matrix(1 0 0 1 121.4028 275.373)" class="st21 st19 st20">目</text>
<text transform="matrix(1 0 0 1 137.4028 275.373)" class="st19 st20">：</text>
<text transform="matrix(1 0 0 1 137.4028 275.373)" class="st21 st19 st20">：</text>
<line class="st22" x1="156.2" y1="280.3" x2="490.1" y2="280.3"/>
<text transform="matrix(1 0 0 1 156.3921 275.373)" class="st23 st17">深</text>
<text transform="matrix(1 0 0 1 156.3921 275.373)" class="st18 st23 st17">深</text>
<text transform="matrix(1 0 0 1 178.3921 275.373)" class="st23 st17">圳</text>
<text transform="matrix(1 0 0 1 178.3921 275.373)" class="st18 st23 st17">圳</text>
<text transform="matrix(1 0 0 1 200.3921 275.373)" class="st23 st17">技</text>
<text transform="matrix(1 0 0 1 200.3921 275.373)" class="st18 st23 st17">技</text>
<text transform="matrix(1 0 0 1 222.3921 275.373)" class="st23 st17">术</text>
<text transform="matrix(1 0 0 1 222.3921 275.373)" class="st18 st23 st17">术</text>
<text transform="matrix(1 0 0 1 244.3921 275.373)" class="st23 st17">大</text>
<text transform="matrix(1 0 0 1 244.3921 275.373)" class="st18 st23 st17">大</text>
<text transform="matrix(1 0 0 1 266.3921 275.373)" class="st23 st17">学</text>
<text transform="matrix(1 0 0 1 266.3921 275.373)" class="st18 st23 st17">学</text>
<text transform="matrix(1 0 0 1 288.3921 275.373)" class="st23 st17">本</text>
<text transform="matrix(1 0 0 1 288.3921 275.373)" class="st18 st23 st17">本</text>
<text transform="matrix(1 0 0 1 310.3921 275.373)" class="st23 st17">科</text>
<text transform="matrix(1 0 0 1 310.3921 275.373)" class="st18 st23 st17">科</text>
<text transform="matrix(1 0 0 1 332.3921 275.373)" class="st23 st17">学</text>
<text transform="matrix(1 0 0 1 332.3921 275.373)" class="st18 st23 st17">学</text>
<text transform="matrix(1 0 0 1 354.3921 275.373)" class="st23 st17">位</text>
<text transform="matrix(1 0 0 1 354.3921 275.373)" class="st18 st23 st17">位</text>
<text transform="matrix(1 0 0 1 376.3916 275.373)" class="st23 st17">论</text>
<text transform="matrix(1 0 0 1 376.3916 275.373)" class="st18 st23 st17">论</text>
<text transform="matrix(1 0 0 1 398.3916 275.373)" class="st23 st17">文</text>
<text transform="matrix(1 0 0 1 398.3916 275.373)" class="st18 st23 st17">文</text>
<text transform="matrix(1 0 0 1 425.8916 275.373)"><tspan x="0" y="0" class="st24 st17">La</tspan><tspan x="25.7" y="0" class="st24 st17 st25">T</tspan><tspan x="38.4" y="0" class="st24 st17">eX</tspan></text>
<line class="st22" x1="156.2" y1="319.9" x2="442.6" y2="319.9"/>
<text transform="matrix(1 0 0 1 156.3921 314.9727)" class="st23 st17">模</text>
<text transform="matrix(1 0 0 1 156.3921 314.9727)" class="st18 st23 st17">模</text>
<text transform="matrix(1 0 0 1 178.3921 314.9727)" class="st23 st17">板</text>
<text transform="matrix(1 0 0 1 178.3921 314.9727)" class="st18 st23 st17">板</text>
<text transform="matrix(1 0 0 1 200.3921 314.9727)" class="st23 st17">标</text>
<text transform="matrix(1 0 0 1 200.3921 314.9727)" class="st18 st23 st17">标</text>
<text transform="matrix(1 0 0 1 222.3921 314.9727)" class="st23 st17">题</text>
<text transform="matrix(1 0 0 1 222.3921 314.9727)" class="st18 st23 st17">题</text>
<text transform="matrix(1 0 0 1 244.3921 314.9727)" class="st23 st17">可</text>
<text transform="matrix(1 0 0 1 244.3921 314.9727)" class="st18 st23 st17">可</text>
<text transform="matrix(1 0 0 1 266.3921 314.9727)" class="st23 st17">能</text>
<text transform="matrix(1 0 0 1 266.3921 314.9727)" class="st18 st23 st17">能</text>
<text transform="matrix(1 0 0 1 288.3921 314.9727)" class="st23 st17">很</text>
<text transform="matrix(1 0 0 1 288.3921 314.9727)" class="st18 st23 st17">很</text>
<text transform="matrix(1 0 0 1 310.3921 314.9727)" class="st23 st17">长</text>
<text transform="matrix(1 0 0 1 310.3921 314.9727)" class="st18 st23 st17">长</text>
<text transform="matrix(1 0 0 1 332.3921 314.9727)" class="st23 st17">则</text>
<text transform="matrix(1 0 0 1 332.3921 314.9727)" class="st18 st23 st17">则</text>
<text transform="matrix(1 0 0 1 354.3921 314.9727)" class="st23 st17">两</text>
<text transform="matrix(1 0 0 1 354.3921 314.9727)" class="st18 st23 st17">两</text>
<text transform="matrix(1 0 0 1 376.3916 314.9727)" class="st23 st17">行</text>
<text transform="matrix(1 0 0 1 376.3916 314.9727)" class="st18 st23 st17">行</text>
<text transform="matrix(1 0 0 1 398.3916 314.9727)" class="st23 st17">呈</text>
<text transform="matrix(1 0 0 1 398.3916 314.9727)" class="st18 st23 st17">呈</text>
<text transform="matrix(1 0 0 1 420.3916 314.9727)" class="st23 st17">现</text>
<text transform="matrix(1 0 0 1 420.3916 314.9727)" class="st18 st23 st17">现</text>
<text transform="matrix(1 0 0 1 137.6602 460.1035)"><tspan x="0" y="0" class="st19 st20 st26">姓</tspan><tspan x="48" y="0" class="st19 st20">名：</tspan></text>
<line class="st22" x1="229.4" y1="463.8" x2="317.7" y2="463.8"/>
<line class="st22" x1="317.3" y1="463.8" x2="365.7" y2="463.8"/>
<text transform="matrix(1 0 0 1 317.4951 460.1035)" class="st23 st20">郭</text>
<text transform="matrix(1 0 0 1 317.4951 460.1035)" class="st21 st23 st20">郭</text>
<text transform="matrix(1 0 0 1 333.4951 460.1035)" class="st23 st20">小</text>
<text transform="matrix(1 0 0 1 333.4951 460.1035)" class="st21 st23 st20">小</text>
<text transform="matrix(1 0 0 1 349.4951 460.1035)" class="st23 st20">侠</text>
<text transform="matrix(1 0 0 1 349.4951 460.1035)" class="st21 st23 st20">侠</text>
<line class="st22" x1="365.3" y1="463.8" x2="453.6" y2="463.8"/>
<text transform="matrix(1 0 0 1 137.6602 499.8477)"><tspan x="0" y="0" class="st19 st20 st26">学</tspan><tspan x="48" y="0" class="st19 st20">院：</tspan></text>
<line class="st22" x1="229.4" y1="503.5" x2="269.7" y2="503.5"/>
<line class="st22" x1="269.3" y1="503.5" x2="413.7" y2="503.5"/>
<text transform="matrix(1 0 0 1 269.4951 499.8477)" class="st23 st20">大</text>
<text transform="matrix(1 0 0 1 269.4951 499.8477)" class="st21 st23 st20">大</text>
<text transform="matrix(1 0 0 1 285.4951 499.8477)" class="st23 st20">数</text>
<text transform="matrix(1 0 0 1 285.4951 499.8477)" class="st21 st23 st20">数</text>
<text transform="matrix(1 0 0 1 301.4951 499.8477)" class="st23 st20">据</text>
<text transform="matrix(1 0 0 1 301.4951 499.8477)" class="st21 st23 st20">据</text>
<text transform="matrix(1 0 0 1 317.4951 499.8477)" class="st23 st20">与</text>
<text transform="matrix(1 0 0 1 317.4951 499.8477)" class="st21 st23 st20">与</text>
<text transform="matrix(1 0 0 1 333.4951 499.8477)" class="st23 st20">互</text>
<text transform="matrix(1 0 0 1 333.4951 499.8477)" class="st21 st23 st20">互</text>
<text transform="matrix(1 0 0 1 349.4951 499.8477)" class="st23 st20">联</text>
<text transform="matrix(1 0 0 1 349.4951 499.8477)" class="st21 st23 st20">联</text>
<text transform="matrix(1 0 0 1 365.4951 499.8477)" class="st23 st20">网</text>
<text transform="matrix(1 0 0 1 365.4951 499.8477)" class="st21 st23 st20">网</text>
<text transform="matrix(1 0 0 1 381.4951 499.8477)" class="st23 st20">学</text>
<text transform="matrix(1 0 0 1 381.4951 499.8477)" class="st21 st23 st20">学</text>
<text transform="matrix(1 0 0 1 397.4951 499.8477)" class="st23 st20">院</text>
<text transform="matrix(1 0 0 1 397.4951 499.8477)" class="st21 st23 st20">院</text>
<line class="st22" x1="413.3" y1="503.5" x2="453.6" y2="503.5"/>
<text transform="matrix(1 0 0 1 137.6602 539.5918)"><tspan x="0" y="0" class="st19 st20 st26">专</tspan><tspan x="48" y="0" class="st19 st20">业：</tspan></text>
<line class="st22" x1="229.4" y1="543.2" x2="301.7" y2="543.2"/>
<line class="st22" x1="301.3" y1="543.2" x2="381.7" y2="543.2"/>
<text transform="matrix(1 0 0 1 301.4951 539.5918)" class="st23 st20">物</text>
<text transform="matrix(1 0 0 1 301.4951 539.5918)" class="st21 st23 st20">物</text>
<text transform="matrix(1 0 0 1 317.4951 539.5918)" class="st23 st20">联</text>
<text transform="matrix(1 0 0 1 317.4951 539.5918)" class="st21 st23 st20">联</text>
<text transform="matrix(1 0 0 1 333.4951 539.5918)" class="st23 st20">网</text>
<text transform="matrix(1 0 0 1 333.4951 539.5918)" class="st21 st23 st20">网</text>
<text transform="matrix(1 0 0 1 349.4951 539.5918)" class="st23 st20">工</text>
<text transform="matrix(1 0 0 1 349.4951 539.5918)" class="st21 st23 st20">工</text>
<text transform="matrix(1 0 0 1 365.4951 539.5918)" class="st23 st20">程</text>
<text transform="matrix(1 0 0 1 365.4951 539.5918)" class="st21 st23 st20">程</text>
<line class="st22" x1="381.3" y1="543.2" x2="453.6" y2="543.2"/>
<text transform="matrix(1 0 0 1 137.6602 579.3359)"><tspan x="0" y="0" class="st19 st20 st26">学</tspan><tspan x="48" y="0" class="st19 st20">号：</tspan></text>
<line class="st22" x1="229.4" y1="583" x2="305.7" y2="583"/>
<line class="st22" x1="305.3" y1="583" x2="377.7" y2="583"/>
<text transform="matrix(1 0 0 1 305.4951 579.3359)" class="st24 st20">123456789</text>
<line class="st22" x1="377.3" y1="583" x2="453.6" y2="583"/>
<text transform="matrix(1 0 0 1 137.6602 619.0801)" class="st19 st20">指导教师：</text>
<line class="st22" x1="229.4" y1="622.7" x2="317.7" y2="622.7"/>
<line class="st22" x1="317.3" y1="622.7" x2="365.7" y2="622.7"/>
<text transform="matrix(1 0 0 1 317.4951 619.0801)" class="st23 st20">郭</text>
<text transform="matrix(1 0 0 1 317.4951 619.0801)" class="st21 st23 st20">郭</text>
<text transform="matrix(1 0 0 1 333.4951 619.0801)" class="st23 st20">大</text>
<text transform="matrix(1 0 0 1 333.4951 619.0801)" class="st21 st23 st20">大</text>
<text transform="matrix(1 0 0 1 349.4951 619.0801)" class="st23 st20">侠</text>
<text transform="matrix(1 0 0 1 349.4951 619.0801)" class="st21 st23 st20">侠</text>
<line class="st22" x1="365.3" y1="622.7" x2="453.6" y2="622.7"/>
<text transform="matrix(1 0 0 1 137.6602 658.8242)"><tspan x="0" y="0" class="st19 st20 st26">职</tspan><tspan x="48" y="0" class="st19 st20">称：</tspan></text>
<line class="st22" x1="229.4" y1="662.5" x2="309.7" y2="662.5"/>
<line class="st22" x1="309.3" y1="662.5" x2="373.7" y2="662.5"/>
<text transform="matrix(1 0 0 1 309.4951 658.8242)" class="st23 st20">助</text>
<text transform="matrix(1 0 0 1 309.4951 658.8242)" class="st21 st23 st20">助</text>
<text transform="matrix(1 0 0 1 325.4951 658.8242)" class="st23 st20">理</text>
<text transform="matrix(1 0 0 1 325.4951 658.8242)" class="st21 st23 st20">理</text>
<text transform="matrix(1 0 0 1 341.4951 658.8242)" class="st23 st20">教</text>
<text transform="matrix(1 0 0 1 341.4951 658.8242)" class="st21 st23 st20">教</text>
<text transform="matrix(1 0 0 1 357.4951 658.8242)" class="st23 st20">授</text>
<text transform="matrix(1 0 0 1 357.4951 658.8242)" class="st21 st23 st20">授</text>
<line class="st22" x1="373.3" y1="662.5" x2="453.6" y2="662.5"/>
<text transform="matrix(1 0 0 1 137.6602 698.5693)" class="st19 st20">提交日期：</text>
<line class="st22" x1="229.4" y1="702.2" x2="283.7" y2="702.2"/>
<line class="st22" x1="283.3" y1="702.2" x2="399.7" y2="702.2"/>
<text transform="matrix(1 0 0 1 283.4951 698.5693)" class="st24 st20">2023</text>
<text transform="matrix(1 0 0 1 319.4951 698.5693)" class="st23 st20">年</text>
<text transform="matrix(1 0 0 1 319.4951 698.5693)" class="st21 st23 st20">年</text>
<text transform="matrix(1 0 0 1 339.4951 698.5693)" class="st24 st20">5</text>
<text transform="matrix(1 0 0 1 351.4951 698.5693)" class="st23 st20">月</text>
<text transform="matrix(1 0 0 1 351.4951 698.5693)" class="st21 st23 st20">月</text>
<text transform="matrix(1 0 0 1 371.4951 698.5693)" class="st24 st20">1</text>
<text transform="matrix(1 0 0 1 383.4951 698.5693)" class="st23 st20">日</text>
<text transform="matrix(1 0 0 1 383.4951 698.5693)" class="st21 st23 st20">日</text>
<line class="st22" x1="399.3" y1="702.2" x2="453.6" y2="702.2"/>
</svg>
