<?xml version="1.0" encoding="UTF-8"?>
<svg id="_图层_1" data-name="图层 1" xmlns="http://www.w3.org/2000/svg" xmlns:xlink="http://www.w3.org/1999/xlink" viewBox="0 0 405.86 659.86">
  <defs>
    <style>
      .cls-1 {
        stroke-width: .14px;
      }

      .cls-1, .cls-2, .cls-3, .cls-4, .cls-5, .cls-6 {
        stroke-miterlimit: 10;
      }

      .cls-1, .cls-2, .cls-3, .cls-4, .cls-5, .cls-6, .cls-7, .cls-8 {
        fill: none;
      }

      .cls-1, .cls-2, .cls-6, .cls-8 {
        stroke: #fff;
      }

      .cls-9, .cls-10, .cls-11, .cls-12 {
        fill: #fff;
      }

      .cls-2 {
        stroke-width: .14px;
      }

      .cls-10 {
        font-size: 8.27px;
      }

      .cls-10, .cls-11, .cls-12 {
        font-family: SourceHanSansCN-Heavy, 'SourceHanSansCN Heavy-GBpc-EUC-H';
        font-weight: 800;
      }

      .cls-11 {
        font-size: 2.59px;
      }

      .cls-13 {
        letter-spacing: 0em;
      }

      .cls-14 {
        fill: #083683;
      }

      .cls-15 {
        clip-path: url(#clippath-2);
      }

      .cls-12 {
        font-size: 14.5px;
      }

      .cls-16 {
        fill: #003592;
      }

      .cls-17 {
        fill: #023592;
      }

      .cls-18 {
        letter-spacing: 0em;
      }

      .cls-3 {
        stroke-width: .64px;
      }

      .cls-3, .cls-4, .cls-5 {
        stroke: #000;
      }

      .cls-3, .cls-19, .cls-20, .cls-5 {
        font-family: KaiTi, KaiTi;
      }

      .cls-3, .cls-20, .cls-21, .cls-22 {
        font-size: 16px;
      }

      .cls-4 {
        stroke-width: .4px;
      }

      .cls-19, .cls-5, .cls-23 {
        font-size: 22px;
      }

      .cls-24 {
        clip-path: url(#clippath-1);
      }

      .cls-25 {
        clip-path: url(#clippath-4);
      }

      .cls-26 {
        letter-spacing: 0em;
      }

      .cls-21, .cls-27 {
        font-family: SimHei, SimHei;
      }

      .cls-5 {
        stroke-width: .88px;
      }

      .cls-28 {
        letter-spacing: 0em;
      }

      .cls-29 {
        clip-path: url(#clippath);
      }

      .cls-6 {
        stroke-width: .28px;
      }

      .cls-8 {
        stroke-linecap: round;
        stroke-linejoin: round;
        stroke-width: .14px;
      }

      .cls-27 {
        font-size: 26px;
      }

      .cls-30 {
        clip-path: url(#clippath-3);
      }

      .cls-31 {
        letter-spacing: .8em;
      }

      .cls-32 {
        letter-spacing: -.09em;
      }

      .cls-22, .cls-23 {
        font-family: TimesNewRomanPS-BoldMT, 'Times New Roman';
        font-weight: 700;
      }

      .cls-33 {
        letter-spacing: 2em;
      }
    </style>
    <clipPath id="clippath">
      <rect class="cls-7" x="17.36" y="0" width="356.6" height="67.38"/>
    </clipPath>
    <clipPath id="clippath-1">
      <rect class="cls-7" x="17.36" width="356.6" height="67.38"/>
    </clipPath>
    <clipPath id="clippath-2">
      <rect class="cls-7" x="17.36" width="356.6" height="67.38"/>
    </clipPath>
    <clipPath id="clippath-3">
      <rect class="cls-7" x="17.36" width="356.6" height="67.38"/>
    </clipPath>
    <clipPath id="clippath-4">
      <rect class="cls-7" x="17.36" width="356.6" height="67.38"/>
    </clipPath>
  </defs>
  <g class="cls-29">
    <g class="cls-24">
      <path class="cls-16" d="m93.14,23.1c-1.86-1.57-5.68-3.87-8.58-5.29l2.21-3.43c2.84,1.27,6.71,3.43,8.67,4.95l-2.3,3.77Zm3.28,6.37c-2.21,5.05-5,10.83-7.5,15.44l-3.38-3.23c2.21-3.63,5.39-9.8,7.89-15.29l2.99,3.09Zm-1.72-19.8c-1.76-1.42-5.34-3.58-8.04-5l2.35-3.43c2.6,1.18,6.22,3.18,8.09,4.61l-2.4,3.82Zm23.33,18.57c2.7,4.56,7.01,8.87,11.32,11.17-.98.88-2.45,2.45-3.18,3.63-3.97-2.6-7.89-6.96-10.73-11.71v13.97h-4.61v-14.02c-3.04,5.1-7.35,9.41-12.06,11.91-.69-1.08-2.01-2.65-3.04-3.48,5-2.25,9.56-6.57,12.45-11.47h-9.65v-4.12h12.3v-5.1h4.61v5.1h12.4v4.12h-9.8Zm-6.76-17.1c-2.4,4.17-6.37,8.28-9.95,10.88-.69-.83-2.25-2.4-3.23-3.14,3.53-2.16,7.01-5.59,9.02-9.07l4.17,1.32Zm-8.53,1.27h-4.02V3.2h29.01v9.02h-4.17v-5.15h-20.83v5.34Zm15.29-2.99c3.33,2.94,7.4,7.15,9.26,10l-3.48,2.45c-1.72-2.79-5.69-7.15-9.07-10.29l3.28-2.16Z"/>
      <path class="cls-16" d="m150.77,33.24c-5.39,2.25-11.22,4.56-15.78,6.32l-1.47-4.7c1.86-.54,4.17-1.32,6.67-2.25v-15.73h-5.88v-4.46h5.88V1.29h4.56v11.12h5.68v4.46h-5.68v14.11c1.72-.64,3.43-1.23,5.19-1.91l.83,4.17Zm2.45-31.12h4.51v16.61c0,9.31-.59,18.77-5.98,26.37-1.03-.73-2.99-2.01-4.31-2.55,5.24-6.91,5.78-15.29,5.78-23.82V2.12Zm9.51,2.45h4.26v34.75h-4.26V4.57Zm14.02,40.43h-4.66V1.88h4.66v43.13Z"/>
      <path class="cls-16" d="m199.2,25.89c-1.86.54-3.72,1.08-5.59,1.62v12.89c0,2.35-.49,3.58-1.91,4.26-1.42.69-3.63.83-6.96.78-.2-1.08-.78-2.99-1.37-4.12,2.16.05,4.21.05,4.8,0,.73,0,.98-.25.98-.93v-11.61c-1.91.54-3.68,1.03-5.39,1.47l-1.18-4.36c1.86-.44,4.12-.98,6.57-1.57v-9.85h-6.03v-4.21h6.03V.65h4.46v9.56h5.15v4.26h-5.15v8.63l5.05-1.32.54,4.12Zm26.41-5.98c-1.96,6.76-5.24,12.11-9.56,16.22,3.38,2.55,7.4,4.46,12.06,5.69-1.03.88-2.3,2.7-2.94,3.87-4.95-1.42-9.12-3.63-12.69-6.62-3.92,2.94-8.48,5.1-13.38,6.52-.49-1.18-1.62-3.14-2.45-4.12,4.56-1.13,8.82-2.99,12.59-5.54-3.23-3.58-5.73-7.79-7.6-12.69l.64-.2h-1.96v-4.17h10.1v-6.71h-10.98v-4.17h10.98V.65h4.51v7.35h11.32v4.17h-11.32v6.71h6.96l.78-.15,2.94,1.18Zm-19.5,3.14c1.57,3.82,3.72,7.2,6.57,10.09,3.04-2.79,5.49-6.17,7.15-10.09h-13.72Z"/>
      <path class="cls-16" d="m258.69,17.27c4.36,7.06,11.76,14.6,18.23,18.62-1.18.98-2.79,2.79-3.68,4.07-5.64-4.17-11.81-11.07-16.47-18.13v23.82h-5v-22c-4.56,6.96-10.59,13.04-16.91,16.66-.83-1.13-2.35-2.94-3.48-3.92,7.5-3.82,14.95-11.32,19.16-19.11h-17.49v-4.46h18.72V.7h5v12.1h18.28v4.46h-16.37Zm9.02-5.83c-1.76-2.06-5.49-5.15-8.38-7.3l3.38-2.79c2.79,2.01,6.66,4.95,8.53,6.91l-3.53,3.19Z"/>
      <path class="cls-16" d="m306.82,18.93c3.33,10.19,9.51,18.47,18.77,22.35-1.13.98-2.65,2.89-3.38,4.26-9.16-4.26-15.09-12.2-18.92-22.59-2.5,8.87-7.79,17.35-18.92,22.59-.73-1.23-2.21-2.84-3.48-3.82,11.66-5.1,16.42-13.92,18.38-22.79h-17.4v-4.7h18.23c.59-4.9.54-9.61.59-13.53h4.95c-.05,3.97-.1,8.67-.69,13.53h19.75v4.7h-17.89Z"/>
      <path class="cls-16" d="m373.87,32.31h-19.46v8.04c0,2.5-.64,3.77-2.65,4.41-2.01.69-4.9.74-9.16.74-.34-1.23-1.18-3.19-1.91-4.36,3.43.1,6.86.1,7.89.05.93-.05,1.18-.24,1.18-.93v-7.94h-18.97v-4.21h18.97v-3.33c2.45-.93,5.05-2.3,7.25-3.68h-17.84v-3.97h22.98l.93-.24,2.94,2.3c-3.09,2.79-7.35,5.44-11.61,7.4v1.52h19.46v4.21Zm-37.98-13.67h-4.26v-10.05h7.74c-.88-1.76-2.4-3.97-3.87-5.73l3.87-1.76c1.76,2.01,3.72,4.7,4.56,6.52l-1.96.98h9.7c-.69-2.01-2.11-4.8-3.43-6.86l4.02-1.52c1.57,2.25,3.28,5.29,3.87,7.3l-2.7,1.08h7.25c1.72-2.25,3.58-5.34,4.61-7.64l4.66,1.57c-1.37,2.06-2.94,4.26-4.41,6.08h7.6v10.05h-4.51v-6.03h-32.74v6.03Z"/>
      <path class="cls-16" d="m85.75,65.89l1.08-1.11c.85.73,2,1.21,3.13,1.21,1.42,0,2.22-.58,2.22-1.44,0-.93-.8-1.22-1.88-1.64l-1.63-.61c-1.13-.42-2.39-1.19-2.39-2.68,0-1.61,1.63-2.82,3.86-2.82,1.37,0,2.66.5,3.56,1.29l-.97,1.03c-.73-.57-1.55-.92-2.58-.92-1.2,0-1.98.5-1.98,1.32,0,.87.94,1.21,1.9,1.54l1.61.6c1.39.51,2.39,1.26,2.39,2.76,0,1.64-1.56,2.97-4.13,2.97-1.61,0-3.11-.55-4.18-1.5"/>
      <polygon class="cls-16" points="96.28 56.99 98.13 56.99 98.13 61.15 103.16 61.15 103.16 56.99 105.01 56.99 105.01 67.2 103.16 67.2 103.16 62.56 98.13 62.56 98.13 67.2 96.28 67.2 96.28 56.99"/>
      <polygon class="cls-16" points="108.09 56.99 115.03 56.99 115.03 58.34 109.94 58.34 109.94 61.18 114.25 61.18 114.25 62.54 109.94 62.54 109.94 65.84 115.21 65.84 115.21 67.2 108.09 67.2 108.09 56.99"/>
      <path class="cls-16" d="m117.67,56.99h1.9l3.89,5.99,1.23,2.16h.08c-.1-1.05-.24-2.29-.24-3.4v-4.76h1.76v10.21h-1.9l-3.89-6.02-1.23-2.14h-.08c.1,1.05.24,2.23.24,3.34v4.81h-1.76v-10.21Z"/>
      <polygon class="cls-16" points="128.58 66.23 134.47 58.34 129.12 58.34 129.12 56.99 136.75 56.99 136.75 57.95 130.88 65.84 136.82 65.84 136.82 67.2 128.58 67.2 128.58 66.23"/>
      <polygon class="cls-16" points="139.07 56.99 140.92 56.99 140.92 61.15 145.94 61.15 145.94 56.99 147.8 56.99 147.8 67.2 145.94 67.2 145.94 62.56 140.92 62.56 140.92 67.2 139.07 67.2 139.07 56.99"/>
      <polygon class="cls-16" points="150.88 56.99 157.82 56.99 157.82 58.34 152.73 58.34 152.73 61.18 157.04 61.18 157.04 62.54 152.73 62.54 152.73 65.84 157.99 65.84 157.99 67.2 150.88 67.2 150.88 56.99"/>
      <path class="cls-16" d="m160.45,56.99h1.9l3.89,5.99,1.23,2.16h.08c-.1-1.05-.24-2.29-.24-3.4v-4.76h1.76v10.21h-1.9l-3.89-6.02-1.23-2.14h-.08c.1,1.05.24,2.23.24,3.34v4.81h-1.76v-10.21Z"/>
      <polygon class="cls-16" points="178.15 58.34 174.7 58.34 174.7 56.99 183.46 56.99 183.46 58.34 180 58.34 180 67.2 178.15 67.2 178.15 58.34"/>
      <polygon class="cls-16" points="185.49 56.99 192.43 56.99 192.43 58.34 187.34 58.34 187.34 61.18 191.65 61.18 191.65 62.54 187.34 62.54 187.34 65.84 192.61 65.84 192.61 67.2 185.49 67.2 185.49 56.99"/>
      <path class="cls-16" d="m194.43,62.13c0-3.33,2.33-5.33,5.3-5.33,1.47,0,2.62.61,3.34,1.29l-1.01,1.03c-.61-.54-1.34-.92-2.3-.92-2.03,0-3.43,1.47-3.43,3.87s1.31,3.91,3.38,3.91c1.07,0,1.9-.42,2.6-1.08l.99,1.01c-.94.94-2.14,1.47-3.65,1.47-2.95,0-5.22-1.91-5.22-5.26"/>
      <polygon class="cls-16" points="205.38 56.99 207.23 56.99 207.23 61.15 212.25 61.15 212.25 56.99 214.1 56.99 214.1 67.2 212.25 67.2 212.25 62.56 207.23 62.56 207.23 67.2 205.38 67.2 205.38 56.99"/>
      <path class="cls-16" d="m217.18,56.99h1.9l3.89,5.99,1.23,2.16h.08c-.1-1.05-.24-2.29-.24-3.4v-4.76h1.76v10.21h-1.9l-3.89-6.02-1.23-2.14h-.08c.1,1.05.24,2.23.24,3.34v4.81h-1.76v-10.21Z"/>
      <path class="cls-16" d="m228.26,62.06c0-3.29,2.09-5.26,5.11-5.26s5.12,1.97,5.12,5.26-2.11,5.33-5.12,5.33-5.11-2.04-5.11-5.33m8.33,0c0-2.4-1.28-3.86-3.22-3.86s-3.21,1.46-3.21,3.86,1.26,3.93,3.21,3.93,3.22-1.53,3.22-3.93"/>
      <polygon class="cls-16" points="240.93 56.99 242.78 56.99 242.78 65.84 247.75 65.84 247.75 67.2 240.93 67.2 240.93 56.99"/>
      <path class="cls-16" d="m248.65,62.06c0-3.29,2.09-5.26,5.11-5.26s5.12,1.97,5.12,5.26-2.11,5.33-5.12,5.33-5.11-2.04-5.11-5.33m8.33,0c0-2.4-1.28-3.86-3.22-3.86s-3.21,1.46-3.21,3.86,1.26,3.93,3.21,3.93,3.22-1.53,3.22-3.93"/>
      <path class="cls-16" d="m260.69,62.13c0-3.33,2.36-5.33,5.47-5.33,1.66,0,2.78.64,3.5,1.29l-1.01,1.03c-.57-.51-1.29-.92-2.43-.92-2.19,0-3.64,1.47-3.64,3.87s1.29,3.91,3.72,3.91c.72,0,1.44-.18,1.85-.5v-2.4h-2.33v-1.32h4v4.42c-.78.68-2.11,1.19-3.72,1.19-3.14,0-5.43-1.91-5.43-5.26"/>
      <path class="cls-16" d="m274.44,63.33l-3.53-6.34h1.98l1.36,2.71c.37.76.7,1.47,1.1,2.25h.06c.38-.78.77-1.48,1.12-2.25l1.37-2.71h1.93l-3.54,6.34v3.87h-1.85v-3.87Z"/>
      <path class="cls-16" d="m284.87,62.82v-5.83h1.85v5.94c0,2.3,1.05,3.05,2.52,3.05s2.57-.75,2.57-3.05v-5.94h1.79v5.83c0,3.33-1.76,4.56-4.36,4.56s-4.37-1.23-4.37-4.56"/>
      <path class="cls-16" d="m296.63,56.99h1.9l3.89,5.99,1.23,2.16h.08c-.1-1.05-.24-2.29-.24-3.4v-4.76h1.76v10.21h-1.9l-3.89-6.02-1.23-2.14h-.08c.1,1.05.24,2.23.24,3.34v4.81h-1.76v-10.21Z"/>
      <rect class="cls-16" x="308.34" y="56.99" width="1.85" height="10.21"/>
      <path class="cls-16" d="m311.69,56.99h1.96l1.74,5.29c.4,1.17.65,2.16,1.07,3.34h.08c.4-1.18.69-2.18,1.07-3.34l1.74-5.29h1.88l-3.67,10.21h-2.19l-3.69-10.21Z"/>
      <polygon class="cls-16" points="322.75 56.99 329.69 56.99 329.69 58.34 324.6 58.34 324.6 61.18 328.91 61.18 328.91 62.54 324.6 62.54 324.6 65.84 329.87 65.84 329.87 67.2 322.75 67.2 322.75 56.99"/>
      <path class="cls-16" d="m338.74,67.2l-2.66-4.12h-1.9v4.12h-1.85v-10.21h3.85c2.43,0,4.24.75,4.24,2.96,0,1.58-.97,2.53-2.46,2.93l2.87,4.33h-2.09Zm-4.56-5.41h1.77c1.71,0,2.63-.61,2.63-1.85s-.93-1.66-2.63-1.66h-1.77v3.51Z"/>
      <path class="cls-16" d="m341.71,65.89l1.08-1.11c.85.73,2,1.21,3.13,1.21,1.42,0,2.22-.58,2.22-1.44,0-.93-.8-1.22-1.88-1.64l-1.63-.61c-1.13-.42-2.39-1.19-2.39-2.68,0-1.61,1.63-2.82,3.86-2.82,1.37,0,2.66.5,3.56,1.29l-.97,1.03c-.73-.57-1.55-.92-2.58-.92-1.2,0-1.98.5-1.98,1.32,0,.87.94,1.21,1.9,1.54l1.61.6c1.39.51,2.39,1.26,2.39,2.76,0,1.64-1.56,2.97-4.13,2.97-1.61,0-3.11-.55-4.18-1.5"/>
      <rect class="cls-16" x="352.24" y="56.99" width="1.85" height="10.21"/>
      <polygon class="cls-16" points="359.57 58.34 356.12 58.34 356.12 56.99 364.88 56.99 364.88 58.34 361.42 58.34 361.42 67.2 359.57 67.2 359.57 58.34"/>
      <path class="cls-16" d="m368.57,63.33l-3.53-6.34h1.98l1.36,2.71c.37.76.7,1.47,1.1,2.25h.06c.38-.78.77-1.48,1.12-2.25l1.37-2.71h1.93l-3.54,6.34v3.87h-1.85v-3.87Z"/>
      <polygon class="cls-14" points="17.4 0 74.16 0 74.11 46.41 45.78 66.99 17.36 46.41 17.4 0"/>
    </g>
    <text class="cls-10" transform="translate(20.3 11.68) scale(1.03 1)"><tspan x="0" y="0">深圳技术大学</tspan></text>
    <text class="cls-11" transform="translate(20.3 15.19) scale(1.03 1)"><tspan x="0" y="0">SHENZHEN TECHNOLOGY UNIVERSITY</tspan></text>
    <g class="cls-15">
      <line class="cls-2" x1="19.7" y1="16.73" x2="71.86" y2="16.73"/>
      <polygon class="cls-9" points="27.01 51.39 23.85 49.03 23.89 41.95 27.06 41.95 27.01 51.39"/>
      <polygon class="cls-9" points="35.16 57.38 31.96 55.05 32.01 41.95 35.21 41.95 35.16 57.38"/>
      <polygon class="cls-9" points="40.11 61.07 40.16 41.95 43.33 41.95 43.28 63.4 40.11 61.07"/>
      <polygon class="cls-9" points="51.43 61.07 48.26 63.4 48.31 41.95 51.47 41.95 51.43 61.07"/>
      <polygon class="cls-9" points="59.59 41.95 59.55 55.05 56.38 57.38 56.43 41.95 59.59 41.95"/>
      <polygon class="cls-9" points="64.53 51.39 64.57 41.95 67.74 41.95 67.7 49.03 64.53 51.39"/>
      <rect class="cls-9" x="37.69" y="33.6" width="7.27" height="6.58"/>
      <rect class="cls-9" x="28.73" y="33.6" width="7.24" height="6.58"/>
      <rect class="cls-9" x="19.75" y="33.6" width="7.27" height="6.58"/>
      <rect class="cls-9" x="46.67" y="33.6" width="7.27" height="6.58"/>
      <rect class="cls-9" x="55.63" y="33.6" width="7.27" height="6.58"/>
      <rect class="cls-9" x="64.61" y="33.6" width="7.27" height="6.58"/>
      <polygon class="cls-8" points="19.7 2.22 71.86 2.22 71.81 45.51 45.73 65.13 19.66 45.51 19.7 2.22"/>
    </g>
    <text class="cls-12" transform="translate(19.94 30.09) scale(1.33 1)"><tspan class="cls-18" x="0" y="0">S</tspan><tspan class="cls-26" x="7.38" y="0">Z</tspan><tspan class="cls-13" x="14.78" y="0">T</tspan><tspan class="cls-28" x="22.16" y="0">U</tspan></text>
    <g class="cls-30">
      <path class="cls-1" d="m26.71,26.27c.48.36.72.73.72,1.1,0,.72-.21,1.27-.64,1.64-.43.38-1.07.57-1.93.57-.81,0-1.52-.18-2.15-.54-.63-.36-1.12-1.01-1.47-1.95l-.45.11.6,2.78c.2-.11.38-.21.53-.28.15-.08.3-.11.45-.11.25,0,.6.06,1.06.17.4.15.86.23,1.36.23,1.21,0,2.13-.26,2.76-.79.63-.53.94-1.14.94-1.82,0-.64-.26-1.2-.79-1.68-.53-.47-1.4-.89-2.61-1.26-1.46-.49-2.36-.86-2.68-1.11-.33-.25-.49-.58-.49-.99,0-.45.18-.88.53-1.27.35-.4,1.01-.6,1.97-.6.76,0,1.37.14,1.85.43.48.28.94.82,1.4,1.61l.38-.11-.3-2.32c-.1.15-.22.26-.34.31-.13.06-.27.09-.42.09-.2,0-.53-.08-.98-.23-.45-.11-.93-.17-1.44-.17-1.16,0-2.05.26-2.68.77-.63.51-.94,1.05-.94,1.61,0,.72.25,1.25.76,1.59.5.34,1.44.74,2.8,1.19,1.01.34,1.75.69,2.23,1.05Z"/>
      <path class="cls-1" d="m32.01,29.52l6.65-9.35h-6.88l-.91,1.93.45.11c.4-.57.87-.99,1.4-1.27.53-.28,1.12-.42,1.78-.42h2.65l-6.65,9.35h7.26l.83-2.21-.45-.06c-.3.64-.69,1.12-1.17,1.45-.48.32-1.05.48-1.7.48h-3.25Z"/>
      <path class="cls-1" d="m46.41,29.52h-.68c-.2,0-.37-.04-.49-.11-.13-.08-.19-.19-.19-.34v-7.88c0-.34.02-.53.08-.57.05-.04.33-.06.83-.06.71,0,1.17.1,1.4.31.23.21.54.71.95,1.5l.38-.06-.6-2.15h-7.18l-.68,2.15.45.06c.4-.83.74-1.34,1.02-1.53.28-.19.77-.28,1.47-.28.35,0,.55.02.6.06.05.04.08.21.08.51v7.93c0,.15-.05.27-.15.34-.1.08-.28.11-.53.11h-.68v.34h3.93v-.34Z"/>
      <path class="cls-1" d="m52.76,29.13c-.43-.26-.64-.77-.64-1.53v-6.63c0-.15.06-.26.19-.34.13-.08.29-.11.49-.11h.38v-.34h-3.33v.34h.38c.25,0,.43.04.53.11.1.08.15.19.15.34v6.63c0,.83.34,1.44,1.02,1.81.68.38,1.47.57,2.38.57.86,0,1.63-.22,2.31-.65.68-.43,1.02-1.03,1.02-1.78v-6.57c0-.15.06-.26.19-.34.12-.08.29-.11.49-.11h.45v-.34h-2.72v.34h.45c.25,0,.43.04.53.11.1.08.15.19.15.34v6.57c0,.57-.27,1.04-.79,1.42-.53.38-1.17.57-1.93.57-.71,0-1.27-.13-1.7-.4Z"/>
    </g>
    <text class="cls-12" transform="translate(59.42 30.09) scale(1.33 1)"><tspan x="0" y="0"> </tspan></text>
    <g class="cls-25">
      <line class="cls-2" x1="19.7" y1="31.52" x2="71.86" y2="31.52"/>
      <polygon class="cls-17" points="17.4 0 74.16 0 74.11 46.41 45.78 66.99 17.36 46.41 17.4 0"/>
      <polygon class="cls-6" points="19.67 2.22 71.88 2.22 71.84 45.38 45.78 64.31 19.63 45.38 19.67 2.22"/>
      <path class="cls-9" d="m21.97,8.8c-.32-.28-1-.7-1.48-.97l.55-.9c.46.22,1.17.59,1.51.86l-.59,1.01Zm.81.99c-.38.87-.82,1.76-1.26,2.59l-.92-.83c.38-.61.93-1.61,1.38-2.58l.8.83Zm-.57-3.37c-.31-.23-.96-.6-1.41-.83l.61-.93c.43.19,1.11.51,1.44.73l-.64,1.03Zm4.73,3.27c.44.58,1.07,1.12,1.69,1.46-.27.22-.66.64-.86.93-.54-.36-1.04-.89-1.46-1.5v1.77h-1.26v-1.82c-.48.67-1.09,1.23-1.78,1.6-.18-.27-.54-.69-.81-.9.77-.33,1.45-.9,1.94-1.55h-1.38v-1.07h2.02v-.78h1.26v.78h2.02v1.07h-1.39Zm-1.46-3.13c-.43.72-1.14,1.47-1.78,1.92-.19-.22-.6-.63-.84-.83.39-.22.78-.55,1.1-.89h-.94v-1.81h5.32v1.76h-1.06c.4.4.78.82.99,1.15l-.94.63c-.29-.5-.98-1.26-1.55-1.79l.88-.55c.18.16.37.33.56.51v-.69h-3.12v.64c.1-.13.2-.26.28-.4l1.11.36Z"/>
      <path class="cls-9" d="m32.42,4.87h1.22v2.89c0,1.59-.09,3.32-.92,4.66-.29-.21-.85-.52-1.22-.65.28-.41.48-.84.61-1.28-.92.38-1.92.76-2.74,1.08l-.4-1.24c.31-.08.67-.2,1.08-.33v-2.26h-.92v-1.18h.92v-1.83h1.24v1.83h.87v1.18h-.87v1.84l.69-.24.2.9c.2-.79.23-1.64.23-2.49v-2.89Zm1.58.45h1.17v6h-1.17v-6Zm2.85,7.05h-1.27v-7.56h1.27v7.56Z"/>
      <path class="cls-9" d="m40.6,9.19c-.28.07-.56.14-.85.22v1.77c0,.55-.09.84-.42,1.02-.32.18-.77.21-1.38.21-.04-.31-.2-.79-.34-1.09.3,0,.65,0,.76,0,.13,0,.16-.04.16-.16v-1.47l-.72.17-.31-1.15c.3-.05.65-.12,1.03-.2v-1.27h-.92v-1.11h.92v-1.52h1.22v1.52h.78v1.11h-.78v1.01l.71-.16.14,1.1Zm4.84-1.25c-.31,1.17-.82,2.07-1.51,2.78.53.31,1.14.56,1.85.72-.26.24-.61.73-.78,1.03-.8-.22-1.47-.55-2.05-.96-.62.4-1.34.7-2.14.93-.13-.31-.43-.83-.66-1.08.71-.15,1.34-.38,1.88-.69-.44-.5-.8-1.11-1.1-1.79l.39-.11h-.54v-1.08h1.6v-.85h-1.74v-1.1h1.74v-1.12h1.22v1.12h1.84v1.1h-1.84v.85h.84l.2-.04.8.31Zm-3.32.82c.22.45.5.85.85,1.22.37-.36.67-.75.9-1.22h-1.75Z"/>
      <path class="cls-9" d="m51.32,7.79c.71,1.04,1.83,2.11,2.9,2.76-.31.25-.77.74-.99,1.08-.88-.65-1.74-1.61-2.44-2.65v3.48h-1.37v-3.06c-.7.94-1.56,1.75-2.53,2.29-.22-.31-.65-.81-.94-1.07,1.28-.61,2.45-1.7,3.14-2.84h-2.76v-1.18h3.1v-1.99h1.37v1.99h1.51c-.28-.34-.89-.87-1.33-1.23l.92-.73c.43.33,1.08.83,1.39,1.16l-.95.8h1.5v1.18h-2.5Z"/>
      <path class="cls-9" d="m59.51,8c.55,1.5,1.54,2.7,3.1,3.29-.31.26-.72.79-.92,1.14-1.5-.67-2.43-1.77-3.09-3.23-.48,1.27-1.39,2.42-3.06,3.23-.2-.33-.57-.76-.94-1.03,1.86-.82,2.64-2.06,2.99-3.41h-2.82v-1.25h3.02c.06-.73.05-1.46.06-2.14h1.36c0,.69-.02,1.41-.09,2.14h3.27v1.25h-2.89Z"/>
      <path class="cls-9" d="m70.93,10.39h-3.23v.77c0,.59-.14.89-.6,1.06-.45.17-1.02.19-1.72.19-.08-.34-.31-.85-.49-1.16.48.03,1.15.03,1.32.02.17,0,.22-.03.22-.14v-.74h-3.16v-1.1h3.16v-.48c.22-.09.46-.21.67-.33h-2.26v-1.03h3.67l.26-.06.78.6c-.5.45-1.15.89-1.85,1.25v.05h3.23v1.1Zm-6.44-2.59h-1.16v-1.92h1.25c-.14-.25-.34-.53-.52-.75l1.05-.45c.29.31.62.74.76,1.06l-.33.15h1.2c-.12-.31-.31-.68-.5-.97l1.1-.4c.26.35.54.83.65,1.16l-.55.21h.96c.26-.38.51-.85.66-1.22l1.29.36c-.21.3-.43.59-.65.86h1.15v1.92h-1.22v-.87h-5.15v.87Z"/>
      <path class="cls-9" d="m20.41,14.95l.27-.32c.14.12.33.2.48.2.18,0,.26-.06.26-.17,0-.11-.11-.15-.28-.22l-.25-.1c-.21-.08-.4-.25-.4-.53,0-.32.3-.58.72-.58.23,0,.47.09.65.25l-.24.29c-.13-.1-.25-.15-.41-.15-.15,0-.24.06-.24.16s.13.15.3.22l.25.1c.25.1.39.26.39.53,0,.32-.28.6-.76.6-.26,0-.54-.09-.74-.28"/>
      <polygon class="cls-9" points="22.23 13.27 22.71 13.27 22.71 14 23.37 14 23.37 13.27 23.84 13.27 23.84 15.2 23.37 15.2 23.37 14.4 22.71 14.4 22.71 15.2 22.23 15.2 22.23 13.27"/>
      <polygon class="cls-9" points="24.3 13.27 25.55 13.27 25.55 13.65 24.77 13.65 24.77 14.01 25.44 14.01 25.44 14.4 24.77 14.4 24.77 14.81 25.58 14.81 25.58 15.2 24.3 15.2 24.3 13.27"/>
      <path class="cls-9" d="m25.97,13.27h.49l.49.92.19.43h.01c-.03-.2-.06-.48-.06-.71v-.64h.45v1.92h-.49l-.49-.93-.19-.42h-.01c.02.22.06.48.06.71v.64h-.45v-1.92Z"/>
      <polygon class="cls-9" points="27.88 14.92 28.74 13.65 27.96 13.65 27.96 13.27 29.33 13.27 29.33 13.55 28.47 14.81 29.33 14.81 29.33 15.2 27.88 15.2 27.88 14.92"/>
      <polygon class="cls-9" points="29.66 13.27 30.13 13.27 30.13 14 30.79 14 30.79 13.27 31.26 13.27 31.26 15.2 30.79 15.2 30.79 14.4 30.13 14.4 30.13 15.2 29.66 15.2 29.66 13.27"/>
      <polygon class="cls-9" points="31.72 13.27 32.98 13.27 32.98 13.65 32.2 13.65 32.2 14.01 32.86 14.01 32.86 14.4 32.2 14.4 32.2 14.81 33.01 14.81 33.01 15.2 31.72 15.2 31.72 13.27"/>
      <path class="cls-9" d="m33.39,13.27h.49l.49.92.19.43h.01c-.03-.2-.06-.48-.06-.71v-.64h.45v1.92h-.49l-.49-.93-.19-.42h-.01c.02.22.06.48.06.71v.64h-.45v-1.92Z"/>
      <polygon class="cls-9" points="36.42 13.65 35.89 13.65 35.89 13.27 37.44 13.27 37.44 13.65 36.9 13.65 36.9 15.2 36.42 15.2 36.42 13.65"/>
      <polygon class="cls-9" points="37.74 13.27 39 13.27 39 13.65 38.22 13.65 38.22 14.01 38.89 14.01 38.89 14.4 38.22 14.4 38.22 14.81 39.03 14.81 39.03 15.2 37.74 15.2 37.74 13.27"/>
      <path class="cls-9" d="m39.33,14.24c0-.64.44-1.01.95-1.01.26,0,.47.12.6.25l-.25.3c-.1-.09-.2-.15-.34-.15-.26,0-.47.22-.47.6s.18.6.46.6c.16,0,.29-.08.38-.18l.25.29c-.17.19-.39.28-.65.28-.5,0-.93-.34-.93-.99"/>
      <polygon class="cls-9" points="41.2 13.27 41.68 13.27 41.68 14 42.33 14 42.33 13.27 42.8 13.27 42.8 15.2 42.33 15.2 42.33 14.4 41.68 14.4 41.68 15.2 41.2 15.2 41.2 13.27"/>
      <path class="cls-9" d="m43.26,13.27h.49l.49.92.19.43h.01c-.03-.2-.06-.48-.06-.71v-.64h.45v1.92h-.49l-.49-.93-.19-.42h-.01c.02.22.06.48.06.71v.64h-.45v-1.92Z"/>
      <path class="cls-9" d="m45.2,14.22c0-.63.37-.99.91-.99s.91.36.91.99-.37,1.01-.91,1.01-.91-.38-.91-1.01m1.33,0c0-.37-.16-.59-.42-.59s-.42.22-.42.59.16.61.42.61.42-.24.42-.61"/>
      <polygon class="cls-9" points="47.39 13.27 47.86 13.27 47.86 14.81 48.63 14.81 48.63 15.2 47.39 15.2 47.39 13.27"/>
      <path class="cls-9" d="m48.77,14.22c0-.63.37-.99.91-.99s.91.36.91.99-.37,1.01-.91,1.01-.91-.38-.91-1.01m1.33,0c0-.37-.16-.59-.42-.59s-.42.22-.42.59.16.61.42.61.42-.24.42-.61"/>
      <path class="cls-9" d="m50.86,14.24c0-.64.45-1.01.98-1.01.29,0,.5.12.63.25l-.25.3c-.1-.09-.2-.15-.37-.15-.29,0-.5.22-.5.6s.18.6.54.6c.07,0,.15-.02.19-.05v-.31h-.31v-.38h.74v.9c-.14.13-.38.24-.66.24-.55,0-.98-.34-.98-.99"/>
      <path class="cls-9" d="m53.25,14.51l-.6-1.24h.51l.17.43c.05.15.1.28.16.43h.01c.06-.15.11-.28.17-.43l.17-.43h.5l-.6,1.24v.68h-.47v-.68Z"/>
      <path class="cls-9" d="m55.12,14.29v-1.02h.47v1.07c0,.36.11.49.33.49s.34-.13.34-.49v-1.07h.46v1.02c0,.65-.27.94-.8.94s-.81-.29-.81-.94"/>
      <path class="cls-9" d="m57.17,13.27h.49l.49.92.19.43h.01c-.03-.2-.06-.48-.06-.71v-.64h.45v1.92h-.49l-.49-.93-.19-.42h-.01c.02.22.06.48.06.71v.64h-.45v-1.92Z"/>
      <rect class="cls-9" x="59.2" y="13.27" width=".48" height="1.92"/>
      <path class="cls-9" d="m59.88,13.27h.5l.23.88c.06.21.1.41.15.62h.01c.06-.21.1-.41.15-.62l.22-.88h.49l-.6,1.92h-.57l-.6-1.92Z"/>
      <polygon class="cls-9" points="61.85 13.27 63.11 13.27 63.11 13.65 62.32 13.65 62.32 14.01 62.99 14.01 62.99 14.4 62.32 14.4 62.32 14.81 63.13 14.81 63.13 15.2 61.85 15.2 61.85 13.27"/>
      <path class="cls-9" d="m64.6,15.2l-.37-.68h-.23v.68h-.48v-1.92h.73c.42,0,.78.14.78.6,0,.28-.14.46-.34.56l.44.76h-.53Zm-.59-1.04h.21c.23,0,.35-.1.35-.28s-.12-.24-.35-.24h-.21v.52Z"/>
      <path class="cls-9" d="m65.24,14.95l.27-.32c.14.12.33.2.48.2.18,0,.26-.06.26-.17,0-.11-.11-.15-.28-.22l-.25-.1c-.21-.08-.4-.25-.4-.53,0-.32.3-.58.72-.58.23,0,.47.09.65.25l-.24.29c-.13-.1-.25-.15-.41-.15-.15,0-.24.06-.24.16s.13.15.3.22l.25.1c.25.1.39.26.39.53,0,.32-.28.6-.76.6-.26,0-.54-.09-.74-.28"/>
      <rect class="cls-9" x="67.07" y="13.27" width=".48" height="1.92"/>
      <polygon class="cls-9" points="68.38 13.65 67.85 13.65 67.85 13.27 69.4 13.27 69.4 13.65 68.86 13.65 68.86 15.2 68.38 15.2 68.38 13.65"/>
      <path class="cls-9" d="m69.99,14.51l-.6-1.24h.51l.17.43c.05.15.1.28.16.43h.01c.06-.15.11-.28.17-.43l.17-.43h.5l-.6,1.24v.68h-.47v-.68Z"/>
      <line class="cls-2" x1="19.7" y1="16.73" x2="71.86" y2="16.73"/>
      <rect class="cls-9" x="37.69" y="33.42" width="7.27" height="6.58"/>
      <rect class="cls-9" x="28.73" y="33.42" width="7.24" height="6.58"/>
      <rect class="cls-9" x="19.75" y="33.42" width="7.27" height="6.58"/>
      <rect class="cls-9" x="46.67" y="33.42" width="7.27" height="6.58"/>
      <rect class="cls-9" x="55.63" y="33.42" width="7.27" height="6.58"/>
      <rect class="cls-9" x="64.61" y="33.42" width="7.27" height="6.58"/>
      <polygon class="cls-9" points="23.89 41.95 23.85 48.46 27.01 50.76 27.06 41.95 23.89 41.95"/>
      <polygon class="cls-9" points="32.01 41.95 31.96 54.37 35.16 56.7 35.21 41.95 32.01 41.95"/>
      <polygon class="cls-9" points="40.16 41.95 40.11 60.31 43.28 62.62 43.33 41.95 40.16 41.95"/>
      <polygon class="cls-9" points="48.31 41.95 48.26 62.57 51.43 60.26 51.47 41.95 48.31 41.95"/>
      <polygon class="cls-9" points="56.43 41.95 56.38 56.65 59.55 54.34 59.59 41.95 56.43 41.95"/>
      <polygon class="cls-9" points="64.57 41.95 64.53 50.71 67.7 48.4 67.74 41.95 64.57 41.95"/>
      <path class="cls-9" d="m20.5,28.42l1.95-1.78c1.03.65,2.36,1.1,3.5,1.1,1.28,0,1.88-.36,1.88-.94,0-.62-.79-.83-2.03-1.22l-1.84-.58c-1.51-.45-2.92-1.39-2.92-2.96,0-1.81,2.17-3.26,5.22-3.26,1.66,0,3.43.48,4.68,1.42l-1.72,1.62c-.95-.54-1.84-.83-2.96-.83-1.06,0-1.72.32-1.72.9s.91.83,2.19,1.2l1.8.54c1.78.54,2.84,1.44,2.84,2.96,0,1.8-2.01,3.38-5.5,3.38-1.88,0-3.89-.52-5.38-1.55"/>
      <polygon class="cls-9" points="33.06 28.2 39.27 21.12 33.66 21.12 33.66 18.98 43.53 18.98 43.53 20.53 37.32 27.59 43.59 27.59 43.59 29.77 33.06 29.77 33.06 28.2"/>
      <polygon class="cls-9" points="48.93 21.12 45.04 21.12 45.04 18.98 56.3 18.98 56.3 21.12 52.39 21.12 52.39 29.77 48.93 29.77 48.93 21.12"/>
      <path class="cls-9" d="m58.64,24.69v-5.72h3.44v5.99c0,2.05.81,2.77,2.4,2.77s2.44-.73,2.44-2.77v-5.99h3.33v5.72c0,3.64-1.94,5.28-5.77,5.28s-5.84-1.64-5.84-5.28"/>
      <line class="cls-2" x1="19.7" y1="31.52" x2="71.86" y2="31.52"/>
    </g>
  </g>
  <text class="cls-27" transform="translate(21.48 140.09)"><tspan class="cls-31" x="0" y="0">本科毕业论</tspan><tspan x="234" y="0">文（设计）</tspan></text>
  <text class="cls-19" transform="translate(.44 248.33)"><tspan x="0" y="0">深</tspan></text>
  <text class="cls-5" transform="translate(.44 248.33)"><tspan x="0" y="0">深</tspan></text>
  <text class="cls-19" transform="translate(22.44 248.33)"><tspan x="0" y="0">圳</tspan></text>
  <text class="cls-5" transform="translate(22.44 248.33)"><tspan x="0" y="0">圳</tspan></text>
  <text class="cls-19" transform="translate(44.44 248.33)"><tspan x="0" y="0">技</tspan></text>
  <text class="cls-5" transform="translate(44.44 248.33)"><tspan x="0" y="0">技</tspan></text>
  <text class="cls-19" transform="translate(66.44 248.33)"><tspan x="0" y="0">术</tspan></text>
  <text class="cls-5" transform="translate(66.44 248.33)"><tspan x="0" y="0">术</tspan></text>
  <text class="cls-19" transform="translate(88.44 248.33)"><tspan x="0" y="0">大</tspan></text>
  <text class="cls-5" transform="translate(88.44 248.33)"><tspan x="0" y="0">大</tspan></text>
  <text class="cls-19" transform="translate(110.44 248.33)"><tspan x="0" y="0">学</tspan></text>
  <text class="cls-5" transform="translate(110.44 248.33)"><tspan x="0" y="0">学</tspan></text>
  <text class="cls-19" transform="translate(132.44 248.33)"><tspan x="0" y="0">本</tspan></text>
  <text class="cls-5" transform="translate(132.44 248.33)"><tspan x="0" y="0">本</tspan></text>
  <text class="cls-19" transform="translate(154.44 248.33)"><tspan x="0" y="0">科</tspan></text>
  <text class="cls-5" transform="translate(154.44 248.33)"><tspan x="0" y="0">科</tspan></text>
  <text class="cls-19" transform="translate(176.44 248.33)"><tspan x="0" y="0">学</tspan></text>
  <text class="cls-5" transform="translate(176.44 248.33)"><tspan x="0" y="0">学</tspan></text>
  <text class="cls-19" transform="translate(198.44 248.33)"><tspan x="0" y="0">位</tspan></text>
  <text class="cls-5" transform="translate(198.44 248.33)"><tspan x="0" y="0">位</tspan></text>
  <text class="cls-19" transform="translate(220.44 248.33)"><tspan x="0" y="0">论</tspan></text>
  <text class="cls-5" transform="translate(220.44 248.33)"><tspan x="0" y="0">论</tspan></text>
  <text class="cls-19" transform="translate(242.44 248.33)"><tspan x="0" y="0">文</tspan></text>
  <text class="cls-5" transform="translate(242.44 248.33)"><tspan x="0" y="0">文</tspan></text>
  <text class="cls-23" transform="translate(269.94 248.33)"><tspan x="0" y="0">La</tspan><tspan class="cls-32" x="25.67" y="0">T</tspan><tspan x="38.37" y="0">eX</tspan></text>
  <text class="cls-19" transform="translate(339.42 248.33)"><tspan x="0" y="0">模</tspan></text>
  <text class="cls-5" transform="translate(339.42 248.33)"><tspan x="0" y="0">模</tspan></text>
  <text class="cls-19" transform="translate(361.42 248.33)"><tspan x="0" y="0">板</tspan></text>
  <text class="cls-5" transform="translate(361.42 248.33)"><tspan x="0" y="0">板</tspan></text>
  <text class="cls-19" transform="translate(383.42 248.33)"><tspan x="0" y="0">标</tspan></text>
  <text class="cls-5" transform="translate(383.42 248.33)"><tspan x="0" y="0">标</tspan></text>
  <text class="cls-19" transform="translate(85.66 287.93)"><tspan x="0" y="0">题</tspan></text>
  <text class="cls-5" transform="translate(85.66 287.93)"><tspan x="0" y="0">题</tspan></text>
  <text class="cls-19" transform="translate(107.66 287.93)"><tspan x="0" y="0">可</tspan></text>
  <text class="cls-5" transform="translate(107.66 287.93)"><tspan x="0" y="0">可</tspan></text>
  <text class="cls-19" transform="translate(129.66 287.93)"><tspan x="0" y="0">能</tspan></text>
  <text class="cls-5" transform="translate(129.66 287.93)"><tspan x="0" y="0">能</tspan></text>
  <text class="cls-19" transform="translate(151.66 287.93)"><tspan x="0" y="0">很</tspan></text>
  <text class="cls-5" transform="translate(151.66 287.93)"><tspan x="0" y="0">很</tspan></text>
  <text class="cls-19" transform="translate(173.66 287.93)"><tspan x="0" y="0">长</tspan></text>
  <text class="cls-5" transform="translate(173.66 287.93)"><tspan x="0" y="0">长</tspan></text>
  <text class="cls-19" transform="translate(195.66 287.93)"><tspan x="0" y="0">则</tspan></text>
  <text class="cls-5" transform="translate(195.66 287.93)"><tspan x="0" y="0">则</tspan></text>
  <text class="cls-19" transform="translate(217.66 287.93)"><tspan x="0" y="0">两</tspan></text>
  <text class="cls-5" transform="translate(217.66 287.93)"><tspan x="0" y="0">两</tspan></text>
  <text class="cls-19" transform="translate(239.66 287.93)"><tspan x="0" y="0">行</tspan></text>
  <text class="cls-5" transform="translate(239.66 287.93)"><tspan x="0" y="0">行</tspan></text>
  <text class="cls-19" transform="translate(261.66 287.93)"><tspan x="0" y="0">呈</tspan></text>
  <text class="cls-5" transform="translate(261.66 287.93)"><tspan x="0" y="0">呈</tspan></text>
  <text class="cls-19" transform="translate(283.66 287.93)"><tspan x="0" y="0">现</tspan></text>
  <text class="cls-5" transform="translate(283.66 287.93)"><tspan x="0" y="0">现</tspan></text>
  <text class="cls-21" transform="translate(35.68 416.15)"><tspan class="cls-33" x="0" y="0">姓</tspan><tspan x="48" y="0">名：</tspan></text>
  <line class="cls-4" x1="127.4" y1="419.8" x2="215.76" y2="419.8"/>
  <line class="cls-4" x1="215.28" y1="419.8" x2="263.76" y2="419.8"/>
  <text class="cls-20" transform="translate(215.52 416.15)"><tspan x="0" y="0">郭</tspan></text>
  <text class="cls-3" transform="translate(215.52 416.15)"><tspan x="0" y="0">郭</tspan></text>
  <text class="cls-20" transform="translate(231.52 416.15)"><tspan x="0" y="0">大</tspan></text>
  <text class="cls-3" transform="translate(231.52 416.15)"><tspan x="0" y="0">大</tspan></text>
  <text class="cls-20" transform="translate(247.52 416.15)"><tspan x="0" y="0">侠</tspan></text>
  <text class="cls-3" transform="translate(247.52 416.15)"><tspan x="0" y="0">侠</tspan></text>
  <line class="cls-4" x1="263.28" y1="419.8" x2="351.64" y2="419.8"/>
  <text class="cls-21" transform="translate(35.68 455.9)"><tspan class="cls-33" x="0" y="0">学</tspan><tspan x="48" y="0">院：</tspan></text>
  <line class="cls-4" x1="127.4" y1="459.55" x2="167.76" y2="459.55"/>
  <line class="cls-4" x1="167.28" y1="459.55" x2="311.76" y2="459.55"/>
  <text class="cls-20" transform="translate(167.52 455.9)"><tspan x="0" y="0">大</tspan></text>
  <text class="cls-3" transform="translate(167.52 455.9)"><tspan x="0" y="0">大</tspan></text>
  <text class="cls-20" transform="translate(183.52 455.9)"><tspan x="0" y="0">数</tspan></text>
  <text class="cls-3" transform="translate(183.52 455.9)"><tspan x="0" y="0">数</tspan></text>
  <text class="cls-20" transform="translate(199.52 455.9)"><tspan x="0" y="0">据</tspan></text>
  <text class="cls-3" transform="translate(199.52 455.9)"><tspan x="0" y="0">据</tspan></text>
  <text class="cls-20" transform="translate(215.52 455.9)"><tspan x="0" y="0">与</tspan></text>
  <text class="cls-3" transform="translate(215.52 455.9)"><tspan x="0" y="0">与</tspan></text>
  <text class="cls-20" transform="translate(231.52 455.9)"><tspan x="0" y="0">互</tspan></text>
  <text class="cls-3" transform="translate(231.52 455.9)"><tspan x="0" y="0">互</tspan></text>
  <text class="cls-20" transform="translate(247.52 455.9)"><tspan x="0" y="0">联</tspan></text>
  <text class="cls-3" transform="translate(247.52 455.9)"><tspan x="0" y="0">联</tspan></text>
  <text class="cls-20" transform="translate(263.52 455.9)"><tspan x="0" y="0">网</tspan></text>
  <text class="cls-3" transform="translate(263.52 455.9)"><tspan x="0" y="0">网</tspan></text>
  <text class="cls-20" transform="translate(279.52 455.9)"><tspan x="0" y="0">学</tspan></text>
  <text class="cls-3" transform="translate(279.52 455.9)"><tspan x="0" y="0">学</tspan></text>
  <text class="cls-20" transform="translate(295.52 455.9)"><tspan x="0" y="0">院</tspan></text>
  <text class="cls-3" transform="translate(295.52 455.9)"><tspan x="0" y="0">院</tspan></text>
  <line class="cls-4" x1="311.28" y1="459.55" x2="351.64" y2="459.55"/>
  <text class="cls-21" transform="translate(35.68 495.64)"><tspan class="cls-33" x="0" y="0">专</tspan><tspan x="48" y="0">业：</tspan></text>
  <line class="cls-4" x1="127.4" y1="499.29" x2="199.76" y2="499.29"/>
  <line class="cls-4" x1="199.28" y1="499.29" x2="279.76" y2="499.29"/>
  <text class="cls-20" transform="translate(199.52 495.64)"><tspan x="0" y="0">物</tspan></text>
  <text class="cls-3" transform="translate(199.52 495.64)"><tspan x="0" y="0">物</tspan></text>
  <text class="cls-20" transform="translate(215.52 495.64)"><tspan x="0" y="0">联</tspan></text>
  <text class="cls-3" transform="translate(215.52 495.64)"><tspan x="0" y="0">联</tspan></text>
  <text class="cls-20" transform="translate(231.52 495.64)"><tspan x="0" y="0">网</tspan></text>
  <text class="cls-3" transform="translate(231.52 495.64)"><tspan x="0" y="0">网</tspan></text>
  <text class="cls-20" transform="translate(247.52 495.64)"><tspan x="0" y="0">工</tspan></text>
  <text class="cls-3" transform="translate(247.52 495.64)"><tspan x="0" y="0">工</tspan></text>
  <text class="cls-20" transform="translate(263.52 495.64)"><tspan x="0" y="0">程</tspan></text>
  <text class="cls-3" transform="translate(263.52 495.64)"><tspan x="0" y="0">程</tspan></text>
  <line class="cls-4" x1="279.28" y1="499.29" x2="351.64" y2="499.29"/>
  <text class="cls-21" transform="translate(35.68 535.38)"><tspan class="cls-33" x="0" y="0">学</tspan><tspan x="48" y="0">号：</tspan></text>
  <line class="cls-4" x1="127.4" y1="539.04" x2="203.76" y2="539.04"/>
  <line class="cls-4" x1="203.28" y1="539.04" x2="275.76" y2="539.04"/>
  <text class="cls-22" transform="translate(203.52 535.38)"><tspan x="0" y="0">123456789</tspan></text>
  <line class="cls-4" x1="275.28" y1="539.04" x2="351.64" y2="539.04"/>
  <text class="cls-21" transform="translate(35.68 575.13)"><tspan x="0" y="0">指导教师：</tspan></text>
  <line class="cls-4" x1="127.4" y1="578.78" x2="215.76" y2="578.78"/>
  <line class="cls-4" x1="215.28" y1="578.78" x2="263.76" y2="578.78"/>
  <text class="cls-20" transform="translate(215.52 575.13)"><tspan x="0" y="0">我</tspan></text>
  <text class="cls-3" transform="translate(215.52 575.13)"><tspan x="0" y="0">我</tspan></text>
  <text class="cls-20" transform="translate(231.52 575.13)"><tspan x="0" y="0">自</tspan></text>
  <text class="cls-3" transform="translate(231.52 575.13)"><tspan x="0" y="0">自</tspan></text>
  <text class="cls-20" transform="translate(247.52 575.13)"><tspan x="0" y="0">己</tspan></text>
  <text class="cls-3" transform="translate(247.52 575.13)"><tspan x="0" y="0">己</tspan></text>
  <line class="cls-4" x1="263.28" y1="578.78" x2="351.64" y2="578.78"/>
  <text class="cls-21" transform="translate(35.68 614.87)"><tspan class="cls-33" x="0" y="0">职</tspan><tspan x="48" y="0">称：</tspan></text>
  <line class="cls-4" x1="127.4" y1="618.53" x2="207.76" y2="618.53"/>
  <line class="cls-4" x1="207.28" y1="618.53" x2="271.76" y2="618.53"/>
  <text class="cls-20" transform="translate(207.52 614.87)"><tspan x="0" y="0">助</tspan></text>
  <text class="cls-3" transform="translate(207.52 614.87)"><tspan x="0" y="0">助</tspan></text>
  <text class="cls-20" transform="translate(223.52 614.87)"><tspan x="0" y="0">理</tspan></text>
  <text class="cls-3" transform="translate(223.52 614.87)"><tspan x="0" y="0">理</tspan></text>
  <text class="cls-20" transform="translate(239.52 614.87)"><tspan x="0" y="0">教</tspan></text>
  <text class="cls-3" transform="translate(239.52 614.87)"><tspan x="0" y="0">教</tspan></text>
  <text class="cls-20" transform="translate(255.52 614.87)"><tspan x="0" y="0">授</tspan></text>
  <text class="cls-3" transform="translate(255.52 614.87)"><tspan x="0" y="0">授</tspan></text>
  <line class="cls-4" x1="271.28" y1="618.53" x2="351.64" y2="618.53"/>
  <text class="cls-21" transform="translate(35.68 654.62)"><tspan x="0" y="0">提交日期：</tspan></text>
  <line class="cls-4" x1="127.4" y1="658.27" x2="181.76" y2="658.27"/>
  <line class="cls-4" x1="181.28" y1="658.27" x2="297.76" y2="658.27"/>
  <text class="cls-22" transform="translate(181.52 654.62)"><tspan x="0" y="0">2023</tspan></text>
  <text class="cls-20" transform="translate(217.52 654.62)"><tspan x="0" y="0">年</tspan></text>
  <text class="cls-3" transform="translate(217.52 654.62)"><tspan x="0" y="0">年</tspan></text>
  <text class="cls-22" transform="translate(237.52 654.62)"><tspan x="0" y="0">5</tspan></text>
  <text class="cls-20" transform="translate(249.52 654.62)"><tspan x="0" y="0">月</tspan></text>
  <text class="cls-3" transform="translate(249.52 654.62)"><tspan x="0" y="0">月</tspan></text>
  <text class="cls-22" transform="translate(269.52 654.62)"><tspan x="0" y="0">1</tspan></text>
  <text class="cls-20" transform="translate(281.52 654.62)"><tspan x="0" y="0">日</tspan></text>
  <text class="cls-3" transform="translate(281.52 654.62)"><tspan x="0" y="0">日</tspan></text>
  <line class="cls-4" x1="297.28" y1="658.27" x2="351.64" y2="658.27"/>
</svg>