<?xml version="1.0" encoding="utf-8"?>
<!-- Generator: Adobe Illustrator 27.5.0, SVG Export Plug-In . SVG Version: 6.00 Build 0)  -->
<svg version="1.1" id="图层_1" xmlns="http://www.w3.org/2000/svg" xmlns:xlink="http://www.w3.org/1999/xlink" x="0px" y="0px"
	 viewBox="0 0 595.3 841.9" style="enable-background:new 0 0 595.3 841.9;" xml:space="preserve">
<style type="text/css">
	.st0{clip-path:url(#SVGID_00000028309572932689932090000007870302992506221240_);}
	.st1{clip-path:url(#SVGID_00000080165634345043429080000000026921003059604919_);fill:#003592;}
	.st2{clip-path:url(#SVGID_00000080165634345043429080000000026921003059604919_);fill:#083683;}
	.st3{fill:#FFFFFF;}
	.st4{font-family:'SourceHanSansCN-Heavy';}
	.st5{font-size:8.2744px;}
	.st6{font-size:2.5904px;}
	.st7{clip-path:url(#SVGID_00000031886057950591219440000009863473274243128506_);fill:#FFFFFF;}
	
		.st8{clip-path:url(#SVGID_00000031886057950591219440000009863473274243128506_);fill:none;stroke:#FFFFFF;stroke-width:0.1407;stroke-miterlimit:10;}
	
		.st9{clip-path:url(#SVGID_00000031886057950591219440000009863473274243128506_);fill:none;stroke:#FFFFFF;stroke-width:0.14;stroke-linecap:round;stroke-linejoin:round;stroke-miterlimit:10;}
	.st10{font-size:14.5049px;}
	
		.st11{clip-path:url(#SVGID_00000119812486326622848410000016153939068452790154_);fill:none;stroke:#FFFFFF;stroke-width:0.1427;stroke-miterlimit:10;}
	.st12{clip-path:url(#SVGID_00000031199716071607650550000001376417803704938144_);fill:#FFFFFF;}
	
		.st13{clip-path:url(#SVGID_00000031199716071607650550000001376417803704938144_);fill:none;stroke:#FFFFFF;stroke-width:0.1407;stroke-miterlimit:10;}
	.st14{clip-path:url(#SVGID_00000031199716071607650550000001376417803704938144_);fill:#023592;}
	
		.st15{clip-path:url(#SVGID_00000031199716071607650550000001376417803704938144_);fill:none;stroke:#FFFFFF;stroke-width:0.2794;stroke-miterlimit:10;}
	.st16{font-family:'SimHei';}
	.st17{font-size:26px;}
	.st18{letter-spacing:20;}
	.st19{font-family:'KaiTi';}
	.st20{font-size:22px;}
	.st21{fill:none;stroke:#000000;stroke-width:0.8833;stroke-miterlimit:10;}
	.st22{font-family:'TimesNewRomanPS-BoldMT';}
	.st23{letter-spacing:-1;}
	.st24{font-size:16px;}
	.st25{letter-spacing:32;}
	.st26{fill:none;stroke:#000000;stroke-width:0.3985;stroke-miterlimit:10;}
	.st27{fill:none;stroke:#000000;stroke-width:0.6424;stroke-miterlimit:10;}
</style>
<g>
	<defs>
		<rect id="SVGID_1_" x="119.3" y="74.5" width="356.6" height="67.4"/>
	</defs>
	<clipPath id="SVGID_00000042738489118661511220000016039297612398224039_">
		<use xlink:href="#SVGID_1_"  style="overflow:visible;"/>
	</clipPath>
	<g style="clip-path:url(#SVGID_00000042738489118661511220000016039297612398224039_);">
		<defs>
			<rect id="SVGID_00000077315128932803636760000012596226677271016868_" x="119.3" y="74.5" width="356.6" height="67.4"/>
		</defs>
		<clipPath id="SVGID_00000114062453702614672440000015137986660679921814_">
			<use xlink:href="#SVGID_00000077315128932803636760000012596226677271016868_"  style="overflow:visible;"/>
		</clipPath>
		<path style="clip-path:url(#SVGID_00000114062453702614672440000015137986660679921814_);fill:#003592;" d="M195.1,97.6
			c-1.9-1.6-5.7-3.9-8.6-5.3l2.2-3.4c2.8,1.3,6.7,3.4,8.7,4.9L195.1,97.6z M198.4,104c-2.2,5-5,10.8-7.5,15.4l-3.4-3.2
			c2.2-3.6,5.4-9.8,7.9-15.3L198.4,104z M196.7,84.2c-1.8-1.4-5.3-3.6-8-5l2.4-3.4c2.6,1.2,6.2,3.2,8.1,4.6L196.7,84.2z M220,102.7
			c2.7,4.6,7,8.9,11.3,11.2c-1,0.9-2.5,2.5-3.2,3.6c-4-2.6-7.9-7-10.7-11.7v14h-4.6v-14c-3,5.1-7.4,9.4-12.1,11.9
			c-0.7-1.1-2-2.6-3-3.5c5-2.3,9.6-6.6,12.4-11.5h-9.7v-4.1h12.3v-5.1h4.6v5.1h12.4v4.1H220z M213.2,85.6c-2.4,4.2-6.4,8.3-9.9,10.9
			c-0.7-0.8-2.3-2.4-3.2-3.1c3.5-2.2,7-5.6,9-9.1L213.2,85.6z M204.7,86.9h-4v-9.2h29v9h-4.2v-5.1h-20.8V86.9z M220,83.9
			c3.3,2.9,7.4,7.2,9.3,10l-3.5,2.5c-1.7-2.8-5.7-7.2-9.1-10.3L220,83.9z"/>
		<path style="clip-path:url(#SVGID_00000114062453702614672440000015137986660679921814_);fill:#003592;" d="M252.8,107.7
			c-5.4,2.3-11.2,4.6-15.8,6.3l-1.5-4.7c1.9-0.5,4.2-1.3,6.7-2.3V91.4h-5.9v-4.5h5.9V75.8h4.6v11.1h5.7v4.5h-5.7v14.1
			c1.7-0.6,3.4-1.2,5.2-1.9L252.8,107.7z M255.2,76.6h4.5v16.6c0,9.3-0.6,18.8-6,26.4c-1-0.7-3-2-4.3-2.5c5.2-6.9,5.8-15.3,5.8-23.8
			V76.6z M264.7,79.1h4.3v34.7h-4.3V79.1z M278.7,119.5h-4.7V76.4h4.7V119.5z"/>
		<path style="clip-path:url(#SVGID_00000114062453702614672440000015137986660679921814_);fill:#003592;" d="M301.2,100.4
			c-1.9,0.5-3.7,1.1-5.6,1.6v12.9c0,2.4-0.5,3.6-1.9,4.3c-1.4,0.7-3.6,0.8-7,0.8c-0.2-1.1-0.8-3-1.4-4.1c2.2,0,4.2,0,4.8,0
			c0.7,0,1-0.2,1-0.9v-11.6c-1.9,0.5-3.7,1-5.4,1.5l-1.2-4.4c1.9-0.4,4.1-1,6.6-1.6V89h-6v-4.2h6v-9.6h4.5v9.6h5.1V89h-5.1v8.6
			l5-1.3L301.2,100.4z M327.6,94.4c-2,6.8-5.2,12.1-9.6,16.2c3.4,2.5,7.4,4.5,12.1,5.7c-1,0.9-2.3,2.7-2.9,3.9
			c-5-1.4-9.1-3.6-12.7-6.6c-3.9,2.9-8.5,5.1-13.4,6.5c-0.5-1.2-1.6-3.1-2.5-4.1c4.6-1.1,8.8-3,12.6-5.5c-3.2-3.6-5.7-7.8-7.6-12.7
			l0.6-0.2h-2v-4.2h10.1v-6.7h-11v-4.2h11v-7.4h4.5v7.4h11.3v4.2h-11.3v6.7h7l0.8-0.1L327.6,94.4z M308.1,97.5
			c1.6,3.8,3.7,7.2,6.6,10.1c3-2.8,5.5-6.2,7.2-10.1H308.1z"/>
		<path style="clip-path:url(#SVGID_00000114062453702614672440000015137986660679921814_);fill:#003592;" d="M360.7,91.8
			c4.4,7.1,11.8,14.6,18.2,18.6c-1.2,1-2.8,2.8-3.7,4.1c-5.6-4.2-11.8-11.1-16.5-18.1v23.8h-5v-22c-4.6,7-10.6,13-16.9,16.7
			c-0.8-1.1-2.4-2.9-3.5-3.9c7.5-3.8,14.9-11.3,19.2-19.1H335v-4.5h18.7V75.2h5v12.1H377v4.5H360.7z M369.7,85.9
			c-1.8-2.1-5.5-5.1-8.4-7.3l3.4-2.8c2.8,2,6.7,4.9,8.5,6.9L369.7,85.9z"/>
		<path style="clip-path:url(#SVGID_00000114062453702614672440000015137986660679921814_);fill:#003592;" d="M408.8,93.4
			c3.3,10.2,9.5,18.5,18.8,22.3c-1.1,1-2.6,2.9-3.4,4.3c-9.2-4.3-15.1-12.2-18.9-22.6c-2.5,8.9-7.8,17.3-18.9,22.6
			c-0.7-1.2-2.2-2.8-3.5-3.8c11.7-5.1,16.4-13.9,18.4-22.8h-17.4v-4.7h18.2c0.6-4.9,0.5-9.6,0.6-13.5h4.9c0,4-0.1,8.7-0.7,13.5h19.7
			v4.7H408.8z"/>
		<path style="clip-path:url(#SVGID_00000114062453702614672440000015137986660679921814_);fill:#003592;" d="M475.8,106.8h-19.5v8
			c0,2.5-0.6,3.8-2.6,4.4c-2,0.7-4.9,0.7-9.2,0.7c-0.3-1.2-1.2-3.2-1.9-4.4c3.4,0.1,6.9,0.1,7.9,0c0.9,0,1.2-0.2,1.2-0.9v-7.9h-19
			v-4.2h19v-3.3c2.4-0.9,5-2.3,7.3-3.7h-17.8v-4h23l0.9-0.2l2.9,2.3c-3.1,2.8-7.4,5.4-11.6,7.4v1.5h19.5V106.8z M437.9,93.1h-4.3
			v-10h7.7c-0.9-1.8-2.4-4-3.9-5.7l3.9-1.8c1.8,2,3.7,4.7,4.6,6.5l-2,1h9.7c-0.7-2-2.1-4.8-3.4-6.9l4-1.5c1.6,2.3,3.3,5.3,3.9,7.3
			l-2.7,1.1h7.3c1.7-2.3,3.6-5.3,4.6-7.6l4.7,1.6c-1.4,2.1-2.9,4.3-4.4,6.1h7.6v10h-4.5v-6h-32.7V93.1z"/>
		<path style="clip-path:url(#SVGID_00000114062453702614672440000015137986660679921814_);fill:#003592;" d="M187.7,140.4l1.1-1.1
			c0.8,0.7,2,1.2,3.1,1.2c1.4,0,2.2-0.6,2.2-1.4c0-0.9-0.8-1.2-1.9-1.6l-1.6-0.6c-1.1-0.4-2.4-1.2-2.4-2.7c0-1.6,1.6-2.8,3.9-2.8
			c1.4,0,2.7,0.5,3.6,1.3l-1,1c-0.7-0.6-1.5-0.9-2.6-0.9c-1.2,0-2,0.5-2,1.3c0,0.9,0.9,1.2,1.9,1.5l1.6,0.6c1.4,0.5,2.4,1.3,2.4,2.8
			c0,1.6-1.6,3-4.1,3C190.3,141.9,188.8,141.3,187.7,140.4"/>
		<polygon style="clip-path:url(#SVGID_00000114062453702614672440000015137986660679921814_);fill:#003592;" points="198.3,131.5 
			200.1,131.5 200.1,135.6 205.1,135.6 205.1,131.5 207,131.5 207,141.7 205.1,141.7 205.1,137 200.1,137 200.1,141.7 198.3,141.7 
					"/>
		<polygon style="clip-path:url(#SVGID_00000114062453702614672440000015137986660679921814_);fill:#003592;" points="210.1,131.5 
			217,131.5 217,132.8 211.9,132.8 211.9,135.7 216.2,135.7 216.2,137 211.9,137 211.9,140.3 217.2,140.3 217.2,141.7 210.1,141.7 
					"/>
		<path style="clip-path:url(#SVGID_00000114062453702614672440000015137986660679921814_);fill:#003592;" d="M219.6,131.5h1.9
			l3.9,6l1.2,2.2h0.1c-0.1-1.1-0.2-2.3-0.2-3.4v-4.8h1.8v10.2h-1.9l-3.9-6l-1.2-2.1h-0.1c0.1,1.1,0.2,2.2,0.2,3.3v4.8h-1.8V131.5z"
			/>
		<polygon style="clip-path:url(#SVGID_00000114062453702614672440000015137986660679921814_);fill:#003592;" points="230.6,140.7 
			236.4,132.8 231.1,132.8 231.1,131.5 238.7,131.5 238.7,132.4 232.9,140.3 238.8,140.3 238.8,141.7 230.6,141.7 		"/>
		<polygon style="clip-path:url(#SVGID_00000114062453702614672440000015137986660679921814_);fill:#003592;" points="241,131.5 
			242.9,131.5 242.9,135.6 247.9,135.6 247.9,131.5 249.8,131.5 249.8,141.7 247.9,141.7 247.9,137 242.9,137 242.9,141.7 
			241,141.7 		"/>
		<polygon style="clip-path:url(#SVGID_00000114062453702614672440000015137986660679921814_);fill:#003592;" points="252.9,131.5 
			259.8,131.5 259.8,132.8 254.7,132.8 254.7,135.7 259,135.7 259,137 254.7,137 254.7,140.3 260,140.3 260,141.7 252.9,141.7 		"/>
		<path style="clip-path:url(#SVGID_00000114062453702614672440000015137986660679921814_);fill:#003592;" d="M262.4,131.5h1.9
			l3.9,6l1.2,2.2h0.1c-0.1-1.1-0.2-2.3-0.2-3.4v-4.8h1.8v10.2h-1.9l-3.9-6l-1.2-2.1h-0.1c0.1,1.1,0.2,2.2,0.2,3.3v4.8h-1.8V131.5z"
			/>
		<polygon style="clip-path:url(#SVGID_00000114062453702614672440000015137986660679921814_);fill:#003592;" points="280.1,132.8 
			276.7,132.8 276.7,131.5 285.4,131.5 285.4,132.8 282,132.8 282,141.7 280.1,141.7 		"/>
		<polygon style="clip-path:url(#SVGID_00000114062453702614672440000015137986660679921814_);fill:#003592;" points="287.5,131.5 
			294.4,131.5 294.4,132.8 289.3,132.8 289.3,135.7 293.6,135.7 293.6,137 289.3,137 289.3,140.3 294.6,140.3 294.6,141.7 
			287.5,141.7 		"/>
		<path style="clip-path:url(#SVGID_00000114062453702614672440000015137986660679921814_);fill:#003592;" d="M296.4,136.6
			c0-3.3,2.3-5.3,5.3-5.3c1.5,0,2.6,0.6,3.3,1.3l-1,1c-0.6-0.5-1.3-0.9-2.3-0.9c-2,0-3.4,1.5-3.4,3.9c0,2.4,1.3,3.9,3.4,3.9
			c1.1,0,1.9-0.4,2.6-1.1l1,1c-0.9,0.9-2.1,1.5-3.7,1.5C298.7,141.9,296.4,140,296.4,136.6"/>
		<polygon style="clip-path:url(#SVGID_00000114062453702614672440000015137986660679921814_);fill:#003592;" points="307.4,131.5 
			309.2,131.5 309.2,135.6 314.2,135.6 314.2,131.5 316.1,131.5 316.1,141.7 314.2,141.7 314.2,137 309.2,137 309.2,141.7 
			307.4,141.7 		"/>
		<path style="clip-path:url(#SVGID_00000114062453702614672440000015137986660679921814_);fill:#003592;" d="M319.2,131.5h1.9
			l3.9,6l1.2,2.2h0.1c-0.1-1.1-0.2-2.3-0.2-3.4v-4.8h1.8v10.2h-1.9l-3.9-6l-1.2-2.1h-0.1c0.1,1.1,0.2,2.2,0.2,3.3v4.8h-1.8V131.5z"
			/>
		<path style="clip-path:url(#SVGID_00000114062453702614672440000015137986660679921814_);fill:#003592;" d="M330.2,136.5
			c0-3.3,2.1-5.3,5.1-5.3c3,0,5.1,2,5.1,5.3c0,3.3-2.1,5.3-5.1,5.3C332.3,141.9,330.2,139.8,330.2,136.5 M338.6,136.5
			c0-2.4-1.3-3.9-3.2-3.9c-1.9,0-3.2,1.5-3.2,3.9s1.3,3.9,3.2,3.9C337.3,140.5,338.6,138.9,338.6,136.5"/>
		<polygon style="clip-path:url(#SVGID_00000114062453702614672440000015137986660679921814_);fill:#003592;" points="342.9,131.5 
			344.8,131.5 344.8,140.3 349.7,140.3 349.7,141.7 342.9,141.7 		"/>
		<path style="clip-path:url(#SVGID_00000114062453702614672440000015137986660679921814_);fill:#003592;" d="M350.6,136.5
			c0-3.3,2.1-5.3,5.1-5.3c3,0,5.1,2,5.1,5.3c0,3.3-2.1,5.3-5.1,5.3C352.7,141.9,350.6,139.8,350.6,136.5 M359,136.5
			c0-2.4-1.3-3.9-3.2-3.9c-1.9,0-3.2,1.5-3.2,3.9s1.3,3.9,3.2,3.9C357.7,140.5,359,138.9,359,136.5"/>
		<path style="clip-path:url(#SVGID_00000114062453702614672440000015137986660679921814_);fill:#003592;" d="M362.7,136.6
			c0-3.3,2.4-5.3,5.5-5.3c1.7,0,2.8,0.6,3.5,1.3l-1,1c-0.6-0.5-1.3-0.9-2.4-0.9c-2.2,0-3.6,1.5-3.6,3.9c0,2.4,1.3,3.9,3.7,3.9
			c0.7,0,1.4-0.2,1.9-0.5v-2.4h-2.3v-1.3h4v4.4c-0.8,0.7-2.1,1.2-3.7,1.2C364.9,141.9,362.7,140,362.7,136.6"/>
		<path style="clip-path:url(#SVGID_00000114062453702614672440000015137986660679921814_);fill:#003592;" d="M376.4,137.8l-3.5-6.3
			h2l1.4,2.7c0.4,0.8,0.7,1.5,1.1,2.2h0.1c0.4-0.8,0.8-1.5,1.1-2.2l1.4-2.7h1.9l-3.5,6.3v3.9h-1.9V137.8z"/>
		<path style="clip-path:url(#SVGID_00000114062453702614672440000015137986660679921814_);fill:#003592;" d="M386.8,137.3v-5.8h1.9
			v5.9c0,2.3,1.1,3.1,2.5,3.1c1.5,0,2.6-0.7,2.6-3.1v-5.9h1.8v5.8c0,3.3-1.8,4.6-4.4,4.6C388.6,141.9,386.8,140.6,386.8,137.3"/>
		<path style="clip-path:url(#SVGID_00000114062453702614672440000015137986660679921814_);fill:#003592;" d="M398.6,131.5h1.9
			l3.9,6l1.2,2.2h0.1c-0.1-1.1-0.2-2.3-0.2-3.4v-4.8h1.8v10.2h-1.9l-3.9-6l-1.2-2.1h-0.1c0.1,1.1,0.2,2.2,0.2,3.3v4.8h-1.8V131.5z"
			/>
		
			<rect x="410.3" y="131.5" style="clip-path:url(#SVGID_00000114062453702614672440000015137986660679921814_);fill:#003592;" width="1.9" height="10.2"/>
		<path style="clip-path:url(#SVGID_00000114062453702614672440000015137986660679921814_);fill:#003592;" d="M413.7,131.5h2
			l1.7,5.3c0.4,1.2,0.7,2.2,1.1,3.3h0.1c0.4-1.2,0.7-2.2,1.1-3.3l1.7-5.3h1.9l-3.7,10.2h-2.2L413.7,131.5z"/>
		<polygon style="clip-path:url(#SVGID_00000114062453702614672440000015137986660679921814_);fill:#003592;" points="424.7,131.5 
			431.7,131.5 431.7,132.8 426.6,132.8 426.6,135.7 430.9,135.7 430.9,137 426.6,137 426.6,140.3 431.8,140.3 431.8,141.7 
			424.7,141.7 		"/>
		<path style="clip-path:url(#SVGID_00000114062453702614672440000015137986660679921814_);fill:#003592;" d="M440.7,141.7l-2.7-4.1
			h-1.9v4.1h-1.9v-10.2h3.8c2.4,0,4.2,0.7,4.2,3c0,1.6-1,2.5-2.5,2.9l2.9,4.3H440.7z M436.2,136.3h1.8c1.7,0,2.6-0.6,2.6-1.8
			c0-1.2-0.9-1.7-2.6-1.7h-1.8V136.3z"/>
		<path style="clip-path:url(#SVGID_00000114062453702614672440000015137986660679921814_);fill:#003592;" d="M443.7,140.4l1.1-1.1
			c0.8,0.7,2,1.2,3.1,1.2c1.4,0,2.2-0.6,2.2-1.4c0-0.9-0.8-1.2-1.9-1.6l-1.6-0.6c-1.1-0.4-2.4-1.2-2.4-2.7c0-1.6,1.6-2.8,3.9-2.8
			c1.4,0,2.7,0.5,3.6,1.3l-1,1c-0.7-0.6-1.5-0.9-2.6-0.9c-1.2,0-2,0.5-2,1.3c0,0.9,0.9,1.2,1.9,1.5l1.6,0.6c1.4,0.5,2.4,1.3,2.4,2.8
			c0,1.6-1.6,3-4.1,3C446.3,141.9,444.8,141.3,443.7,140.4"/>
		
			<rect x="454.2" y="131.5" style="clip-path:url(#SVGID_00000114062453702614672440000015137986660679921814_);fill:#003592;" width="1.9" height="10.2"/>
		<polygon style="clip-path:url(#SVGID_00000114062453702614672440000015137986660679921814_);fill:#003592;" points="461.5,132.8 
			458.1,132.8 458.1,131.5 466.9,131.5 466.9,132.8 463.4,132.8 463.4,141.7 461.5,141.7 		"/>
		<path style="clip-path:url(#SVGID_00000114062453702614672440000015137986660679921814_);fill:#003592;" d="M470.5,137.8l-3.5-6.3
			h2l1.4,2.7c0.4,0.8,0.7,1.5,1.1,2.2h0.1c0.4-0.8,0.8-1.5,1.1-2.2l1.4-2.7h1.9l-3.5,6.3v3.9h-1.9V137.8z"/>
		<polygon style="clip-path:url(#SVGID_00000114062453702614672440000015137986660679921814_);fill:#083683;" points="119.4,74.5 
			176.1,74.5 176.1,120.9 147.8,141.5 119.3,120.9 		"/>
	</g>
	<g style="clip-path:url(#SVGID_00000042738489118661511220000016039297612398224039_);">
		<text transform="matrix(1.028 0 0 1 122.2817 86.1664)" class="st3 st4 st5">深圳技术大学</text>
	</g>
	<g style="clip-path:url(#SVGID_00000042738489118661511220000016039297612398224039_);">
		<text transform="matrix(1.0281 0 0 1 122.2817 89.6854)" class="st3 st4 st6">SHENZHEN TECHNOLOGY UNIVERSITY</text>
	</g>
	<g style="clip-path:url(#SVGID_00000042738489118661511220000016039297612398224039_);">
		<defs>
			<rect id="SVGID_00000128482061401515407390000011216537969994446487_" x="119.3" y="74.5" width="356.6" height="67.4"/>
		</defs>
		<clipPath id="SVGID_00000016769172517651776060000005719834482697615289_">
			<use xlink:href="#SVGID_00000128482061401515407390000011216537969994446487_"  style="overflow:visible;"/>
		</clipPath>
		
			<line style="clip-path:url(#SVGID_00000016769172517651776060000005719834482697615289_);fill:#FFFFFF;" x1="121.7" y1="91.2" x2="173.8" y2="91.2"/>
		
			<line style="clip-path:url(#SVGID_00000016769172517651776060000005719834482697615289_);fill:none;stroke:#FFFFFF;stroke-width:0.1407;stroke-miterlimit:10;" x1="121.7" y1="91.2" x2="173.8" y2="91.2"/>
		<polygon style="clip-path:url(#SVGID_00000016769172517651776060000005719834482697615289_);fill:#FFFFFF;" points="129,125.9 
			125.8,123.5 125.9,116.4 129,116.4 		"/>
		<polygon style="clip-path:url(#SVGID_00000016769172517651776060000005719834482697615289_);fill:#FFFFFF;" points="137.1,131.9 
			133.9,129.5 134,116.4 137.2,116.4 		"/>
		<polygon style="clip-path:url(#SVGID_00000016769172517651776060000005719834482697615289_);fill:#FFFFFF;" points="142.1,135.6 
			142.1,116.4 145.3,116.4 145.3,137.9 		"/>
		<polygon style="clip-path:url(#SVGID_00000016769172517651776060000005719834482697615289_);fill:#FFFFFF;" points="153.4,135.6 
			150.2,137.9 150.3,116.4 153.5,116.4 		"/>
		<polygon style="clip-path:url(#SVGID_00000016769172517651776060000005719834482697615289_);fill:#FFFFFF;" points="161.6,116.4 
			161.5,129.5 158.4,131.9 158.4,116.4 		"/>
		<polygon style="clip-path:url(#SVGID_00000016769172517651776060000005719834482697615289_);fill:#FFFFFF;" points="166.5,125.9 
			166.6,116.4 169.7,116.4 169.7,123.5 		"/>
		
			<rect x="139.7" y="108.1" style="clip-path:url(#SVGID_00000016769172517651776060000005719834482697615289_);fill:#FFFFFF;" width="7.3" height="6.6"/>
		
			<rect x="130.7" y="108.1" style="clip-path:url(#SVGID_00000016769172517651776060000005719834482697615289_);fill:#FFFFFF;" width="7.2" height="6.6"/>
		
			<rect x="121.7" y="108.1" style="clip-path:url(#SVGID_00000016769172517651776060000005719834482697615289_);fill:#FFFFFF;" width="7.3" height="6.6"/>
		
			<rect x="148.7" y="108.1" style="clip-path:url(#SVGID_00000016769172517651776060000005719834482697615289_);fill:#FFFFFF;" width="7.3" height="6.6"/>
		
			<rect x="157.6" y="108.1" style="clip-path:url(#SVGID_00000016769172517651776060000005719834482697615289_);fill:#FFFFFF;" width="7.3" height="6.6"/>
		
			<rect x="166.6" y="108.1" style="clip-path:url(#SVGID_00000016769172517651776060000005719834482697615289_);fill:#FFFFFF;" width="7.3" height="6.6"/>
		
			<polygon style="clip-path:url(#SVGID_00000016769172517651776060000005719834482697615289_);fill:none;stroke:#FFFFFF;stroke-width:0.14;stroke-linecap:round;stroke-linejoin:round;stroke-miterlimit:10;" points="
			121.7,76.7 173.8,76.7 173.8,120 147.7,139.6 121.6,120 		"/>
	</g>
	<g style="clip-path:url(#SVGID_00000042738489118661511220000016039297612398224039_);">
		<text transform="matrix(1.3341 0 0 1 121.9233 104.5785)"><tspan x="0" y="0" class="st3 st4 st10">S</tspan><tspan x="7.4" y="0" class="st3 st4 st10">Z</tspan><tspan x="14.8" y="0" class="st3 st4 st10">T</tspan><tspan x="22.2" y="0" class="st3 st4 st10">U</tspan></text>
	</g>
	<g style="clip-path:url(#SVGID_00000042738489118661511220000016039297612398224039_);">
		<defs>
			<rect id="SVGID_00000045606992772078045560000011227299946657414278_" x="119.3" y="74.5" width="356.6" height="67.4"/>
		</defs>
		<clipPath id="SVGID_00000031888467954438698450000002448891406892880532_">
			<use xlink:href="#SVGID_00000045606992772078045560000011227299946657414278_"  style="overflow:visible;"/>
		</clipPath>
		
			<path style="clip-path:url(#SVGID_00000031888467954438698450000002448891406892880532_);fill:none;stroke:#FFFFFF;stroke-width:0.1427;stroke-miterlimit:10;" d="
			M128.7,100.8c0.5,0.4,0.7,0.7,0.7,1.1c0,0.7-0.2,1.3-0.6,1.6c-0.4,0.4-1.1,0.6-1.9,0.6c-0.8,0-1.5-0.2-2.2-0.5
			c-0.6-0.4-1.1-1-1.5-2l-0.5,0.1l0.6,2.8c0.2-0.1,0.4-0.2,0.5-0.3c0.2-0.1,0.3-0.1,0.5-0.1c0.3,0,0.6,0.1,1.1,0.2
			c0.4,0.2,0.9,0.2,1.4,0.2c1.2,0,2.1-0.3,2.8-0.8c0.6-0.5,0.9-1.1,0.9-1.8c0-0.6-0.3-1.2-0.8-1.7c-0.5-0.5-1.4-0.9-2.6-1.3
			c-1.5-0.5-2.4-0.9-2.7-1.1c-0.3-0.2-0.5-0.6-0.5-1c0-0.5,0.2-0.9,0.5-1.3c0.4-0.4,1-0.6,2-0.6c0.8,0,1.4,0.1,1.9,0.4
			c0.5,0.3,0.9,0.8,1.4,1.6l0.4-0.1l-0.3-2.3c-0.1,0.2-0.2,0.3-0.3,0.3c-0.1,0.1-0.3,0.1-0.4,0.1c-0.2,0-0.5-0.1-1-0.2
			c-0.5-0.1-0.9-0.2-1.4-0.2c-1.2,0-2.1,0.3-2.7,0.8c-0.6,0.5-0.9,1-0.9,1.6c0,0.7,0.3,1.2,0.8,1.6c0.5,0.3,1.4,0.7,2.8,1.2
			C127.5,100,128.2,100.4,128.7,100.8z"/>
		
			<path style="clip-path:url(#SVGID_00000031888467954438698450000002448891406892880532_);fill:none;stroke:#FFFFFF;stroke-width:0.1427;stroke-miterlimit:10;" d="
			M134,104l6.7-9.3h-6.9l-0.9,1.9l0.5,0.1c0.4-0.6,0.9-1,1.4-1.3c0.5-0.3,1.1-0.4,1.8-0.4h2.6l-6.7,9.3h7.3l0.8-2.2l-0.5-0.1
			c-0.3,0.6-0.7,1.1-1.2,1.4c-0.5,0.3-1,0.5-1.7,0.5H134z"/>
		
			<path style="clip-path:url(#SVGID_00000031888467954438698450000002448891406892880532_);fill:none;stroke:#FFFFFF;stroke-width:0.1427;stroke-miterlimit:10;" d="
			M148.4,104h-0.7c-0.2,0-0.4,0-0.5-0.1c-0.1-0.1-0.2-0.2-0.2-0.3v-7.9c0-0.3,0-0.5,0.1-0.6c0,0,0.3-0.1,0.8-0.1
			c0.7,0,1.2,0.1,1.4,0.3c0.2,0.2,0.5,0.7,0.9,1.5l0.4-0.1l-0.6-2.2h-7.2l-0.7,2.2l0.5,0.1c0.4-0.8,0.7-1.3,1-1.5
			c0.3-0.2,0.8-0.3,1.5-0.3c0.4,0,0.6,0,0.6,0.1c0,0,0.1,0.2,0.1,0.5v7.9c0,0.2-0.1,0.3-0.2,0.3c-0.1,0.1-0.3,0.1-0.5,0.1h-0.7v0.3
			h3.9V104z"/>
		
			<path style="clip-path:url(#SVGID_00000031888467954438698450000002448891406892880532_);fill:none;stroke:#FFFFFF;stroke-width:0.1427;stroke-miterlimit:10;" d="
			M154.7,103.6c-0.4-0.3-0.6-0.8-0.6-1.5v-6.6c0-0.2,0.1-0.3,0.2-0.3c0.1-0.1,0.3-0.1,0.5-0.1h0.4v-0.3h-3.3V95h0.4
			c0.3,0,0.4,0,0.5,0.1c0.1,0.1,0.2,0.2,0.2,0.3v6.6c0,0.8,0.3,1.4,1,1.8c0.7,0.4,1.5,0.6,2.4,0.6c0.9,0,1.6-0.2,2.3-0.7
			c0.7-0.4,1-1,1-1.8v-6.6c0-0.2,0.1-0.3,0.2-0.3c0.1-0.1,0.3-0.1,0.5-0.1h0.5v-0.3H158V95h0.5c0.3,0,0.4,0,0.5,0.1
			c0.1,0.1,0.2,0.2,0.2,0.3v6.6c0,0.6-0.3,1-0.8,1.4c-0.5,0.4-1.2,0.6-1.9,0.6C155.7,104,155.2,103.9,154.7,103.6z"/>
	</g>
	<g style="clip-path:url(#SVGID_00000042738489118661511220000016039297612398224039_);">
		<text transform="matrix(1.3341 0 0 1 161.3999 104.5785)" class="st3 st4 st10"> </text>
	</g>
	<g style="clip-path:url(#SVGID_00000042738489118661511220000016039297612398224039_);">
		<defs>
			<rect id="SVGID_00000181797954376777385900000017064679900565240254_" x="119.3" y="74.5" width="356.6" height="67.4"/>
		</defs>
		<clipPath id="SVGID_00000008113244611929576140000014823228456987442314_">
			<use xlink:href="#SVGID_00000181797954376777385900000017064679900565240254_"  style="overflow:visible;"/>
		</clipPath>
		
			<line style="clip-path:url(#SVGID_00000008113244611929576140000014823228456987442314_);fill:#FFFFFF;" x1="121.7" y1="106" x2="173.8" y2="106"/>
		
			<line style="clip-path:url(#SVGID_00000008113244611929576140000014823228456987442314_);fill:none;stroke:#FFFFFF;stroke-width:0.1407;stroke-miterlimit:10;" x1="121.7" y1="106" x2="173.8" y2="106"/>
		<polygon style="clip-path:url(#SVGID_00000008113244611929576140000014823228456987442314_);fill:#023592;" points="119.4,74.5 
			176.1,74.5 176.1,120.9 147.8,141.5 119.3,120.9 		"/>
		
			<polygon style="clip-path:url(#SVGID_00000008113244611929576140000014823228456987442314_);fill:none;stroke:#FFFFFF;stroke-width:0.2794;stroke-miterlimit:10;" points="
			121.7,76.7 173.9,76.7 173.8,119.9 147.8,138.8 121.6,119.9 		"/>
		<path style="clip-path:url(#SVGID_00000008113244611929576140000014823228456987442314_);fill:#FFFFFF;" d="M123.9,83.3
			c-0.3-0.3-1-0.7-1.5-1l0.6-0.9c0.5,0.2,1.2,0.6,1.5,0.9L123.9,83.3z M124.8,84.3c-0.4,0.9-0.8,1.8-1.3,2.6l-0.9-0.8
			c0.4-0.6,0.9-1.6,1.4-2.6L124.8,84.3z M124.2,80.9c-0.3-0.2-1-0.6-1.4-0.8l0.6-0.9c0.4,0.2,1.1,0.5,1.4,0.7L124.2,80.9z
			 M128.9,84.2c0.4,0.6,1.1,1.1,1.7,1.5c-0.3,0.2-0.7,0.6-0.9,0.9c-0.5-0.4-1-0.9-1.5-1.5v1.8H127V85c-0.5,0.7-1.1,1.2-1.8,1.6
			c-0.2-0.3-0.5-0.7-0.8-0.9c0.8-0.3,1.5-0.9,1.9-1.5H125v-1.1h2v-0.8h1.3v0.8h2v1.1H128.9z M127.5,81c-0.4,0.7-1.1,1.5-1.8,1.9
			c-0.2-0.2-0.6-0.6-0.8-0.8c0.4-0.2,0.8-0.5,1.1-0.9H125v-1.8h5.3v1.8h-1.1c0.4,0.4,0.8,0.8,1,1.1l-0.9,0.6c-0.3-0.5-1-1.3-1.5-1.8
			l0.9-0.6c0.2,0.2,0.4,0.3,0.6,0.5v-0.7h-3.1v0.6c0.1-0.1,0.2-0.3,0.3-0.4L127.5,81z"/>
		<path style="clip-path:url(#SVGID_00000008113244611929576140000014823228456987442314_);fill:#FFFFFF;" d="M134.4,79.4h1.2v2.9
			c0,1.6-0.1,3.3-0.9,4.7c-0.3-0.2-0.9-0.5-1.2-0.7c0.3-0.4,0.5-0.8,0.6-1.3c-0.9,0.4-1.9,0.8-2.7,1.1l-0.4-1.2
			c0.3-0.1,0.7-0.2,1.1-0.3v-2.3h-0.9V81h0.9v-1.8h1.2V81h0.9v1.2h-0.9v1.8l0.7-0.2l0.2,0.9c0.2-0.8,0.2-1.6,0.2-2.5V79.4z
			 M136,79.8h1.2v6H136V79.8z M138.8,86.9h-1.3v-7.6h1.3V86.9z"/>
		<path style="clip-path:url(#SVGID_00000008113244611929576140000014823228456987442314_);fill:#FFFFFF;" d="M142.6,83.7
			c-0.3,0.1-0.6,0.1-0.9,0.2v1.8c0,0.5-0.1,0.8-0.4,1c-0.3,0.2-0.8,0.2-1.4,0.2c0-0.3-0.2-0.8-0.3-1.1c0.3,0,0.6,0,0.8,0
			c0.1,0,0.2,0,0.2-0.2v-1.5l-0.7,0.2l-0.3-1.1c0.3,0,0.6-0.1,1-0.2v-1.3h-0.9v-1.1h0.9v-1.5h1.2v1.5h0.8v1.1h-0.8v1l0.7-0.2
			L142.6,83.7z M147.4,82.4c-0.3,1.2-0.8,2.1-1.5,2.8c0.5,0.3,1.1,0.6,1.8,0.7c-0.3,0.2-0.6,0.7-0.8,1c-0.8-0.2-1.5-0.5-2-1
			c-0.6,0.4-1.3,0.7-2.1,0.9c-0.1-0.3-0.4-0.8-0.7-1.1c0.7-0.1,1.3-0.4,1.9-0.7c-0.4-0.5-0.8-1.1-1.1-1.8l0.4-0.1h-0.5v-1.1h1.6
			v-0.9h-1.7v-1.1h1.7v-1.1h1.2v1.1h1.8v1.1h-1.8v0.9h0.8l0.2,0L147.4,82.4z M144.1,83.2c0.2,0.4,0.5,0.9,0.9,1.2
			c0.4-0.4,0.7-0.8,0.9-1.2H144.1z"/>
		<path style="clip-path:url(#SVGID_00000008113244611929576140000014823228456987442314_);fill:#FFFFFF;" d="M153.3,82.3
			c0.7,1,1.8,2.1,2.9,2.8c-0.3,0.2-0.8,0.7-1,1.1c-0.9-0.7-1.7-1.6-2.4-2.6V87h-1.4v-3.1c-0.7,0.9-1.6,1.7-2.5,2.3
			c-0.2-0.3-0.6-0.8-0.9-1.1c1.3-0.6,2.4-1.7,3.1-2.8h-2.8v-1.2h3.1v-2h1.4v2h1.5c-0.3-0.3-0.9-0.9-1.3-1.2l0.9-0.7
			c0.4,0.3,1.1,0.8,1.4,1.2l-1,0.8h1.5v1.2H153.3z"/>
		<path style="clip-path:url(#SVGID_00000008113244611929576140000014823228456987442314_);fill:#FFFFFF;" d="M161.5,82.5
			c0.6,1.5,1.5,2.7,3.1,3.3c-0.3,0.3-0.7,0.8-0.9,1.1c-1.5-0.7-2.4-1.8-3.1-3.2c-0.5,1.3-1.4,2.4-3.1,3.2c-0.2-0.3-0.6-0.8-0.9-1
			c1.9-0.8,2.6-2.1,3-3.4h-2.8v-1.2h3c0.1-0.7,0.1-1.5,0.1-2.1h1.4c0,0.7,0,1.4-0.1,2.1h3.3v1.2H161.5z"/>
		<path style="clip-path:url(#SVGID_00000008113244611929576140000014823228456987442314_);fill:#FFFFFF;" d="M172.9,84.9h-3.2v0.8
			c0,0.6-0.1,0.9-0.6,1.1c-0.5,0.2-1,0.2-1.7,0.2c-0.1-0.3-0.3-0.9-0.5-1.2c0.5,0,1.1,0,1.3,0c0.2,0,0.2,0,0.2-0.1v-0.7h-3.2v-1.1
			h3.2v-0.5c0.2-0.1,0.5-0.2,0.7-0.3h-2.3v-1h3.7l0.3-0.1l0.8,0.6c-0.5,0.4-1.1,0.9-1.8,1.2v0.1h3.2V84.9z M166.5,82.3h-1.2v-1.9
			h1.3c-0.1-0.2-0.3-0.5-0.5-0.8l1.1-0.5c0.3,0.3,0.6,0.7,0.8,1.1l-0.3,0.1h1.2c-0.1-0.3-0.3-0.7-0.5-1l1.1-0.4
			c0.3,0.3,0.5,0.8,0.7,1.2l-0.6,0.2h1c0.3-0.4,0.5-0.9,0.7-1.2l1.3,0.4c-0.2,0.3-0.4,0.6-0.6,0.9h1.1v1.9h-1.2v-0.9h-5.2V82.3z"/>
		<path style="clip-path:url(#SVGID_00000008113244611929576140000014823228456987442314_);fill:#FFFFFF;" d="M122.4,89.4l0.3-0.3
			c0.1,0.1,0.3,0.2,0.5,0.2c0.2,0,0.3-0.1,0.3-0.2c0-0.1-0.1-0.1-0.3-0.2l-0.3-0.1c-0.2-0.1-0.4-0.2-0.4-0.5c0-0.3,0.3-0.6,0.7-0.6
			c0.2,0,0.5,0.1,0.6,0.3l-0.2,0.3c-0.1-0.1-0.3-0.1-0.4-0.1c-0.1,0-0.2,0.1-0.2,0.2c0,0.1,0.1,0.1,0.3,0.2l0.2,0.1
			c0.2,0.1,0.4,0.3,0.4,0.5c0,0.3-0.3,0.6-0.8,0.6C122.9,89.7,122.6,89.6,122.4,89.4"/>
		<polygon style="clip-path:url(#SVGID_00000008113244611929576140000014823228456987442314_);fill:#FFFFFF;" points="124.2,87.8 
			124.7,87.8 124.7,88.5 125.3,88.5 125.3,87.8 125.8,87.8 125.8,89.7 125.3,89.7 125.3,88.9 124.7,88.9 124.7,89.7 124.2,89.7 		
			"/>
		<polygon style="clip-path:url(#SVGID_00000008113244611929576140000014823228456987442314_);fill:#FFFFFF;" points="126.3,87.8 
			127.5,87.8 127.5,88.1 126.8,88.1 126.8,88.5 127.4,88.5 127.4,88.9 126.8,88.9 126.8,89.3 127.6,89.3 127.6,89.7 126.3,89.7 		
			"/>
		<path style="clip-path:url(#SVGID_00000008113244611929576140000014823228456987442314_);fill:#FFFFFF;" d="M128,87.8h0.5l0.5,0.9
			l0.2,0.4h0c0-0.2-0.1-0.5-0.1-0.7v-0.6h0.5v1.9H129l-0.5-0.9l-0.2-0.4h0c0,0.2,0.1,0.5,0.1,0.7v0.6H128V87.8z"/>
		<polygon style="clip-path:url(#SVGID_00000008113244611929576140000014823228456987442314_);fill:#FFFFFF;" points="129.9,89.4 
			130.7,88.1 129.9,88.1 129.9,87.8 131.3,87.8 131.3,88 130.4,89.3 131.3,89.3 131.3,89.7 129.9,89.7 		"/>
		<polygon style="clip-path:url(#SVGID_00000008113244611929576140000014823228456987442314_);fill:#FFFFFF;" points="131.6,87.8 
			132.1,87.8 132.1,88.5 132.8,88.5 132.8,87.8 133.2,87.8 133.2,89.7 132.8,89.7 132.8,88.9 132.1,88.9 132.1,89.7 131.6,89.7 		
			"/>
		<polygon style="clip-path:url(#SVGID_00000008113244611929576140000014823228456987442314_);fill:#FFFFFF;" points="133.7,87.8 
			135,87.8 135,88.1 134.2,88.1 134.2,88.5 134.8,88.5 134.8,88.9 134.2,88.9 134.2,89.3 135,89.3 135,89.7 133.7,89.7 		"/>
		<path style="clip-path:url(#SVGID_00000008113244611929576140000014823228456987442314_);fill:#FFFFFF;" d="M135.4,87.8h0.5
			l0.5,0.9l0.2,0.4h0c0-0.2-0.1-0.5-0.1-0.7v-0.6h0.5v1.9h-0.5l-0.5-0.9l-0.2-0.4h0c0,0.2,0.1,0.5,0.1,0.7v0.6h-0.5V87.8z"/>
		<polygon style="clip-path:url(#SVGID_00000008113244611929576140000014823228456987442314_);fill:#FFFFFF;" points="138.4,88.1 
			137.9,88.1 137.9,87.8 139.4,87.8 139.4,88.1 138.9,88.1 138.9,89.7 138.4,89.7 		"/>
		<polygon style="clip-path:url(#SVGID_00000008113244611929576140000014823228456987442314_);fill:#FFFFFF;" points="139.7,87.8 
			141,87.8 141,88.1 140.2,88.1 140.2,88.5 140.9,88.5 140.9,88.9 140.2,88.9 140.2,89.3 141,89.3 141,89.7 139.7,89.7 		"/>
		<path style="clip-path:url(#SVGID_00000008113244611929576140000014823228456987442314_);fill:#FFFFFF;" d="M141.3,88.7
			c0-0.6,0.4-1,0.9-1c0.3,0,0.5,0.1,0.6,0.3l-0.3,0.3c-0.1-0.1-0.2-0.2-0.3-0.2c-0.3,0-0.5,0.2-0.5,0.6c0,0.4,0.2,0.6,0.5,0.6
			c0.2,0,0.3-0.1,0.4-0.2l0.3,0.3c-0.2,0.2-0.4,0.3-0.6,0.3C141.7,89.7,141.3,89.4,141.3,88.7"/>
		<polygon style="clip-path:url(#SVGID_00000008113244611929576140000014823228456987442314_);fill:#FFFFFF;" points="143.2,87.8 
			143.7,87.8 143.7,88.5 144.3,88.5 144.3,87.8 144.8,87.8 144.8,89.7 144.3,89.7 144.3,88.9 143.7,88.9 143.7,89.7 143.2,89.7 		
			"/>
		<path style="clip-path:url(#SVGID_00000008113244611929576140000014823228456987442314_);fill:#FFFFFF;" d="M145.2,87.8h0.5
			l0.5,0.9l0.2,0.4h0c0-0.2-0.1-0.5-0.1-0.7v-0.6h0.5v1.9h-0.5l-0.5-0.9l-0.2-0.4h0c0,0.2,0.1,0.5,0.1,0.7v0.6h-0.5V87.8z"/>
		<path style="clip-path:url(#SVGID_00000008113244611929576140000014823228456987442314_);fill:#FFFFFF;" d="M147.2,88.7
			c0-0.6,0.4-1,0.9-1c0.5,0,0.9,0.4,0.9,1c0,0.6-0.4,1-0.9,1C147.6,89.7,147.2,89.3,147.2,88.7 M148.5,88.7c0-0.4-0.2-0.6-0.4-0.6
			s-0.4,0.2-0.4,0.6c0,0.4,0.2,0.6,0.4,0.6S148.5,89.1,148.5,88.7"/>
		<polygon style="clip-path:url(#SVGID_00000008113244611929576140000014823228456987442314_);fill:#FFFFFF;" points="149.4,87.8 
			149.8,87.8 149.8,89.3 150.6,89.3 150.6,89.7 149.4,89.7 		"/>
		<path style="clip-path:url(#SVGID_00000008113244611929576140000014823228456987442314_);fill:#FFFFFF;" d="M150.7,88.7
			c0-0.6,0.4-1,0.9-1c0.5,0,0.9,0.4,0.9,1c0,0.6-0.4,1-0.9,1C151.1,89.7,150.7,89.3,150.7,88.7 M152.1,88.7c0-0.4-0.2-0.6-0.4-0.6
			s-0.4,0.2-0.4,0.6c0,0.4,0.2,0.6,0.4,0.6S152.1,89.1,152.1,88.7"/>
		<path style="clip-path:url(#SVGID_00000008113244611929576140000014823228456987442314_);fill:#FFFFFF;" d="M152.8,88.7
			c0-0.6,0.4-1,1-1c0.3,0,0.5,0.1,0.6,0.3l-0.3,0.3c-0.1-0.1-0.2-0.2-0.4-0.2c-0.3,0-0.5,0.2-0.5,0.6c0,0.4,0.2,0.6,0.5,0.6
			c0.1,0,0.1,0,0.2,0V89h-0.3v-0.4h0.7v0.9c-0.1,0.1-0.4,0.2-0.7,0.2C153.3,89.7,152.8,89.4,152.8,88.7"/>
		<path style="clip-path:url(#SVGID_00000008113244611929576140000014823228456987442314_);fill:#FFFFFF;" d="M155.2,89l-0.6-1.2
			h0.5l0.2,0.4c0.1,0.1,0.1,0.3,0.2,0.4h0c0.1-0.2,0.1-0.3,0.2-0.4l0.2-0.4h0.5l-0.6,1.2v0.7h-0.5V89z"/>
		<path style="clip-path:url(#SVGID_00000008113244611929576140000014823228456987442314_);fill:#FFFFFF;" d="M157.1,88.8v-1h0.5
			v1.1c0,0.4,0.1,0.5,0.3,0.5c0.2,0,0.3-0.1,0.3-0.5v-1.1h0.5v1c0,0.6-0.3,0.9-0.8,0.9C157.4,89.7,157.1,89.4,157.1,88.8"/>
		<path style="clip-path:url(#SVGID_00000008113244611929576140000014823228456987442314_);fill:#FFFFFF;" d="M159.1,87.8h0.5
			l0.5,0.9l0.2,0.4h0c0-0.2-0.1-0.5-0.1-0.7v-0.6h0.5v1.9h-0.5l-0.5-0.9l-0.2-0.4h0c0,0.2,0.1,0.5,0.1,0.7v0.6h-0.5V87.8z"/>
		
			<rect x="161.2" y="87.8" style="clip-path:url(#SVGID_00000008113244611929576140000014823228456987442314_);fill:#FFFFFF;" width="0.5" height="1.9"/>
		<path style="clip-path:url(#SVGID_00000008113244611929576140000014823228456987442314_);fill:#FFFFFF;" d="M161.9,87.8h0.5
			l0.2,0.9c0.1,0.2,0.1,0.4,0.2,0.6h0c0.1-0.2,0.1-0.4,0.2-0.6l0.2-0.9h0.5l-0.6,1.9h-0.6L161.9,87.8z"/>
		<polygon style="clip-path:url(#SVGID_00000008113244611929576140000014823228456987442314_);fill:#FFFFFF;" points="163.8,87.8 
			165.1,87.8 165.1,88.1 164.3,88.1 164.3,88.5 165,88.5 165,88.9 164.3,88.9 164.3,89.3 165.1,89.3 165.1,89.7 163.8,89.7 		"/>
		<path style="clip-path:url(#SVGID_00000008113244611929576140000014823228456987442314_);fill:#FFFFFF;" d="M166.6,89.7l-0.4-0.7
			H166v0.7h-0.5v-1.9h0.7c0.4,0,0.8,0.1,0.8,0.6c0,0.3-0.1,0.5-0.3,0.6l0.4,0.8H166.6z M166,88.6h0.2c0.2,0,0.3-0.1,0.3-0.3
			c0-0.2-0.1-0.2-0.3-0.2H166V88.6z"/>
		<path style="clip-path:url(#SVGID_00000008113244611929576140000014823228456987442314_);fill:#FFFFFF;" d="M167.2,89.4l0.3-0.3
			c0.1,0.1,0.3,0.2,0.5,0.2c0.2,0,0.3-0.1,0.3-0.2c0-0.1-0.1-0.1-0.3-0.2l-0.3-0.1c-0.2-0.1-0.4-0.2-0.4-0.5c0-0.3,0.3-0.6,0.7-0.6
			c0.2,0,0.5,0.1,0.6,0.3l-0.2,0.3c-0.1-0.1-0.3-0.1-0.4-0.1c-0.1,0-0.2,0.1-0.2,0.2c0,0.1,0.1,0.1,0.3,0.2l0.2,0.1
			c0.2,0.1,0.4,0.3,0.4,0.5c0,0.3-0.3,0.6-0.8,0.6C167.7,89.7,167.4,89.6,167.2,89.4"/>
		
			<rect x="169" y="87.8" style="clip-path:url(#SVGID_00000008113244611929576140000014823228456987442314_);fill:#FFFFFF;" width="0.5" height="1.9"/>
		<polygon style="clip-path:url(#SVGID_00000008113244611929576140000014823228456987442314_);fill:#FFFFFF;" points="170.4,88.1 
			169.8,88.1 169.8,87.8 171.4,87.8 171.4,88.1 170.8,88.1 170.8,89.7 170.4,89.7 		"/>
		<path style="clip-path:url(#SVGID_00000008113244611929576140000014823228456987442314_);fill:#FFFFFF;" d="M172,89l-0.6-1.2h0.5
			l0.2,0.4c0.1,0.1,0.1,0.3,0.2,0.4h0c0.1-0.2,0.1-0.3,0.2-0.4l0.2-0.4h0.5l-0.6,1.2v0.7H172V89z"/>
		
			<line style="clip-path:url(#SVGID_00000008113244611929576140000014823228456987442314_);fill:#FFFFFF;" x1="121.7" y1="91.2" x2="173.8" y2="91.2"/>
		
			<line style="clip-path:url(#SVGID_00000008113244611929576140000014823228456987442314_);fill:none;stroke:#FFFFFF;stroke-width:0.1407;stroke-miterlimit:10;" x1="121.7" y1="91.2" x2="173.8" y2="91.2"/>
		
			<rect x="139.7" y="107.9" style="clip-path:url(#SVGID_00000008113244611929576140000014823228456987442314_);fill:#FFFFFF;" width="7.3" height="6.6"/>
		
			<rect x="130.7" y="107.9" style="clip-path:url(#SVGID_00000008113244611929576140000014823228456987442314_);fill:#FFFFFF;" width="7.2" height="6.6"/>
		
			<rect x="121.7" y="107.9" style="clip-path:url(#SVGID_00000008113244611929576140000014823228456987442314_);fill:#FFFFFF;" width="7.3" height="6.6"/>
		
			<rect x="148.7" y="107.9" style="clip-path:url(#SVGID_00000008113244611929576140000014823228456987442314_);fill:#FFFFFF;" width="7.3" height="6.6"/>
		
			<rect x="157.6" y="107.9" style="clip-path:url(#SVGID_00000008113244611929576140000014823228456987442314_);fill:#FFFFFF;" width="7.3" height="6.6"/>
		
			<rect x="166.6" y="107.9" style="clip-path:url(#SVGID_00000008113244611929576140000014823228456987442314_);fill:#FFFFFF;" width="7.3" height="6.6"/>
		<polygon style="clip-path:url(#SVGID_00000008113244611929576140000014823228456987442314_);fill:#FFFFFF;" points="125.9,116.4 
			125.8,122.9 129,125.3 129,116.4 		"/>
		<polygon style="clip-path:url(#SVGID_00000008113244611929576140000014823228456987442314_);fill:#FFFFFF;" points="134,116.4 
			133.9,128.9 137.1,131.2 137.2,116.4 		"/>
		<polygon style="clip-path:url(#SVGID_00000008113244611929576140000014823228456987442314_);fill:#FFFFFF;" points="142.1,116.4 
			142.1,134.8 145.3,137.1 145.3,116.4 		"/>
		<polygon style="clip-path:url(#SVGID_00000008113244611929576140000014823228456987442314_);fill:#FFFFFF;" points="150.3,116.4 
			150.2,137.1 153.4,134.7 153.5,116.4 		"/>
		<polygon style="clip-path:url(#SVGID_00000008113244611929576140000014823228456987442314_);fill:#FFFFFF;" points="158.4,116.4 
			158.4,131.1 161.5,128.8 161.6,116.4 		"/>
		<polygon style="clip-path:url(#SVGID_00000008113244611929576140000014823228456987442314_);fill:#FFFFFF;" points="166.6,116.4 
			166.5,125.2 169.7,122.9 169.7,116.4 		"/>
		<path style="clip-path:url(#SVGID_00000008113244611929576140000014823228456987442314_);fill:#FFFFFF;" d="M122.5,102.9l2-1.8
			c1,0.7,2.4,1.1,3.5,1.1c1.3,0,1.9-0.4,1.9-0.9c0-0.6-0.8-0.8-2-1.2l-1.8-0.6c-1.5-0.4-2.9-1.4-2.9-3c0-1.8,2.2-3.3,5.2-3.3
			c1.7,0,3.4,0.5,4.7,1.4l-1.7,1.6c-0.9-0.5-1.8-0.8-3-0.8c-1.1,0-1.7,0.3-1.7,0.9c0,0.6,0.9,0.8,2.2,1.2l1.8,0.5
			c1.8,0.5,2.8,1.4,2.8,3c0,1.8-2,3.4-5.5,3.4C126,104.5,124,103.9,122.5,102.9"/>
		<polygon style="clip-path:url(#SVGID_00000008113244611929576140000014823228456987442314_);fill:#FFFFFF;" points="135,102.7 
			141.3,95.6 135.6,95.6 135.6,93.5 145.5,93.5 145.5,95 139.3,102.1 145.6,102.1 145.6,104.3 135,104.3 		"/>
		<polygon style="clip-path:url(#SVGID_00000008113244611929576140000014823228456987442314_);fill:#FFFFFF;" points="150.9,95.6 
			147,95.6 147,93.5 158.3,93.5 158.3,95.6 154.4,95.6 154.4,104.3 150.9,104.3 		"/>
		<path style="clip-path:url(#SVGID_00000008113244611929576140000014823228456987442314_);fill:#FFFFFF;" d="M160.6,99.2v-5.7h3.4
			v6c0,2,0.8,2.8,2.4,2.8c1.6,0,2.4-0.7,2.4-2.8v-6h3.3v5.7c0,3.6-1.9,5.3-5.8,5.3C162.6,104.5,160.6,102.8,160.6,99.2"/>
		
			<line style="clip-path:url(#SVGID_00000008113244611929576140000014823228456987442314_);fill:#FFFFFF;" x1="121.7" y1="106" x2="173.8" y2="106"/>
		
			<line style="clip-path:url(#SVGID_00000008113244611929576140000014823228456987442314_);fill:none;stroke:#FFFFFF;stroke-width:0.1407;stroke-miterlimit:10;" x1="121.7" y1="106" x2="173.8" y2="106"/>
	</g>
</g>
<text transform="matrix(1 0 0 1 123.458 214.5771)"><tspan x="0" y="0" class="st16 st17 st18">本科毕业论</tspan><tspan x="234" y="0" class="st16 st17">文（设计）</tspan></text>
<text transform="matrix(1 0 0 1 102.4209 322.8252)" class="st19 st20">深</text>
<text transform="matrix(1 0 0 1 102.4209 322.8252)" class="st21 st19 st20">深</text>
<text transform="matrix(1 0 0 1 124.4209 322.8252)" class="st19 st20">圳</text>
<text transform="matrix(1 0 0 1 124.4209 322.8252)" class="st21 st19 st20">圳</text>
<text transform="matrix(1 0 0 1 146.4209 322.8252)" class="st19 st20">技</text>
<text transform="matrix(1 0 0 1 146.4209 322.8252)" class="st21 st19 st20">技</text>
<text transform="matrix(1 0 0 1 168.4209 322.8252)" class="st19 st20">术</text>
<text transform="matrix(1 0 0 1 168.4209 322.8252)" class="st21 st19 st20">术</text>
<text transform="matrix(1 0 0 1 190.4209 322.8252)" class="st19 st20">大</text>
<text transform="matrix(1 0 0 1 190.4209 322.8252)" class="st21 st19 st20">大</text>
<text transform="matrix(1 0 0 1 212.4209 322.8252)" class="st19 st20">学</text>
<text transform="matrix(1 0 0 1 212.4209 322.8252)" class="st21 st19 st20">学</text>
<text transform="matrix(1 0 0 1 234.4209 322.8252)" class="st19 st20">本</text>
<text transform="matrix(1 0 0 1 234.4209 322.8252)" class="st21 st19 st20">本</text>
<text transform="matrix(1 0 0 1 256.4209 322.8252)" class="st19 st20">科</text>
<text transform="matrix(1 0 0 1 256.4209 322.8252)" class="st21 st19 st20">科</text>
<text transform="matrix(1 0 0 1 278.4209 322.8252)" class="st19 st20">学</text>
<text transform="matrix(1 0 0 1 278.4209 322.8252)" class="st21 st19 st20">学</text>
<text transform="matrix(1 0 0 1 300.4209 322.8252)" class="st19 st20">位</text>
<text transform="matrix(1 0 0 1 300.4209 322.8252)" class="st21 st19 st20">位</text>
<text transform="matrix(1 0 0 1 322.4209 322.8252)" class="st19 st20">论</text>
<text transform="matrix(1 0 0 1 322.4209 322.8252)" class="st21 st19 st20">论</text>
<text transform="matrix(1 0 0 1 344.4209 322.8252)" class="st19 st20">文</text>
<text transform="matrix(1 0 0 1 344.4209 322.8252)" class="st21 st19 st20">文</text>
<text transform="matrix(1 0 0 1 371.9209 322.8252)"><tspan x="0" y="0" class="st22 st20">La</tspan><tspan x="25.7" y="0" class="st22 st20 st23">T</tspan><tspan x="38.4" y="0" class="st22 st20">eX</tspan></text>
<text transform="matrix(1 0 0 1 441.4023 322.8252)" class="st19 st20">模</text>
<text transform="matrix(1 0 0 1 441.4023 322.8252)" class="st21 st19 st20">模</text>
<text transform="matrix(1 0 0 1 463.4023 322.8252)" class="st19 st20">板</text>
<text transform="matrix(1 0 0 1 463.4023 322.8252)" class="st21 st19 st20">板</text>
<text transform="matrix(1 0 0 1 485.4023 322.8252)" class="st19 st20">标</text>
<text transform="matrix(1 0 0 1 485.4023 322.8252)" class="st21 st19 st20">标</text>
<text transform="matrix(1 0 0 1 187.6382 362.4248)" class="st19 st20">题</text>
<text transform="matrix(1 0 0 1 187.6382 362.4248)" class="st21 st19 st20">题</text>
<text transform="matrix(1 0 0 1 209.6382 362.4248)" class="st19 st20">可</text>
<text transform="matrix(1 0 0 1 209.6382 362.4248)" class="st21 st19 st20">可</text>
<text transform="matrix(1 0 0 1 231.6382 362.4248)" class="st19 st20">能</text>
<text transform="matrix(1 0 0 1 231.6382 362.4248)" class="st21 st19 st20">能</text>
<text transform="matrix(1 0 0 1 253.6382 362.4248)" class="st19 st20">很</text>
<text transform="matrix(1 0 0 1 253.6382 362.4248)" class="st21 st19 st20">很</text>
<text transform="matrix(1 0 0 1 275.6382 362.4248)" class="st19 st20">长</text>
<text transform="matrix(1 0 0 1 275.6382 362.4248)" class="st21 st19 st20">长</text>
<text transform="matrix(1 0 0 1 297.6382 362.4248)" class="st19 st20">则</text>
<text transform="matrix(1 0 0 1 297.6382 362.4248)" class="st21 st19 st20">则</text>
<text transform="matrix(1 0 0 1 319.6382 362.4248)" class="st19 st20">两</text>
<text transform="matrix(1 0 0 1 319.6382 362.4248)" class="st21 st19 st20">两</text>
<text transform="matrix(1 0 0 1 341.6382 362.4248)" class="st19 st20">行</text>
<text transform="matrix(1 0 0 1 341.6382 362.4248)" class="st21 st19 st20">行</text>
<text transform="matrix(1 0 0 1 363.6382 362.4248)" class="st19 st20">呈</text>
<text transform="matrix(1 0 0 1 363.6382 362.4248)" class="st21 st19 st20">呈</text>
<text transform="matrix(1 0 0 1 385.6377 362.4248)" class="st19 st20">现</text>
<text transform="matrix(1 0 0 1 385.6377 362.4248)" class="st21 st19 st20">现</text>
<text transform="matrix(1 0 0 1 137.6602 490.6426)"><tspan x="0" y="0" class="st16 st24 st25">姓</tspan><tspan x="48" y="0" class="st16 st24">名：</tspan></text>
<line class="st26" x1="229.4" y1="494.3" x2="317.7" y2="494.3"/>
<line class="st26" x1="317.3" y1="494.3" x2="365.7" y2="494.3"/>
<text transform="matrix(1 0 0 1 317.4951 490.6426)" class="st19 st24">郭</text>
<text transform="matrix(1 0 0 1 317.4951 490.6426)" class="st27 st19 st24">郭</text>
<text transform="matrix(1 0 0 1 333.4951 490.6426)" class="st19 st24">大</text>
<text transform="matrix(1 0 0 1 333.4951 490.6426)" class="st27 st19 st24">大</text>
<text transform="matrix(1 0 0 1 349.4951 490.6426)" class="st19 st24">侠</text>
<text transform="matrix(1 0 0 1 349.4951 490.6426)" class="st27 st19 st24">侠</text>
<line class="st26" x1="365.3" y1="494.3" x2="453.6" y2="494.3"/>
<text transform="matrix(1 0 0 1 137.6602 530.3867)"><tspan x="0" y="0" class="st16 st24 st25">学</tspan><tspan x="48" y="0" class="st16 st24">院：</tspan></text>
<line class="st26" x1="229.4" y1="534" x2="269.7" y2="534"/>
<line class="st26" x1="269.3" y1="534" x2="413.7" y2="534"/>
<text transform="matrix(1 0 0 1 269.4951 530.3867)" class="st19 st24">大</text>
<text transform="matrix(1 0 0 1 269.4951 530.3867)" class="st27 st19 st24">大</text>
<text transform="matrix(1 0 0 1 285.4951 530.3867)" class="st19 st24">数</text>
<text transform="matrix(1 0 0 1 285.4951 530.3867)" class="st27 st19 st24">数</text>
<text transform="matrix(1 0 0 1 301.4951 530.3867)" class="st19 st24">据</text>
<text transform="matrix(1 0 0 1 301.4951 530.3867)" class="st27 st19 st24">据</text>
<text transform="matrix(1 0 0 1 317.4951 530.3867)" class="st19 st24">与</text>
<text transform="matrix(1 0 0 1 317.4951 530.3867)" class="st27 st19 st24">与</text>
<text transform="matrix(1 0 0 1 333.4951 530.3867)" class="st19 st24">互</text>
<text transform="matrix(1 0 0 1 333.4951 530.3867)" class="st27 st19 st24">互</text>
<text transform="matrix(1 0 0 1 349.4951 530.3867)" class="st19 st24">联</text>
<text transform="matrix(1 0 0 1 349.4951 530.3867)" class="st27 st19 st24">联</text>
<text transform="matrix(1 0 0 1 365.4951 530.3867)" class="st19 st24">网</text>
<text transform="matrix(1 0 0 1 365.4951 530.3867)" class="st27 st19 st24">网</text>
<text transform="matrix(1 0 0 1 381.4951 530.3867)" class="st19 st24">学</text>
<text transform="matrix(1 0 0 1 381.4951 530.3867)" class="st27 st19 st24">学</text>
<text transform="matrix(1 0 0 1 397.4951 530.3867)" class="st19 st24">院</text>
<text transform="matrix(1 0 0 1 397.4951 530.3867)" class="st27 st19 st24">院</text>
<line class="st26" x1="413.3" y1="534" x2="453.6" y2="534"/>
<text transform="matrix(1 0 0 1 137.6602 570.1309)"><tspan x="0" y="0" class="st16 st24 st25">专</tspan><tspan x="48" y="0" class="st16 st24">业：</tspan></text>
<line class="st26" x1="229.4" y1="573.8" x2="301.7" y2="573.8"/>
<line class="st26" x1="301.3" y1="573.8" x2="381.7" y2="573.8"/>
<text transform="matrix(1 0 0 1 301.4951 570.1309)" class="st19 st24">物</text>
<text transform="matrix(1 0 0 1 301.4951 570.1309)" class="st27 st19 st24">物</text>
<text transform="matrix(1 0 0 1 317.4951 570.1309)" class="st19 st24">联</text>
<text transform="matrix(1 0 0 1 317.4951 570.1309)" class="st27 st19 st24">联</text>
<text transform="matrix(1 0 0 1 333.4951 570.1309)" class="st19 st24">网</text>
<text transform="matrix(1 0 0 1 333.4951 570.1309)" class="st27 st19 st24">网</text>
<text transform="matrix(1 0 0 1 349.4951 570.1309)" class="st19 st24">工</text>
<text transform="matrix(1 0 0 1 349.4951 570.1309)" class="st27 st19 st24">工</text>
<text transform="matrix(1 0 0 1 365.4951 570.1309)" class="st19 st24">程</text>
<text transform="matrix(1 0 0 1 365.4951 570.1309)" class="st27 st19 st24">程</text>
<line class="st26" x1="381.3" y1="573.8" x2="453.6" y2="573.8"/>
<text transform="matrix(1 0 0 1 137.6602 609.875)"><tspan x="0" y="0" class="st16 st24 st25">学</tspan><tspan x="48" y="0" class="st16 st24">号：</tspan></text>
<line class="st26" x1="229.4" y1="613.5" x2="305.7" y2="613.5"/>
<line class="st26" x1="305.3" y1="613.5" x2="377.7" y2="613.5"/>
<text transform="matrix(1 0 0 1 305.4951 609.875)" class="st22 st24">123456789</text>
<line class="st26" x1="377.3" y1="613.5" x2="453.6" y2="613.5"/>
<text transform="matrix(1 0 0 1 137.6602 649.6191)" class="st16 st24">指导教师：</text>
<line class="st26" x1="229.4" y1="653.3" x2="317.7" y2="653.3"/>
<line class="st26" x1="317.3" y1="653.3" x2="365.7" y2="653.3"/>
<text transform="matrix(1 0 0 1 317.4951 649.6191)" class="st19 st24">我</text>
<text transform="matrix(1 0 0 1 317.4951 649.6191)" class="st27 st19 st24">我</text>
<text transform="matrix(1 0 0 1 333.4951 649.6191)" class="st19 st24">自</text>
<text transform="matrix(1 0 0 1 333.4951 649.6191)" class="st27 st19 st24">自</text>
<text transform="matrix(1 0 0 1 349.4951 649.6191)" class="st19 st24">己</text>
<text transform="matrix(1 0 0 1 349.4951 649.6191)" class="st27 st19 st24">己</text>
<line class="st26" x1="365.3" y1="653.3" x2="453.6" y2="653.3"/>
<text transform="matrix(1 0 0 1 137.6602 689.3633)"><tspan x="0" y="0" class="st16 st24 st25">职</tspan><tspan x="48" y="0" class="st16 st24">称：</tspan></text>
<line class="st26" x1="229.4" y1="693" x2="309.7" y2="693"/>
<line class="st26" x1="309.3" y1="693" x2="373.7" y2="693"/>
<text transform="matrix(1 0 0 1 309.4951 689.3633)" class="st19 st24">助</text>
<text transform="matrix(1 0 0 1 309.4951 689.3633)" class="st27 st19 st24">助</text>
<text transform="matrix(1 0 0 1 325.4951 689.3633)" class="st19 st24">理</text>
<text transform="matrix(1 0 0 1 325.4951 689.3633)" class="st27 st19 st24">理</text>
<text transform="matrix(1 0 0 1 341.4951 689.3633)" class="st19 st24">教</text>
<text transform="matrix(1 0 0 1 341.4951 689.3633)" class="st27 st19 st24">教</text>
<text transform="matrix(1 0 0 1 357.4951 689.3633)" class="st19 st24">授</text>
<text transform="matrix(1 0 0 1 357.4951 689.3633)" class="st27 st19 st24">授</text>
<line class="st26" x1="373.3" y1="693" x2="453.6" y2="693"/>
<text transform="matrix(1 0 0 1 137.6602 729.1074)" class="st16 st24">提交日期：</text>
<line class="st26" x1="229.4" y1="732.8" x2="283.7" y2="732.8"/>
<line class="st26" x1="283.3" y1="732.8" x2="399.7" y2="732.8"/>
<text transform="matrix(1 0 0 1 283.4951 729.1074)" class="st22 st24">2023</text>
<text transform="matrix(1 0 0 1 319.4951 729.1074)" class="st19 st24">年</text>
<text transform="matrix(1 0 0 1 319.4951 729.1074)" class="st27 st19 st24">年</text>
<text transform="matrix(1 0 0 1 339.4951 729.1074)" class="st22 st24">5</text>
<text transform="matrix(1 0 0 1 351.4951 729.1074)" class="st19 st24">月</text>
<text transform="matrix(1 0 0 1 351.4951 729.1074)" class="st27 st19 st24">月</text>
<text transform="matrix(1 0 0 1 371.4951 729.1074)" class="st22 st24">1</text>
<text transform="matrix(1 0 0 1 383.4951 729.1074)" class="st19 st24">日</text>
<text transform="matrix(1 0 0 1 383.4951 729.1074)" class="st27 st19 st24">日</text>
<line class="st26" x1="399.3" y1="732.8" x2="453.6" y2="732.8"/>
</svg>
