<?xml version="1.0" encoding="UTF-8"?>
<svg id="_图层_1" data-name="图层 1" xmlns="http://www.w3.org/2000/svg" xmlns:xlink="http://www.w3.org/1999/xlink" viewBox="0 0 405.86 642.13">
  <defs>
    <style>
      .cls-1 {
        stroke-width: .14px;
      }

      .cls-1, .cls-2, .cls-3, .cls-4, .cls-5, .cls-6, .cls-7, .cls-8 {
        fill: none;
      }

      .cls-1, .cls-2, .cls-3, .cls-4, .cls-6, .cls-7 {
        stroke-miterlimit: 10;
      }

      .cls-1, .cls-2, .cls-7, .cls-8 {
        stroke: #fff;
      }

      .cls-2 {
        stroke-width: .14px;
      }

      .cls-9 {
        fill: #023592;
      }

      .cls-9, .cls-5, .cls-10, .cls-11, .cls-12 {
        stroke-width: 0px;
      }

      .cls-13 {
        font-size: 8.27px;
      }

      .cls-13, .cls-14, .cls-15 {
        font-family: SourceHanSansCN-Heavy, 'SourceHanSansCN Heavy-GBpc-EUC-H';
        font-weight: 800;
      }

      .cls-13, .cls-14, .cls-15, .cls-10 {
        fill: #fff;
      }

      .cls-14 {
        font-size: 2.59px;
      }

      .cls-16 {
        letter-spacing: 0em;
      }

      .cls-17 {
        clip-path: url(#clippath-2);
      }

      .cls-15 {
        font-size: 14.5px;
      }

      .cls-18 {
        letter-spacing: 0em;
      }

      .cls-3 {
        stroke-width: .64px;
      }

      .cls-3, .cls-4, .cls-6 {
        stroke: #000;
      }

      .cls-3, .cls-19, .cls-20, .cls-6 {
        font-family: KaiTi, KaiTi;
      }

      .cls-3, .cls-20, .cls-21, .cls-22 {
        font-size: 16px;
      }

      .cls-4 {
        stroke-width: .4px;
      }

      .cls-19, .cls-6, .cls-23 {
        font-size: 22px;
      }

      .cls-24 {
        clip-path: url(#clippath-1);
      }

      .cls-25 {
        clip-path: url(#clippath-4);
      }

      .cls-26 {
        letter-spacing: 0em;
      }

      .cls-21, .cls-27 {
        font-family: SimHei, SimHei;
      }

      .cls-6 {
        stroke-width: .88px;
      }

      .cls-28 {
        letter-spacing: 0em;
      }

      .cls-29 {
        clip-path: url(#clippath);
      }

      .cls-7 {
        stroke-width: .28px;
      }

      .cls-8 {
        stroke-linecap: round;
        stroke-linejoin: round;
        stroke-width: .14px;
      }

      .cls-11 {
        fill: #003592;
      }

      .cls-27 {
        font-size: 26px;
      }

      .cls-30 {
        clip-path: url(#clippath-3);
      }

      .cls-12 {
        fill: #083683;
      }

      .cls-31 {
        letter-spacing: .8em;
      }

      .cls-32 {
        letter-spacing: -.09em;
      }

      .cls-22, .cls-23 {
        font-family: TimesNewRomanPS-BoldMT, 'Times New Roman';
        font-weight: 700;
      }

      .cls-33 {
        letter-spacing: 2em;
      }
    </style>
    <clipPath id="clippath">
      <rect class="cls-5" x="24.63" y="0" width="356.6" height="67.38"/>
    </clipPath>
    <clipPath id="clippath-1">
      <rect class="cls-5" x="24.63" width="356.6" height="67.38"/>
    </clipPath>
    <clipPath id="clippath-2">
      <rect class="cls-5" x="24.63" width="356.6" height="67.38"/>
    </clipPath>
    <clipPath id="clippath-3">
      <rect class="cls-5" x="24.63" width="356.6" height="67.38"/>
    </clipPath>
    <clipPath id="clippath-4">
      <rect class="cls-5" x="24.63" width="356.6" height="67.38"/>
    </clipPath>
  </defs>
  <g class="cls-29">
    <g class="cls-24">
      <path class="cls-11" d="M100.41,23.1c-1.86-1.57-5.68-3.87-8.58-5.29l2.21-3.43c2.84,1.27,6.71,3.43,8.67,4.95l-2.3,3.77ZM103.69,29.47c-2.21,5.05-5,10.83-7.5,15.44l-3.38-3.23c2.21-3.63,5.39-9.8,7.89-15.29l2.99,3.09ZM101.98,9.67c-1.76-1.42-5.34-3.58-8.04-5l2.35-3.43c2.6,1.18,6.22,3.18,8.09,4.61l-2.4,3.82ZM125.3,28.24c2.7,4.56,7.01,8.87,11.32,11.17-.98.88-2.45,2.45-3.18,3.63-3.97-2.6-7.89-6.96-10.73-11.71v13.97h-4.61v-14.02c-3.04,5.1-7.35,9.41-12.06,11.91-.69-1.08-2.01-2.65-3.04-3.48,5-2.25,9.56-6.57,12.45-11.47h-9.65v-4.12h12.3v-5.1h4.61v5.1h12.4v4.12h-9.8ZM118.54,11.14c-2.4,4.17-6.37,8.28-9.95,10.88-.69-.83-2.25-2.4-3.23-3.14,3.53-2.16,7.01-5.59,9.02-9.07l4.17,1.32ZM110.01,12.41h-4.02V3.2h29.01v9.02h-4.17v-5.15h-20.83v5.34ZM125.3,9.42c3.33,2.94,7.4,7.15,9.26,10l-3.48,2.45c-1.72-2.79-5.69-7.15-9.07-10.29l3.28-2.16Z"/>
      <path class="cls-11" d="M158.04,33.24c-5.39,2.25-11.22,4.56-15.78,6.32l-1.47-4.7c1.86-.54,4.17-1.32,6.67-2.25v-15.73h-5.88v-4.46h5.88V1.29h4.56v11.12h5.68v4.46h-5.68v14.11c1.72-.64,3.43-1.23,5.19-1.91l.83,4.17ZM160.5,2.12h4.51v16.61c0,9.31-.59,18.77-5.98,26.37-1.03-.73-2.99-2.01-4.31-2.55,5.24-6.91,5.78-15.29,5.78-23.82V2.12ZM170,4.57h4.26v34.75h-4.26V4.57ZM184.02,45h-4.66V1.88h4.66v43.13Z"/>
      <path class="cls-11" d="M206.47,25.89c-1.86.54-3.72,1.08-5.59,1.62v12.89c0,2.35-.49,3.58-1.91,4.26-1.42.69-3.63.83-6.96.78-.2-1.08-.78-2.99-1.37-4.12,2.16.05,4.21.05,4.8,0,.73,0,.98-.25.98-.93v-11.61c-1.91.54-3.68,1.03-5.39,1.47l-1.18-4.36c1.86-.44,4.12-.98,6.57-1.57v-9.85h-6.03v-4.21h6.03V.65h4.46v9.56h5.15v4.26h-5.15v8.63l5.05-1.32.54,4.12ZM232.88,19.91c-1.96,6.76-5.24,12.11-9.56,16.22,3.38,2.55,7.4,4.46,12.06,5.69-1.03.88-2.3,2.7-2.94,3.87-4.95-1.42-9.12-3.63-12.69-6.62-3.92,2.94-8.48,5.1-13.38,6.52-.49-1.18-1.62-3.14-2.45-4.12,4.56-1.13,8.82-2.99,12.59-5.54-3.23-3.58-5.73-7.79-7.6-12.69l.64-.2h-1.96v-4.17h10.1v-6.71h-10.98v-4.17h10.98V.65h4.51v7.35h11.32v4.17h-11.32v6.71h6.96l.78-.15,2.94,1.18ZM213.38,23.05c1.57,3.82,3.72,7.2,6.57,10.09,3.04-2.79,5.49-6.17,7.15-10.09h-13.72Z"/>
      <path class="cls-11" d="M265.97,17.27c4.36,7.06,11.76,14.6,18.23,18.62-1.18.98-2.79,2.79-3.68,4.07-5.64-4.17-11.81-11.07-16.47-18.13v23.82h-5v-22c-4.56,6.96-10.59,13.04-16.91,16.66-.83-1.13-2.35-2.94-3.48-3.92,7.5-3.82,14.95-11.32,19.16-19.11h-17.49v-4.46h18.72V.7h5v12.1h18.28v4.46h-16.37ZM274.98,11.43c-1.76-2.06-5.49-5.15-8.38-7.3l3.38-2.79c2.79,2.01,6.66,4.95,8.53,6.91l-3.53,3.19Z"/>
      <path class="cls-11" d="M314.1,18.93c3.33,10.19,9.51,18.47,18.77,22.35-1.13.98-2.65,2.89-3.38,4.26-9.16-4.26-15.09-12.2-18.92-22.59-2.5,8.87-7.79,17.35-18.92,22.59-.73-1.23-2.21-2.84-3.48-3.82,11.66-5.1,16.42-13.92,18.38-22.79h-17.4v-4.7h18.23c.59-4.9.54-9.61.59-13.53h4.95c-.05,3.97-.1,8.67-.69,13.53h19.75v4.7h-17.89Z"/>
      <path class="cls-11" d="M381.14,32.31h-19.46v8.04c0,2.5-.64,3.77-2.65,4.41-2.01.69-4.9.74-9.16.74-.34-1.23-1.18-3.19-1.91-4.36,3.43.1,6.86.1,7.89.05.93-.05,1.18-.24,1.18-.93v-7.94h-18.97v-4.21h18.97v-3.33c2.45-.93,5.05-2.3,7.25-3.68h-17.84v-3.97h22.98l.93-.24,2.94,2.3c-3.09,2.79-7.35,5.44-11.61,7.4v1.52h19.46v4.21ZM343.16,18.64h-4.26v-10.05h7.74c-.88-1.76-2.4-3.97-3.87-5.73l3.87-1.76c1.76,2.01,3.72,4.7,4.56,6.52l-1.96.98h9.7c-.69-2.01-2.11-4.8-3.43-6.86l4.02-1.52c1.57,2.25,3.28,5.29,3.87,7.3l-2.7,1.08h7.25c1.72-2.25,3.58-5.34,4.61-7.64l4.66,1.57c-1.37,2.06-2.94,4.26-4.41,6.08h7.6v10.05h-4.51v-6.03h-32.74v6.03Z"/>
      <path class="cls-11" d="M93.02,65.89l1.08-1.11c.85.73,2,1.21,3.13,1.21,1.42,0,2.22-.58,2.22-1.44,0-.93-.8-1.22-1.88-1.64l-1.63-.61c-1.13-.42-2.39-1.19-2.39-2.68,0-1.61,1.63-2.82,3.86-2.82,1.37,0,2.66.5,3.56,1.29l-.97,1.03c-.73-.57-1.55-.92-2.58-.92-1.2,0-1.98.5-1.98,1.32,0,.87.94,1.21,1.9,1.54l1.61.6c1.39.51,2.39,1.26,2.39,2.76,0,1.64-1.56,2.97-4.13,2.97-1.61,0-3.11-.55-4.18-1.5"/>
      <polygon class="cls-11" points="103.55 56.99 105.41 56.99 105.41 61.15 110.43 61.15 110.43 56.99 112.28 56.99 112.28 67.2 110.43 67.2 110.43 62.56 105.41 62.56 105.41 67.2 103.55 67.2 103.55 56.99"/>
      <polygon class="cls-11" points="115.36 56.99 122.3 56.99 122.3 58.34 117.21 58.34 117.21 61.18 121.52 61.18 121.52 62.54 117.21 62.54 117.21 65.84 122.48 65.84 122.48 67.2 115.36 67.2 115.36 56.99"/>
      <path class="cls-11" d="M124.94,56.99h1.9l3.89,5.99,1.23,2.16h.08c-.1-1.05-.24-2.29-.24-3.4v-4.76h1.76v10.21h-1.9l-3.89-6.02-1.23-2.14h-.08c.1,1.05.24,2.23.24,3.34v4.81h-1.76v-10.21Z"/>
      <polygon class="cls-11" points="135.85 66.23 141.74 58.34 136.4 58.34 136.4 56.99 144.02 56.99 144.02 57.95 138.15 65.84 144.09 65.84 144.09 67.2 135.85 67.2 135.85 66.23"/>
      <polygon class="cls-11" points="146.34 56.99 148.19 56.99 148.19 61.15 153.22 61.15 153.22 56.99 155.07 56.99 155.07 67.2 153.22 67.2 153.22 62.56 148.19 62.56 148.19 67.2 146.34 67.2 146.34 56.99"/>
      <polygon class="cls-11" points="158.15 56.99 165.09 56.99 165.09 58.34 160 58.34 160 61.18 164.31 61.18 164.31 62.54 160 62.54 160 65.84 165.27 65.84 165.27 67.2 158.15 67.2 158.15 56.99"/>
      <path class="cls-11" d="M167.72,56.99h1.9l3.89,5.99,1.23,2.16h.08c-.1-1.05-.24-2.29-.24-3.4v-4.76h1.76v10.21h-1.9l-3.89-6.02-1.23-2.14h-.08c.1,1.05.24,2.23.24,3.34v4.81h-1.76v-10.21Z"/>
      <polygon class="cls-11" points="185.42 58.34 181.98 58.34 181.98 56.99 190.74 56.99 190.74 58.34 187.27 58.34 187.27 67.2 185.42 67.2 185.42 58.34"/>
      <polygon class="cls-11" points="192.76 56.99 199.7 56.99 199.7 58.34 194.61 58.34 194.61 61.18 198.92 61.18 198.92 62.54 194.61 62.54 194.61 65.84 199.88 65.84 199.88 67.2 192.76 67.2 192.76 56.99"/>
      <path class="cls-11" d="M201.7,62.13c0-3.33,2.33-5.33,5.3-5.33,1.47,0,2.62.61,3.34,1.29l-1.01,1.03c-.61-.54-1.34-.92-2.3-.92-2.03,0-3.43,1.47-3.43,3.87s1.31,3.91,3.38,3.91c1.07,0,1.9-.42,2.6-1.08l.99,1.01c-.94.94-2.14,1.47-3.65,1.47-2.95,0-5.22-1.91-5.22-5.26"/>
      <polygon class="cls-11" points="212.65 56.99 214.5 56.99 214.5 61.15 219.53 61.15 219.53 56.99 221.38 56.99 221.38 67.2 219.53 67.2 219.53 62.56 214.5 62.56 214.5 67.2 212.65 67.2 212.65 56.99"/>
      <path class="cls-11" d="M224.46,56.99h1.9l3.89,5.99,1.23,2.16h.08c-.1-1.05-.24-2.29-.24-3.4v-4.76h1.76v10.21h-1.9l-3.89-6.02-1.23-2.14h-.08c.1,1.05.24,2.23.24,3.34v4.81h-1.76v-10.21Z"/>
      <path class="cls-11" d="M235.53,62.06c0-3.29,2.09-5.26,5.11-5.26s5.12,1.97,5.12,5.26-2.11,5.33-5.12,5.33-5.11-2.04-5.11-5.33M243.86,62.06c0-2.4-1.28-3.86-3.22-3.86s-3.21,1.46-3.21,3.86,1.26,3.93,3.21,3.93,3.22-1.53,3.22-3.93"/>
      <polygon class="cls-11" points="248.2 56.99 250.06 56.99 250.06 65.84 255.02 65.84 255.02 67.2 248.2 67.2 248.2 56.99"/>
      <path class="cls-11" d="M255.93,62.06c0-3.29,2.09-5.26,5.11-5.26s5.12,1.97,5.12,5.26-2.11,5.33-5.12,5.33-5.11-2.04-5.11-5.33M264.26,62.06c0-2.4-1.28-3.86-3.22-3.86s-3.21,1.46-3.21,3.86,1.26,3.93,3.21,3.93,3.22-1.53,3.22-3.93"/>
      <path class="cls-11" d="M267.96,62.13c0-3.33,2.36-5.33,5.47-5.33,1.66,0,2.78.64,3.5,1.29l-1.01,1.03c-.57-.51-1.29-.92-2.43-.92-2.19,0-3.64,1.47-3.64,3.87s1.29,3.91,3.72,3.91c.72,0,1.44-.18,1.85-.5v-2.4h-2.33v-1.32h4v4.42c-.78.68-2.11,1.19-3.72,1.19-3.14,0-5.43-1.91-5.43-5.26"/>
      <path class="cls-11" d="M281.72,63.33l-3.53-6.34h1.98l1.36,2.71c.37.76.7,1.47,1.1,2.25h.06c.38-.78.77-1.48,1.12-2.25l1.37-2.71h1.93l-3.54,6.34v3.87h-1.85v-3.87Z"/>
      <path class="cls-11" d="M292.14,62.82v-5.83h1.85v5.94c0,2.3,1.05,3.05,2.52,3.05s2.57-.75,2.57-3.05v-5.94h1.79v5.83c0,3.33-1.76,4.56-4.36,4.56s-4.37-1.23-4.37-4.56"/>
      <path class="cls-11" d="M303.9,56.99h1.9l3.89,5.99,1.23,2.16h.08c-.1-1.05-.24-2.29-.24-3.4v-4.76h1.76v10.21h-1.9l-3.89-6.02-1.23-2.14h-.08c.1,1.05.24,2.23.24,3.34v4.81h-1.76v-10.21Z"/>
      <rect class="cls-11" x="315.61" y="56.99" width="1.85" height="10.21"/>
      <path class="cls-11" d="M318.97,56.99h1.96l1.74,5.29c.4,1.17.65,2.16,1.07,3.34h.08c.4-1.18.69-2.18,1.07-3.34l1.74-5.29h1.88l-3.67,10.21h-2.19l-3.69-10.21Z"/>
      <polygon class="cls-11" points="330.03 56.99 336.97 56.99 336.97 58.34 331.88 58.34 331.88 61.18 336.18 61.18 336.18 62.54 331.88 62.54 331.88 65.84 337.14 65.84 337.14 67.2 330.03 67.2 330.03 56.99"/>
      <path class="cls-11" d="M346.01,67.2l-2.66-4.12h-1.9v4.12h-1.85v-10.21h3.85c2.43,0,4.24.75,4.24,2.96,0,1.58-.97,2.53-2.46,2.93l2.87,4.33h-2.09ZM341.45,61.79h1.77c1.71,0,2.63-.61,2.63-1.85s-.93-1.66-2.63-1.66h-1.77v3.51Z"/>
      <path class="cls-11" d="M348.98,65.89l1.08-1.11c.85.73,2,1.21,3.13,1.21,1.42,0,2.22-.58,2.22-1.44,0-.93-.8-1.22-1.88-1.64l-1.63-.61c-1.13-.42-2.39-1.19-2.39-2.68,0-1.61,1.63-2.82,3.86-2.82,1.37,0,2.66.5,3.56,1.29l-.97,1.03c-.73-.57-1.55-.92-2.58-.92-1.2,0-1.98.5-1.98,1.32,0,.87.94,1.21,1.9,1.54l1.61.6c1.39.51,2.39,1.26,2.39,2.76,0,1.64-1.56,2.97-4.13,2.97-1.61,0-3.11-.55-4.18-1.5"/>
      <rect class="cls-11" x="359.52" y="56.99" width="1.85" height="10.21"/>
      <polygon class="cls-11" points="366.84 58.34 363.39 58.34 363.39 56.99 372.16 56.99 372.16 58.34 368.69 58.34 368.69 67.2 366.84 67.2 366.84 58.34"/>
      <path class="cls-11" d="M375.84,63.33l-3.53-6.34h1.98l1.36,2.71c.37.76.7,1.47,1.1,2.25h.06c.38-.78.77-1.48,1.12-2.25l1.37-2.71h1.93l-3.54,6.34v3.87h-1.85v-3.87Z"/>
      <polygon class="cls-12" points="24.68 0 81.43 0 81.38 46.41 53.05 66.99 24.63 46.41 24.68 0"/>
    </g>
    <text class="cls-13" transform="translate(27.58 11.68) scale(1.03 1)"><tspan x="0" y="0">深圳技术大学</tspan></text>
    <text class="cls-14" transform="translate(27.58 15.19) scale(1.03 1)"><tspan x="0" y="0">SHENZHEN TECHNOLOGY UNIVERSITY</tspan></text>
    <g class="cls-17">
      <line class="cls-2" x1="26.97" y1="16.73" x2="79.13" y2="16.73"/>
      <polygon class="cls-10" points="34.29 51.39 31.12 49.03 31.16 41.95 34.33 41.95 34.29 51.39"/>
      <polygon class="cls-10" points="42.43 57.38 39.24 55.05 39.28 41.95 42.48 41.95 42.43 57.38"/>
      <polygon class="cls-10" points="47.39 61.07 47.43 41.95 50.6 41.95 50.55 63.4 47.39 61.07"/>
      <polygon class="cls-10" points="58.7 61.07 55.53 63.4 55.58 41.95 58.75 41.95 58.7 61.07"/>
      <polygon class="cls-10" points="66.87 41.95 66.82 55.05 63.65 57.38 63.7 41.95 66.87 41.95"/>
      <polygon class="cls-10" points="71.8 51.39 71.85 41.95 75.01 41.95 74.97 49.03 71.8 51.39"/>
      <rect class="cls-10" x="44.96" y="33.6" width="7.27" height="6.58"/>
      <rect class="cls-10" x="36.01" y="33.6" width="7.24" height="6.58"/>
      <rect class="cls-10" x="27.02" y="33.6" width="7.27" height="6.58"/>
      <rect class="cls-10" x="53.95" y="33.6" width="7.27" height="6.58"/>
      <rect class="cls-10" x="62.9" y="33.6" width="7.27" height="6.58"/>
      <rect class="cls-10" x="71.89" y="33.6" width="7.27" height="6.58"/>
      <polygon class="cls-8" points="26.97 2.22 79.13 2.22 79.08 45.51 53.01 65.13 26.93 45.51 26.97 2.22"/>
    </g>
    <text class="cls-15" transform="translate(27.22 30.09) scale(1.33 1)"><tspan class="cls-18" x="0" y="0">S</tspan><tspan class="cls-26" x="7.38" y="0">Z</tspan><tspan class="cls-16" x="14.78" y="0">T</tspan><tspan class="cls-28" x="22.16" y="0">U</tspan></text>
    <g class="cls-30">
      <path class="cls-1" d="M33.98,26.27c.48.36.72.73.72,1.1,0,.72-.21,1.27-.64,1.64-.43.38-1.07.57-1.93.57-.81,0-1.52-.18-2.15-.54-.63-.36-1.12-1.01-1.47-1.95l-.45.11.6,2.78c.2-.11.38-.21.53-.28.15-.08.3-.11.45-.11.25,0,.6.06,1.06.17.4.15.86.23,1.36.23,1.21,0,2.13-.26,2.76-.79.63-.53.94-1.14.94-1.82,0-.64-.26-1.2-.79-1.68-.53-.47-1.4-.89-2.61-1.26-1.46-.49-2.36-.86-2.68-1.11-.33-.25-.49-.58-.49-.99,0-.45.18-.88.53-1.27.35-.4,1.01-.6,1.97-.6.76,0,1.37.14,1.85.43.48.28.94.82,1.4,1.61l.38-.11-.3-2.32c-.1.15-.22.26-.34.31-.13.06-.27.09-.42.09-.2,0-.53-.08-.98-.23-.45-.11-.93-.17-1.44-.17-1.16,0-2.05.26-2.68.77-.63.51-.94,1.05-.94,1.61,0,.72.25,1.25.76,1.59.5.34,1.44.74,2.8,1.19,1.01.34,1.75.69,2.23,1.05Z"/>
      <path class="cls-1" d="M39.28,29.52l6.65-9.35h-6.88l-.91,1.93.45.11c.4-.57.87-.99,1.4-1.27.53-.28,1.12-.42,1.78-.42h2.65l-6.65,9.35h7.26l.83-2.21-.45-.06c-.3.64-.69,1.12-1.17,1.45-.48.32-1.05.48-1.7.48h-3.25Z"/>
      <path class="cls-1" d="M53.68,29.52h-.68c-.2,0-.37-.04-.49-.11-.13-.08-.19-.19-.19-.34v-7.88c0-.34.02-.53.08-.57.05-.04.33-.06.83-.06.71,0,1.17.1,1.4.31.23.21.54.71.95,1.5l.38-.06-.6-2.15h-7.18l-.68,2.15.45.06c.4-.83.74-1.34,1.02-1.53.28-.19.77-.28,1.47-.28.35,0,.55.02.6.06.05.04.08.21.08.51v7.93c0,.15-.05.27-.15.34-.1.08-.28.11-.53.11h-.68v.34h3.93v-.34Z"/>
      <path class="cls-1" d="M60.04,29.13c-.43-.26-.64-.77-.64-1.53v-6.63c0-.15.06-.26.19-.34.13-.08.29-.11.49-.11h.38v-.34h-3.33v.34h.38c.25,0,.43.04.53.11.1.08.15.19.15.34v6.63c0,.83.34,1.44,1.02,1.81.68.38,1.47.57,2.38.57.86,0,1.63-.22,2.31-.65.68-.43,1.02-1.03,1.02-1.78v-6.57c0-.15.06-.26.19-.34.12-.08.29-.11.49-.11h.45v-.34h-2.72v.34h.45c.25,0,.43.04.53.11.1.08.15.19.15.34v6.57c0,.57-.27,1.04-.79,1.42-.53.38-1.17.57-1.93.57-.71,0-1.27-.13-1.7-.4Z"/>
    </g>
    <text class="cls-15" transform="translate(66.69 30.09) scale(1.33 1)"><tspan x="0" y="0"> </tspan></text>
    <g class="cls-25">
      <line class="cls-2" x1="26.97" y1="31.52" x2="79.13" y2="31.52"/>
      <polygon class="cls-9" points="24.68 0 81.43 0 81.38 46.41 53.05 66.99 24.63 46.41 24.68 0"/>
      <polygon class="cls-7" points="26.94 2.22 79.16 2.22 79.11 45.38 53.05 64.31 26.9 45.38 26.94 2.22"/>
      <path class="cls-10" d="M29.24,8.8c-.32-.28-1-.7-1.48-.97l.55-.9c.46.22,1.17.59,1.51.86l-.59,1.01ZM30.05,9.79c-.38.87-.82,1.76-1.26,2.59l-.92-.83c.38-.61.93-1.61,1.38-2.58l.8.83ZM29.48,6.42c-.31-.23-.96-.6-1.41-.83l.61-.93c.43.19,1.11.51,1.44.73l-.64,1.03ZM34.21,9.69c.44.58,1.07,1.12,1.69,1.46-.27.22-.66.64-.86.93-.54-.36-1.04-.89-1.46-1.5v1.77h-1.26v-1.82c-.48.67-1.09,1.23-1.78,1.6-.18-.27-.54-.69-.81-.9.77-.33,1.45-.9,1.94-1.55h-1.38v-1.07h2.02v-.78h1.26v.78h2.02v1.07h-1.39ZM32.75,6.56c-.43.72-1.14,1.47-1.78,1.92-.19-.22-.6-.63-.84-.83.39-.22.78-.55,1.1-.89h-.94v-1.81h5.32v1.76h-1.06c.4.4.78.82.99,1.15l-.94.63c-.29-.5-.98-1.26-1.55-1.79l.88-.55c.18.16.37.33.56.51v-.69h-3.12v.64c.1-.13.2-.26.28-.4l1.11.36Z"/>
      <path class="cls-10" d="M39.7,4.87h1.22v2.89c0,1.59-.09,3.32-.92,4.66-.29-.21-.85-.52-1.22-.65.28-.41.48-.84.61-1.28-.92.38-1.92.76-2.74,1.08l-.4-1.24c.31-.08.67-.2,1.08-.33v-2.26h-.92v-1.18h.92v-1.83h1.24v1.83h.87v1.18h-.87v1.84l.69-.24.2.9c.2-.79.23-1.64.23-2.49v-2.89ZM41.28,5.32h1.17v6h-1.17v-6ZM44.13,12.36h-1.27v-7.56h1.27v7.56Z"/>
      <path class="cls-10" d="M47.87,9.19c-.28.07-.56.14-.85.22v1.77c0,.55-.09.84-.42,1.02-.32.18-.77.21-1.38.21-.04-.31-.2-.79-.34-1.09.3,0,.65,0,.76,0,.13,0,.16-.04.16-.16v-1.47l-.72.17-.31-1.15c.3-.05.65-.12,1.03-.2v-1.27h-.92v-1.11h.92v-1.52h1.22v1.52h.78v1.11h-.78v1.01l.71-.16.14,1.1ZM52.71,7.94c-.31,1.17-.82,2.07-1.51,2.78.53.31,1.14.56,1.85.72-.26.24-.61.73-.78,1.03-.8-.22-1.47-.55-2.05-.96-.62.4-1.34.7-2.14.93-.13-.31-.43-.83-.66-1.08.71-.15,1.34-.38,1.88-.69-.44-.5-.8-1.11-1.1-1.79l.39-.11h-.54v-1.08h1.6v-.85h-1.74v-1.1h1.74v-1.12h1.22v1.12h1.84v1.1h-1.84v.85h.84l.2-.04.8.31ZM49.39,8.76c.22.45.5.85.85,1.22.37-.36.67-.75.9-1.22h-1.75Z"/>
      <path class="cls-10" d="M58.6,7.79c.71,1.04,1.83,2.11,2.9,2.76-.31.25-.77.74-.99,1.08-.88-.65-1.74-1.61-2.44-2.65v3.48h-1.37v-3.06c-.7.94-1.56,1.75-2.53,2.29-.22-.31-.65-.81-.94-1.07,1.28-.61,2.45-1.7,3.14-2.84h-2.76v-1.18h3.1v-1.99h1.37v1.99h1.51c-.28-.34-.89-.87-1.33-1.23l.92-.73c.43.33,1.08.83,1.39,1.16l-.95.8h1.5v1.18h-2.5Z"/>
      <path class="cls-10" d="M66.78,8c.55,1.5,1.54,2.7,3.1,3.29-.31.26-.72.79-.92,1.14-1.5-.67-2.43-1.77-3.09-3.23-.48,1.27-1.39,2.42-3.06,3.23-.2-.33-.57-.76-.94-1.03,1.86-.82,2.64-2.06,2.99-3.41h-2.82v-1.25h3.02c.06-.73.05-1.46.06-2.14h1.36c0,.69-.02,1.41-.09,2.14h3.27v1.25h-2.89Z"/>
      <path class="cls-10" d="M78.21,10.39h-3.23v.77c0,.59-.14.89-.6,1.06-.45.17-1.02.19-1.72.19-.08-.34-.31-.85-.49-1.16.48.03,1.15.03,1.32.02.17,0,.22-.03.22-.14v-.74h-3.16v-1.1h3.16v-.48c.22-.09.46-.21.67-.33h-2.26v-1.03h3.67l.26-.06.78.6c-.5.45-1.15.89-1.85,1.25v.05h3.23v1.1ZM71.77,7.81h-1.16v-1.92h1.25c-.14-.25-.34-.53-.52-.75l1.05-.45c.29.31.62.74.76,1.06l-.33.15h1.2c-.12-.31-.31-.68-.5-.97l1.1-.4c.26.35.54.83.65,1.16l-.55.21h.96c.26-.38.51-.85.66-1.22l1.29.36c-.21.3-.43.59-.65.86h1.15v1.92h-1.22v-.87h-5.15v.87Z"/>
      <path class="cls-10" d="M27.68,14.95l.27-.32c.14.12.33.2.48.2.18,0,.26-.06.26-.17,0-.11-.11-.15-.28-.22l-.25-.1c-.21-.08-.4-.25-.4-.53,0-.32.3-.58.72-.58.23,0,.47.09.65.25l-.24.29c-.13-.1-.25-.15-.41-.15-.15,0-.24.06-.24.16s.13.15.3.22l.25.1c.25.1.39.26.39.53,0,.32-.28.6-.76.6-.26,0-.54-.09-.74-.28"/>
      <polygon class="cls-10" points="29.51 13.27 29.98 13.27 29.98 14 30.64 14 30.64 13.27 31.11 13.27 31.11 15.2 30.64 15.2 30.64 14.4 29.98 14.4 29.98 15.2 29.51 15.2 29.51 13.27"/>
      <polygon class="cls-10" points="31.57 13.27 32.83 13.27 32.83 13.65 32.05 13.65 32.05 14.01 32.71 14.01 32.71 14.4 32.05 14.4 32.05 14.81 32.86 14.81 32.86 15.2 31.57 15.2 31.57 13.27"/>
      <path class="cls-10" d="M33.25,13.27h.49l.49.92.19.43h.01c-.03-.2-.06-.48-.06-.71v-.64h.45v1.92h-.49l-.49-.93-.19-.42h-.01c.02.22.06.48.06.71v.64h-.45v-1.92Z"/>
      <polygon class="cls-10" points="35.16 14.92 36.01 13.65 35.24 13.65 35.24 13.27 36.6 13.27 36.6 13.55 35.74 14.81 36.61 14.81 36.61 15.2 35.16 15.2 35.16 14.92"/>
      <polygon class="cls-10" points="36.93 13.27 37.41 13.27 37.41 14 38.06 14 38.06 13.27 38.53 13.27 38.53 15.2 38.06 15.2 38.06 14.4 37.41 14.4 37.41 15.2 36.93 15.2 36.93 13.27"/>
      <polygon class="cls-10" points="38.99 13.27 40.25 13.27 40.25 13.65 39.47 13.65 39.47 14.01 40.13 14.01 40.13 14.4 39.47 14.4 39.47 14.81 40.28 14.81 40.28 15.2 38.99 15.2 38.99 13.27"/>
      <path class="cls-10" d="M40.67,13.27h.49l.49.92.19.43h.01c-.03-.2-.06-.48-.06-.71v-.64h.45v1.92h-.49l-.49-.93-.19-.42h-.01c.02.22.06.48.06.71v.64h-.45v-1.92Z"/>
      <polygon class="cls-10" points="43.7 13.65 43.16 13.65 43.16 13.27 44.71 13.27 44.71 13.65 44.17 13.65 44.17 15.2 43.7 15.2 43.7 13.65"/>
      <polygon class="cls-10" points="45.02 13.27 46.28 13.27 46.28 13.65 45.49 13.65 45.49 14.01 46.16 14.01 46.16 14.4 45.49 14.4 45.49 14.81 46.3 14.81 46.3 15.2 45.02 15.2 45.02 13.27"/>
      <path class="cls-10" d="M46.6,14.24c0-.64.44-1.01.95-1.01.26,0,.47.12.6.25l-.25.3c-.1-.09-.2-.15-.34-.15-.26,0-.47.22-.47.6s.18.6.46.6c.16,0,.29-.08.38-.18l.25.29c-.17.19-.39.28-.65.28-.5,0-.93-.34-.93-.99"/>
      <polygon class="cls-10" points="48.47 13.27 48.95 13.27 48.95 14 49.6 14 49.6 13.27 50.07 13.27 50.07 15.2 49.6 15.2 49.6 14.4 48.95 14.4 48.95 15.2 48.47 15.2 48.47 13.27"/>
      <path class="cls-10" d="M50.53,13.27h.49l.49.92.19.43h.01c-.03-.2-.06-.48-.06-.71v-.64h.45v1.92h-.49l-.49-.93-.19-.42h-.01c.02.22.06.48.06.71v.64h-.45v-1.92Z"/>
      <path class="cls-10" d="M52.48,14.22c0-.63.37-.99.91-.99s.91.36.91.99-.37,1.01-.91,1.01-.91-.38-.91-1.01M53.81,14.22c0-.37-.16-.59-.42-.59s-.42.22-.42.59.16.61.42.61.42-.24.42-.61"/>
      <polygon class="cls-10" points="54.66 13.27 55.14 13.27 55.14 14.81 55.91 14.81 55.91 15.2 54.66 15.2 54.66 13.27"/>
      <path class="cls-10" d="M56.04,14.22c0-.63.37-.99.91-.99s.91.36.91.99-.37,1.01-.91,1.01-.91-.38-.91-1.01M57.38,14.22c0-.37-.16-.59-.42-.59s-.42.22-.42.59.16.61.42.61.42-.24.42-.61"/>
      <path class="cls-10" d="M58.14,14.24c0-.64.45-1.01.98-1.01.29,0,.5.12.63.25l-.25.3c-.1-.09-.2-.15-.37-.15-.29,0-.5.22-.5.6s.18.6.54.6c.07,0,.15-.02.19-.05v-.31h-.31v-.38h.74v.9c-.14.13-.38.24-.66.24-.55,0-.98-.34-.98-.99"/>
      <path class="cls-10" d="M60.52,14.51l-.6-1.24h.51l.17.43c.05.15.1.28.16.43h.01c.06-.15.11-.28.17-.43l.17-.43h.5l-.6,1.24v.68h-.47v-.68Z"/>
      <path class="cls-10" d="M62.4,14.29v-1.02h.47v1.07c0,.36.11.49.33.49s.34-.13.34-.49v-1.07h.46v1.02c0,.65-.27.94-.8.94s-.81-.29-.81-.94"/>
      <path class="cls-10" d="M64.44,13.27h.49l.49.92.19.43h.01c-.03-.2-.06-.48-.06-.71v-.64h.45v1.92h-.49l-.49-.93-.19-.42h-.01c.02.22.06.48.06.71v.64h-.45v-1.92Z"/>
      <rect class="cls-10" x="66.48" y="13.27" width=".48" height="1.92"/>
      <path class="cls-10" d="M67.15,13.27h.5l.23.88c.06.21.1.41.15.62h.01c.06-.21.1-.41.15-.62l.22-.88h.49l-.6,1.92h-.57l-.6-1.92Z"/>
      <polygon class="cls-10" points="69.12 13.27 70.38 13.27 70.38 13.65 69.6 13.65 69.6 14.01 70.26 14.01 70.26 14.4 69.6 14.4 69.6 14.81 70.41 14.81 70.41 15.2 69.12 15.2 69.12 13.27"/>
      <path class="cls-10" d="M71.87,15.2l-.37-.68h-.23v.68h-.48v-1.92h.73c.42,0,.78.14.78.6,0,.28-.14.46-.34.56l.44.76h-.53ZM71.28,14.15h.21c.23,0,.35-.1.35-.28s-.12-.24-.35-.24h-.21v.52Z"/>
      <path class="cls-10" d="M72.51,14.95l.27-.32c.14.12.33.2.48.2.18,0,.26-.06.26-.17,0-.11-.11-.15-.28-.22l-.25-.1c-.21-.08-.4-.25-.4-.53,0-.32.3-.58.72-.58.23,0,.47.09.65.25l-.24.29c-.13-.1-.25-.15-.41-.15-.15,0-.24.06-.24.16s.13.15.3.22l.25.1c.25.1.39.26.39.53,0,.32-.28.6-.76.6-.26,0-.54-.09-.74-.28"/>
      <rect class="cls-10" x="74.34" y="13.27" width=".48" height="1.92"/>
      <polygon class="cls-10" points="75.66 13.65 75.12 13.65 75.12 13.27 76.67 13.27 76.67 13.65 76.14 13.65 76.14 15.2 75.66 15.2 75.66 13.65"/>
      <path class="cls-10" d="M77.26,14.51l-.6-1.24h.51l.17.43c.05.15.1.28.16.43h.01c.06-.15.11-.28.17-.43l.17-.43h.5l-.6,1.24v.68h-.47v-.68Z"/>
      <line class="cls-2" x1="26.97" y1="16.73" x2="79.13" y2="16.73"/>
      <rect class="cls-10" x="44.96" y="33.42" width="7.27" height="6.58"/>
      <rect class="cls-10" x="36.01" y="33.42" width="7.24" height="6.58"/>
      <rect class="cls-10" x="27.02" y="33.42" width="7.27" height="6.58"/>
      <rect class="cls-10" x="53.95" y="33.42" width="7.27" height="6.58"/>
      <rect class="cls-10" x="62.9" y="33.42" width="7.27" height="6.58"/>
      <rect class="cls-10" x="71.89" y="33.42" width="7.27" height="6.58"/>
      <polygon class="cls-10" points="31.16 41.95 31.12 48.46 34.29 50.76 34.33 41.95 31.16 41.95"/>
      <polygon class="cls-10" points="39.28 41.95 39.24 54.37 42.43 56.7 42.48 41.95 39.28 41.95"/>
      <polygon class="cls-10" points="47.43 41.95 47.39 60.31 50.55 62.62 50.6 41.95 47.43 41.95"/>
      <polygon class="cls-10" points="55.58 41.95 55.53 62.57 58.7 60.26 58.75 41.95 55.58 41.95"/>
      <polygon class="cls-10" points="63.7 41.95 63.65 56.65 66.82 54.34 66.87 41.95 63.7 41.95"/>
      <polygon class="cls-10" points="71.85 41.95 71.8 50.71 74.97 48.4 75.01 41.95 71.85 41.95"/>
      <path class="cls-10" d="M27.78,28.42l1.95-1.78c1.03.65,2.36,1.1,3.5,1.1,1.28,0,1.88-.36,1.88-.94,0-.62-.79-.83-2.03-1.22l-1.84-.58c-1.51-.45-2.92-1.39-2.92-2.96,0-1.81,2.17-3.26,5.22-3.26,1.66,0,3.43.48,4.68,1.42l-1.72,1.62c-.95-.54-1.84-.83-2.96-.83-1.06,0-1.72.32-1.72.9s.91.83,2.19,1.2l1.8.54c1.78.54,2.84,1.44,2.84,2.96,0,1.8-2.01,3.38-5.5,3.38-1.88,0-3.89-.52-5.38-1.55"/>
      <polygon class="cls-10" points="40.33 28.2 46.55 21.12 40.93 21.12 40.93 18.98 50.8 18.98 50.8 20.53 44.59 27.59 50.86 27.59 50.86 29.77 40.33 29.77 40.33 28.2"/>
      <polygon class="cls-10" points="56.2 21.12 52.31 21.12 52.31 18.98 63.57 18.98 63.57 21.12 59.67 21.12 59.67 29.77 56.2 29.77 56.2 21.12"/>
      <path class="cls-10" d="M65.92,24.69v-5.72h3.44v5.99c0,2.05.81,2.77,2.4,2.77s2.44-.73,2.44-2.77v-5.99h3.33v5.72c0,3.64-1.94,5.28-5.77,5.28s-5.84-1.64-5.84-5.28"/>
      <line class="cls-2" x1="26.97" y1="31.52" x2="79.13" y2="31.52"/>
    </g>
  </g>
  <text class="cls-27" transform="translate(28.75 140.09)"><tspan class="cls-31" x="0" y="0">本科毕业论</tspan><tspan x="234" y="0">文（设计）</tspan></text>
  <text class="cls-19" transform="translate(.44 230.61)"><tspan x="0" y="0">深</tspan></text>
  <text class="cls-6" transform="translate(.44 230.61)"><tspan x="0" y="0">深</tspan></text>
  <text class="cls-19" transform="translate(22.44 230.61)"><tspan x="0" y="0">圳</tspan></text>
  <text class="cls-6" transform="translate(22.44 230.61)"><tspan x="0" y="0">圳</tspan></text>
  <text class="cls-19" transform="translate(44.44 230.61)"><tspan x="0" y="0">技</tspan></text>
  <text class="cls-6" transform="translate(44.44 230.61)"><tspan x="0" y="0">技</tspan></text>
  <text class="cls-19" transform="translate(66.44 230.61)"><tspan x="0" y="0">术</tspan></text>
  <text class="cls-6" transform="translate(66.44 230.61)"><tspan x="0" y="0">术</tspan></text>
  <text class="cls-19" transform="translate(88.44 230.61)"><tspan x="0" y="0">大</tspan></text>
  <text class="cls-6" transform="translate(88.44 230.61)"><tspan x="0" y="0">大</tspan></text>
  <text class="cls-19" transform="translate(110.44 230.61)"><tspan x="0" y="0">学</tspan></text>
  <text class="cls-6" transform="translate(110.44 230.61)"><tspan x="0" y="0">学</tspan></text>
  <text class="cls-19" transform="translate(132.44 230.61)"><tspan x="0" y="0">本</tspan></text>
  <text class="cls-6" transform="translate(132.44 230.61)"><tspan x="0" y="0">本</tspan></text>
  <text class="cls-19" transform="translate(154.44 230.61)"><tspan x="0" y="0">科</tspan></text>
  <text class="cls-6" transform="translate(154.44 230.61)"><tspan x="0" y="0">科</tspan></text>
  <text class="cls-19" transform="translate(176.44 230.61)"><tspan x="0" y="0">学</tspan></text>
  <text class="cls-6" transform="translate(176.44 230.61)"><tspan x="0" y="0">学</tspan></text>
  <text class="cls-19" transform="translate(198.44 230.61)"><tspan x="0" y="0">位</tspan></text>
  <text class="cls-6" transform="translate(198.44 230.61)"><tspan x="0" y="0">位</tspan></text>
  <text class="cls-19" transform="translate(220.44 230.61)"><tspan x="0" y="0">论</tspan></text>
  <text class="cls-6" transform="translate(220.44 230.61)"><tspan x="0" y="0">论</tspan></text>
  <text class="cls-19" transform="translate(242.44 230.61)"><tspan x="0" y="0">文</tspan></text>
  <text class="cls-6" transform="translate(242.44 230.61)"><tspan x="0" y="0">文</tspan></text>
  <text class="cls-23" transform="translate(269.94 230.61)"><tspan x="0" y="0">La</tspan><tspan class="cls-32" x="25.67" y="0">T</tspan><tspan x="38.37" y="0">eX</tspan></text>
  <text class="cls-19" transform="translate(339.42 230.61)"><tspan x="0" y="0">模</tspan></text>
  <text class="cls-6" transform="translate(339.42 230.61)"><tspan x="0" y="0">模</tspan></text>
  <text class="cls-19" transform="translate(361.42 230.61)"><tspan x="0" y="0">板</tspan></text>
  <text class="cls-6" transform="translate(361.42 230.61)"><tspan x="0" y="0">板</tspan></text>
  <text class="cls-19" transform="translate(383.42 230.61)"><tspan x="0" y="0">标</tspan></text>
  <text class="cls-6" transform="translate(383.42 230.61)"><tspan x="0" y="0">标</tspan></text>
  <text class="cls-19" transform="translate(92.93 270.21)"><tspan x="0" y="0">题</tspan></text>
  <text class="cls-6" transform="translate(92.93 270.21)"><tspan x="0" y="0">题</tspan></text>
  <text class="cls-19" transform="translate(114.93 270.21)"><tspan x="0" y="0">可</tspan></text>
  <text class="cls-6" transform="translate(114.93 270.21)"><tspan x="0" y="0">可</tspan></text>
  <text class="cls-19" transform="translate(136.93 270.21)"><tspan x="0" y="0">能</tspan></text>
  <text class="cls-6" transform="translate(136.93 270.21)"><tspan x="0" y="0">能</tspan></text>
  <text class="cls-19" transform="translate(158.93 270.21)"><tspan x="0" y="0">很</tspan></text>
  <text class="cls-6" transform="translate(158.93 270.21)"><tspan x="0" y="0">很</tspan></text>
  <text class="cls-19" transform="translate(180.93 270.21)"><tspan x="0" y="0">长</tspan></text>
  <text class="cls-6" transform="translate(180.93 270.21)"><tspan x="0" y="0">长</tspan></text>
  <text class="cls-19" transform="translate(202.93 270.21)"><tspan x="0" y="0">则</tspan></text>
  <text class="cls-6" transform="translate(202.93 270.21)"><tspan x="0" y="0">则</tspan></text>
  <text class="cls-19" transform="translate(224.93 270.21)"><tspan x="0" y="0">两</tspan></text>
  <text class="cls-6" transform="translate(224.93 270.21)"><tspan x="0" y="0">两</tspan></text>
  <text class="cls-19" transform="translate(246.93 270.21)"><tspan x="0" y="0">行</tspan></text>
  <text class="cls-6" transform="translate(246.93 270.21)"><tspan x="0" y="0">行</tspan></text>
  <text class="cls-19" transform="translate(268.93 270.21)"><tspan x="0" y="0">呈</tspan></text>
  <text class="cls-6" transform="translate(268.93 270.21)"><tspan x="0" y="0">呈</tspan></text>
  <text class="cls-19" transform="translate(290.93 270.21)"><tspan x="0" y="0">现</tspan></text>
  <text class="cls-6" transform="translate(290.93 270.21)"><tspan x="0" y="0">现</tspan></text>
  <text class="cls-21" transform="translate(42.95 398.42)"><tspan class="cls-33" x="0" y="0">姓</tspan><tspan x="48" y="0">名：</tspan></text>
  <line class="cls-4" x1="134.67" y1="402.08" x2="223.03" y2="402.08"/>
  <line class="cls-4" x1="222.55" y1="402.08" x2="271.03" y2="402.08"/>
  <text class="cls-20" transform="translate(222.79 398.42)"><tspan x="0" y="0">郭</tspan></text>
  <text class="cls-3" transform="translate(222.79 398.42)"><tspan x="0" y="0">郭</tspan></text>
  <text class="cls-20" transform="translate(238.79 398.42)"><tspan x="0" y="0">大</tspan></text>
  <text class="cls-3" transform="translate(238.79 398.42)"><tspan x="0" y="0">大</tspan></text>
  <text class="cls-20" transform="translate(254.79 398.42)"><tspan x="0" y="0">侠</tspan></text>
  <text class="cls-3" transform="translate(254.79 398.42)"><tspan x="0" y="0">侠</tspan></text>
  <line class="cls-4" x1="270.55" y1="402.08" x2="358.91" y2="402.08"/>
  <text class="cls-21" transform="translate(42.95 438.17)"><tspan class="cls-33" x="0" y="0">学</tspan><tspan x="48" y="0">院：</tspan></text>
  <line class="cls-4" x1="134.67" y1="441.82" x2="175.03" y2="441.82"/>
  <line class="cls-4" x1="174.55" y1="441.82" x2="319.03" y2="441.82"/>
  <text class="cls-20" transform="translate(174.79 438.17)"><tspan x="0" y="0">大</tspan></text>
  <text class="cls-3" transform="translate(174.79 438.17)"><tspan x="0" y="0">大</tspan></text>
  <text class="cls-20" transform="translate(190.79 438.17)"><tspan x="0" y="0">数</tspan></text>
  <text class="cls-3" transform="translate(190.79 438.17)"><tspan x="0" y="0">数</tspan></text>
  <text class="cls-20" transform="translate(206.79 438.17)"><tspan x="0" y="0">据</tspan></text>
  <text class="cls-3" transform="translate(206.79 438.17)"><tspan x="0" y="0">据</tspan></text>
  <text class="cls-20" transform="translate(222.79 438.17)"><tspan x="0" y="0">与</tspan></text>
  <text class="cls-3" transform="translate(222.79 438.17)"><tspan x="0" y="0">与</tspan></text>
  <text class="cls-20" transform="translate(238.79 438.17)"><tspan x="0" y="0">互</tspan></text>
  <text class="cls-3" transform="translate(238.79 438.17)"><tspan x="0" y="0">互</tspan></text>
  <text class="cls-20" transform="translate(254.79 438.17)"><tspan x="0" y="0">联</tspan></text>
  <text class="cls-3" transform="translate(254.79 438.17)"><tspan x="0" y="0">联</tspan></text>
  <text class="cls-20" transform="translate(270.79 438.17)"><tspan x="0" y="0">网</tspan></text>
  <text class="cls-3" transform="translate(270.79 438.17)"><tspan x="0" y="0">网</tspan></text>
  <text class="cls-20" transform="translate(286.79 438.17)"><tspan x="0" y="0">学</tspan></text>
  <text class="cls-3" transform="translate(286.79 438.17)"><tspan x="0" y="0">学</tspan></text>
  <text class="cls-20" transform="translate(302.79 438.17)"><tspan x="0" y="0">院</tspan></text>
  <text class="cls-3" transform="translate(302.79 438.17)"><tspan x="0" y="0">院</tspan></text>
  <line class="cls-4" x1="318.55" y1="441.82" x2="358.91" y2="441.82"/>
  <text class="cls-21" transform="translate(42.95 477.91)"><tspan class="cls-33" x="0" y="0">专</tspan><tspan x="48" y="0">业：</tspan></text>
  <line class="cls-4" x1="134.67" y1="481.56" x2="207.03" y2="481.56"/>
  <line class="cls-4" x1="206.55" y1="481.56" x2="287.03" y2="481.56"/>
  <text class="cls-20" transform="translate(206.79 477.91)"><tspan x="0" y="0">物</tspan></text>
  <text class="cls-3" transform="translate(206.79 477.91)"><tspan x="0" y="0">物</tspan></text>
  <text class="cls-20" transform="translate(222.79 477.91)"><tspan x="0" y="0">联</tspan></text>
  <text class="cls-3" transform="translate(222.79 477.91)"><tspan x="0" y="0">联</tspan></text>
  <text class="cls-20" transform="translate(238.79 477.91)"><tspan x="0" y="0">网</tspan></text>
  <text class="cls-3" transform="translate(238.79 477.91)"><tspan x="0" y="0">网</tspan></text>
  <text class="cls-20" transform="translate(254.79 477.91)"><tspan x="0" y="0">工</tspan></text>
  <text class="cls-3" transform="translate(254.79 477.91)"><tspan x="0" y="0">工</tspan></text>
  <text class="cls-20" transform="translate(270.79 477.91)"><tspan x="0" y="0">程</tspan></text>
  <text class="cls-3" transform="translate(270.79 477.91)"><tspan x="0" y="0">程</tspan></text>
  <line class="cls-4" x1="286.55" y1="481.56" x2="358.91" y2="481.56"/>
  <text class="cls-21" transform="translate(42.95 517.66)"><tspan class="cls-33" x="0" y="0">学</tspan><tspan x="48" y="0">号：</tspan></text>
  <line class="cls-4" x1="134.67" y1="521.31" x2="211.03" y2="521.31"/>
  <line class="cls-4" x1="210.55" y1="521.31" x2="283.03" y2="521.31"/>
  <text class="cls-22" transform="translate(210.79 517.66)"><tspan x="0" y="0">123456789</tspan></text>
  <line class="cls-4" x1="282.55" y1="521.31" x2="358.91" y2="521.31"/>
  <text class="cls-21" transform="translate(42.95 557.4)"><tspan x="0" y="0">指导教师：</tspan></text>
  <line class="cls-4" x1="134.67" y1="561.05" x2="223.03" y2="561.05"/>
  <line class="cls-4" x1="222.55" y1="561.05" x2="271.03" y2="561.05"/>
  <text class="cls-20" transform="translate(222.79 557.4)"><tspan x="0" y="0">我</tspan></text>
  <text class="cls-3" transform="translate(222.79 557.4)"><tspan x="0" y="0">我</tspan></text>
  <text class="cls-20" transform="translate(238.79 557.4)"><tspan x="0" y="0">自</tspan></text>
  <text class="cls-3" transform="translate(238.79 557.4)"><tspan x="0" y="0">自</tspan></text>
  <text class="cls-20" transform="translate(254.79 557.4)"><tspan x="0" y="0">己</tspan></text>
  <text class="cls-3" transform="translate(254.79 557.4)"><tspan x="0" y="0">己</tspan></text>
  <line class="cls-4" x1="270.55" y1="561.05" x2="358.91" y2="561.05"/>
  <text class="cls-21" transform="translate(42.95 597.14)"><tspan class="cls-33" x="0" y="0">职</tspan><tspan x="48" y="0">称：</tspan></text>
  <line class="cls-4" x1="134.67" y1="600.8" x2="215.03" y2="600.8"/>
  <line class="cls-4" x1="214.55" y1="600.8" x2="279.03" y2="600.8"/>
  <text class="cls-20" transform="translate(214.79 597.14)"><tspan x="0" y="0">助</tspan></text>
  <text class="cls-3" transform="translate(214.79 597.14)"><tspan x="0" y="0">助</tspan></text>
  <text class="cls-20" transform="translate(230.79 597.14)"><tspan x="0" y="0">理</tspan></text>
  <text class="cls-3" transform="translate(230.79 597.14)"><tspan x="0" y="0">理</tspan></text>
  <text class="cls-20" transform="translate(246.79 597.14)"><tspan x="0" y="0">教</tspan></text>
  <text class="cls-3" transform="translate(246.79 597.14)"><tspan x="0" y="0">教</tspan></text>
  <text class="cls-20" transform="translate(262.79 597.14)"><tspan x="0" y="0">授</tspan></text>
  <text class="cls-3" transform="translate(262.79 597.14)"><tspan x="0" y="0">授</tspan></text>
  <line class="cls-4" x1="278.55" y1="600.8" x2="358.91" y2="600.8"/>
  <text class="cls-21" transform="translate(42.95 636.89)"><tspan x="0" y="0">提交日期：</tspan></text>
  <line class="cls-4" x1="134.67" y1="640.54" x2="189.03" y2="640.54"/>
  <line class="cls-4" x1="188.55" y1="640.54" x2="305.03" y2="640.54"/>
  <text class="cls-22" transform="translate(188.79 636.89)"><tspan x="0" y="0">2023</tspan></text>
  <text class="cls-20" transform="translate(224.79 636.89)"><tspan x="0" y="0">年</tspan></text>
  <text class="cls-3" transform="translate(224.79 636.89)"><tspan x="0" y="0">年</tspan></text>
  <text class="cls-22" transform="translate(244.79 636.89)"><tspan x="0" y="0">5</tspan></text>
  <text class="cls-20" transform="translate(256.79 636.89)"><tspan x="0" y="0">月</tspan></text>
  <text class="cls-3" transform="translate(256.79 636.89)"><tspan x="0" y="0">月</tspan></text>
  <text class="cls-22" transform="translate(276.79 636.89)"><tspan x="0" y="0">1</tspan></text>
  <text class="cls-20" transform="translate(288.79 636.89)"><tspan x="0" y="0">日</tspan></text>
  <text class="cls-3" transform="translate(288.79 636.89)"><tspan x="0" y="0">日</tspan></text>
  <line class="cls-4" x1="304.55" y1="640.54" x2="358.91" y2="640.54"/>
</svg>