<svg xmlns="http://www.w3.org/2000/svg" xmlns:xlink="http://www.w3.org/1999/xlink" version="1.1" width="595.28pt" height="841.89pt" viewBox="0 0 595.28 841.89">
<defs>
<clipPath id="clip_0">
<path transform="matrix(.66994,0,0,-.66994,119.33695,141.87439)" d="M0 0H532.293V100.582H0Z"/>
</clipPath>
<clipPath id="clip_1">
<path transform="matrix(.66994,0,0,-.66994,119.33695,141.87439)" d="M0 100.582H532.293V0H0Z"/>
</clipPath>
<clipPath id="clip_2">
<path transform="matrix(.66994,0,0,-.66994,119.33695,141.87439)" d="M0 100.582H532.293V0H0Z"/>
</clipPath>
<clipPath id="clip_3">
<path transform="matrix(.66994,0,0,-.66994,119.33695,141.87439)" d="M0 100.582H532.293V0H0Z"/>
</clipPath>
<clipPath id="clip_4">
<path transform="matrix(.66994,0,0,-.66994,119.33695,141.87439)" d="M0 100.582H532.293V0H0Z"/>
</clipPath>
</defs>
<g clip-path="url(#clip_0)">
<g clip-path="url(#clip_1)">
<path transform="matrix(.66994,0,0,-.66994,220.0095,83.915409)" d="M0 0C4.975-4.389 11.046-10.68 13.826-14.923L8.632-18.58C6.072-14.41 .146-7.9-4.9-3.219ZM-22.822-4.462H-28.821V9.29H14.484V-4.17H8.267V3.512H-22.822ZM-10.095-2.561C-13.679-8.778-19.604-14.923-24.944-18.8-25.968-17.556-28.309-15.215-29.772-14.118-24.505-10.899-19.312-5.778-16.312-.585ZM0-28.09C4.023-34.893 10.461-41.33 16.898-44.768 15.436-46.085 13.24-48.426 12.144-50.182 6.218-46.305 .366-39.794-3.877-32.698V-53.546H-10.753V-32.625C-15.288-40.232-21.726-46.67-28.748-50.4-29.772-48.791-31.747-46.45-33.283-45.207-25.822-41.842-19.019-35.404-14.703-28.09H-29.113V-21.945H-10.753V-14.338H-3.877V-21.945H14.631V-28.09ZM-34.819-.365C-37.453 1.756-42.793 4.975-46.816 7.096L-43.305 12.216C-39.428 10.461-34.015 7.462-31.235 5.34ZM-32.259-29.919C-35.551-37.453-39.721-46.085-43.451-52.961L-48.499-48.133C-45.207-42.72-40.452-33.503-36.722-25.31ZM-37.16-20.409C-39.94-18.068-45.645-14.63-49.962-12.509L-46.67-7.388C-42.427-9.29-36.648-12.509-33.722-14.776Z" fill="#003592"/>
<path transform="matrix(.66994,0,0,-.66994,119.33695,141.87439)" d="M237.914 33.406H230.965V97.779H237.914ZM216.993 93.756H223.356V41.892H216.993ZM202.801 97.413H209.531V72.615C209.531 58.717 208.653 44.599 200.607 33.26 199.071 34.357 196.144 36.26 194.169 37.064 201.997 47.378 202.801 59.887 202.801 72.615ZM199.143 50.963C191.097 47.598 182.392 44.159 175.589 41.526L173.394 48.549C176.174 49.354 179.612 50.523 183.343 51.913V75.395H174.565V82.052H183.343V98.657H190.146V82.052H198.631V75.395H190.146V54.327C192.706 55.278 195.266 56.156 197.9 57.181Z" fill="#003592"/>
<path transform="matrix(.66994,0,0,-.66994,308.08439,97.53931)" d="M0 0C2.341-5.705 5.56-10.753 9.803-15.068 14.338-10.899 17.995-5.852 20.482 0ZM29.114 4.682C26.188-5.413 21.287-13.387 14.85-19.531 19.897-23.335 25.896-26.187 32.845-28.017 31.309-29.333 29.407-32.04 28.456-33.795 21.067-31.674 14.85-28.382 9.51-23.92 3.658-28.31-3.146-31.527-10.46-33.649-11.191-31.894-12.874-28.968-14.118-27.505-7.314-25.822-.95-23.042 4.682-19.238-.146-13.898-3.877-7.607-6.656-.292L-5.705 0H-8.632V6.218H6.437V16.239H-9.948V22.457H6.437V33.43H13.167V22.457H30.065V16.239H13.167V6.218H23.555L24.726 6.437ZM-10.313-4.242C-13.094-5.047-15.873-5.852-18.653-6.656V-25.896C-18.653-29.406-19.385-31.235-21.506-32.259-23.627-33.283-26.919-33.503-31.894-33.43-32.186-31.82-33.063-28.968-33.941-27.285-30.723-27.358-27.65-27.358-26.772-27.285-25.676-27.285-25.31-26.919-25.31-25.896V-8.559C-28.163-9.363-30.796-10.095-33.356-10.753L-35.112-4.242C-32.332-3.584-28.968-2.779-25.31-1.901V12.802H-34.308V19.093H-25.31V33.43H-18.653V19.166H-10.973V12.802H-18.653V-.073L-11.118 1.902Z" fill="#003592"/>
<path transform="matrix(.66994,0,0,-.66994,369.6907,85.92462)" d="M0 0C-2.633 3.072-8.192 7.681-12.509 10.899L-7.461 15.069C-3.292 12.069 2.487 7.681 5.268 4.755ZM-13.459-8.705C-6.949-19.238 4.097-30.504 13.753-36.502 11.997-37.965 9.583-40.672 8.267-42.573-.146-36.355-9.363-26.042-16.312-15.508V-51.06H-23.773V-18.215C-30.577-28.602-39.574-37.673-49.011-43.086-50.254-41.403-52.521-38.696-54.204-37.233-43.013-31.528-31.894-20.336-25.603-8.705H-51.717V-2.048H-23.773V16.02H-16.312V-2.048H10.973V-8.705Z" fill="#003592"/>
<path transform="matrix(.66994,0,0,-.66994,408.803,93.42279)" d="M0 0C4.975-15.215 14.191-27.577 28.017-33.356 26.334-34.819 24.066-37.672 22.97-39.721 9.29-33.356 .439-21.506-5.267-5.998-8.997-19.238-16.897-31.894-33.503-39.721-34.6-37.892-36.795-35.478-38.696-34.015-21.287-26.407-14.191-13.24-11.265 0H-37.233V7.022H-10.021C-9.144 14.338-9.217 21.36-9.144 27.212H-1.756C-1.828 21.287-1.901 14.265-2.779 7.022H26.7V0Z" fill="#003592"/>
<path transform="matrix(.66994,0,0,-.66994,437.8688,93.12842)" d="M0 0H-6.363V14.996H5.194C3.877 17.629 1.609 20.921-.585 23.555L5.194 26.187C7.827 23.188 10.754 19.165 11.997 16.459L9.071 14.996H23.555C22.53 17.995 20.409 22.164 18.435 25.236L24.433 27.504C26.773 24.14 29.334 19.604 30.212 16.604L26.188 14.996H37.015C39.575 18.36 42.354 22.969 43.891 26.407L50.84 24.066C48.792 20.994 46.451 17.702 44.257 14.996H55.595V0H48.865V8.997H0ZM56.692-20.409H27.651V-32.406C27.651-36.137 26.7-38.039 23.701-38.989 20.702-40.014 16.386-40.087 10.021-40.087 9.51-38.258 8.267-35.332 7.169-33.576 12.29-33.723 17.41-33.723 18.946-33.649 20.336-33.576 20.702-33.284 20.702-32.26V-20.409H-7.607V-14.118H20.702V-9.145C24.359-7.754 28.236-5.706 31.528-3.658H4.901V2.268H39.209L40.599 2.633 44.988-.805C40.38-4.975 34.016-8.925 27.651-11.851V-14.118H56.692Z" fill="#003592"/>
<path transform="matrix(.66994,0,0,-.66994,187.72806,140.3762)" d="M0 0 1.619 1.657C2.882 .56 4.597-.145 6.288-.145 8.407-.145 9.599 .725 9.599 2.009 9.599 3.396 8.407 3.831 6.788 4.452L4.358 5.363C2.667 5.984 .785 7.144 .785 9.359 .785 11.762 3.215 13.563 6.55 13.563 8.599 13.563 10.527 12.817 11.861 11.637L10.408 10.104C9.313 10.954 8.098 11.472 6.55 11.472 4.764 11.472 3.597 10.727 3.597 9.505 3.597 8.2 5.002 7.703 6.431 7.206L8.837 6.315C10.908 5.55 12.409 4.432 12.409 2.195 12.409-.248 10.075-2.236 6.24-2.236 3.834-2.236 1.596-1.408 0 0" fill="#003592"/>
<path transform="matrix(.66994,0,0,-.66994,198.26064,131.48375)" d="M0 0H2.763V-6.212H10.266V0H13.029V-15.24H10.266V-8.304H2.763V-15.24H0Z" fill="#003592"/>
<path transform="matrix(.66994,0,0,-.66994,210.06961,131.48375)" d="M0 0H10.361V-2.009H2.763V-6.254H9.194V-8.283H2.763V-13.211H10.623V-15.24H0Z" fill="#003592"/>
<path transform="matrix(.66994,0,0,-.66994,219.64505,131.48375)" d="M0 0H2.834L8.646-8.945 10.48-12.176H10.6C10.456-10.602 10.242-8.759 10.242-7.103V0H12.862V-15.24H10.027L4.216-6.254 2.382-3.065H2.263C2.405-4.639 2.62-6.398 2.62-8.056V-15.24H0Z" fill="#003592"/>
<path transform="matrix(.66994,0,0,-.66994,230.5604,140.7229)" d="M0 0 8.789 11.782H.811V13.791H12.195V12.361L3.431 .58H12.291V-1.449H0Z" fill="#003592"/>
<path transform="matrix(.66994,0,0,-.66994,241.04582,131.48375)" d="M0 0H2.763V-6.212H10.266V0H13.029V-15.24H10.266V-8.304H2.763V-15.24H0Z" fill="#003592"/>
<path transform="matrix(.66994,0,0,-.66994,252.85553,131.48375)" d="M0 0H10.361V-2.009H2.763V-6.254H9.194V-8.283H2.763V-13.211H10.623V-15.24H0Z" fill="#003592"/>
<path transform="matrix(.66994,0,0,-.66994,262.4303,131.48375)" d="M0 0H2.834L8.646-8.945 10.48-12.176H10.6C10.456-10.602 10.242-8.759 10.242-7.103V0H12.862V-15.24H10.027L4.216-6.254 2.382-3.065H2.263C2.405-4.639 2.62-6.398 2.62-8.056V-15.24H0Z" fill="#003592"/>
<path transform="matrix(.66994,0,0,-.66994,280.1281,132.82953)" d="M0 0H-5.145V2.009H7.933V0H2.764V-13.231H0Z" fill="#003592"/>
<path transform="matrix(.66994,0,0,-.66994,287.4693,131.48375)" d="M0 0H10.361V-2.009H2.763V-6.254H9.194V-8.283H2.763V-13.211H10.623V-15.24H0Z" fill="#003592"/>
<path transform="matrix(.66994,0,0,-.66994,296.40617,136.6169)" d="M0 0C0 4.97 3.478 7.951 7.908 7.951 10.1 7.951 11.814 7.04 12.887 6.025L11.386 4.493C10.48 5.301 9.385 5.86 7.956 5.86 4.931 5.86 2.835 3.665 2.835 .083 2.835-3.54 4.788-5.756 7.885-5.756 9.48-5.756 10.719-5.135 11.767-4.141L13.243-5.652C11.838-7.061 10.052-7.848 7.789-7.848 3.383-7.848 0-4.99 0 0" fill="#003592"/>
<path transform="matrix(.66994,0,0,-.66994,307.3542,131.48375)" d="M0 0H2.763V-6.212H10.266V0H13.029V-15.24H10.266V-8.304H2.763V-15.24H0Z" fill="#003592"/>
<path transform="matrix(.66994,0,0,-.66994,319.16383,131.48375)" d="M0 0H2.834L8.646-8.945 10.48-12.176H10.6C10.456-10.602 10.242-8.759 10.242-7.103V0H12.862V-15.24H10.027L4.216-6.254 2.382-3.065H2.263C2.405-4.639 2.62-6.398 2.62-8.056V-15.24H0Z" fill="#003592"/>
<path transform="matrix(.66994,0,0,-.66994,338.56858,136.54756)" d="M0 0C0 3.582-1.905 5.757-4.812 5.757-7.717 5.757-9.599 3.582-9.599 0-9.599-3.582-7.717-5.859-4.812-5.859-1.905-5.859 0-3.582 0 0M-12.434 0C-12.434 4.908-9.313 7.848-4.812 7.848-.31 7.848 2.835 4.908 2.835 0 2.835-4.907-.31-7.951-4.812-7.951-9.313-7.951-12.434-4.907-12.434 0" fill="#003592"/>
<path transform="matrix(.66994,0,0,-.66994,342.91014,131.48375)" d="M0 0H2.763V-13.211H10.171V-15.24H0Z" fill="#003592"/>
<path transform="matrix(.66994,0,0,-.66994,358.96385,136.54756)" d="M0 0C0 3.582-1.905 5.757-4.812 5.757-7.717 5.757-9.599 3.582-9.599 0-9.599-3.582-7.717-5.859-4.812-5.859-1.905-5.859 0-3.582 0 0M-12.434 0C-12.434 4.908-9.313 7.848-4.812 7.848-.31 7.848 2.835 4.908 2.835 0 2.835-4.907-.31-7.951-4.812-7.951-9.313-7.951-12.434-4.907-12.434 0" fill="#003592"/>
<path transform="matrix(.66994,0,0,-.66994,362.66749,136.6169)" d="M0 0C0 4.97 3.525 7.951 8.17 7.951 10.647 7.951 12.314 6.999 13.387 6.025L11.886 4.493C11.028 5.26 9.957 5.86 8.266 5.86 5.002 5.86 2.835 3.665 2.835 .083 2.835-3.54 4.764-5.756 8.385-5.756 9.456-5.756 10.528-5.486 11.147-5.011V-1.429H7.67V.539H13.648V-6.066C12.481-7.081 10.505-7.848 8.099-7.848 3.406-7.848 0-4.99 0 0" fill="#003592"/>
<path transform="matrix(.66994,0,0,-.66994,376.42347,137.82334)" d="M0 0-5.264 9.463H-2.311L-.286 5.425C.262 4.286 .763 3.229 1.357 2.07H1.453C2.024 3.229 2.597 4.286 3.12 5.425L5.169 9.463H8.051L2.763 0V-5.777H0Z" fill="#003592"/>
<path transform="matrix(.66994,0,0,-.66994,386.8448,137.31043)" d="M0 0V8.697H2.764V-.165C2.764-3.603 4.335-4.721 6.526-4.721 8.742-4.721 10.361-3.603 10.361-.165V8.697H13.029V0C13.029-4.97 10.409-6.812 6.526-6.812 2.645-6.812 0-4.97 0 0" fill="#003592"/>
<path transform="matrix(.66994,0,0,-.66994,398.60673,131.48375)" d="M0 0H2.834L8.646-8.945 10.48-12.176H10.6C10.456-10.602 10.242-8.759 10.242-7.103V0H12.862V-15.24H10.027L4.216-6.254 2.382-3.065H2.263C2.405-4.639 2.62-6.398 2.62-8.056V-15.24H0Z" fill="#003592"/>
<path transform="matrix(.66994,0,0,-.66994,119.33695,141.87439)" d="M434.342 15.51H437.105V.27000047H434.342Z" fill="#003592"/>
<path transform="matrix(.66994,0,0,-.66994,413.6712,131.48375)" d="M0 0H2.93L5.526-7.89C6.122-9.629 6.503-11.12 7.122-12.88H7.241C7.837-11.12 8.266-9.629 8.837-7.89L11.434 0H14.244L8.766-15.24H5.502Z" fill="#003592"/>
<path transform="matrix(.66994,0,0,-.66994,424.7311,131.48375)" d="M0 0H10.361V-2.009H2.763V-6.254H9.194V-8.283H2.763V-13.211H10.623V-15.24H0Z" fill="#003592"/>
<path transform="matrix(.66994,0,0,-.66994,436.15675,136.28394)" d="M0 0H2.645C5.192 0 6.574 .911 6.574 2.754 6.574 4.597 5.192 5.239 2.645 5.239H0ZM6.812-8.075 2.835-1.926H0V-8.075H-2.763V7.165H2.978C6.598 7.165 9.313 6.047 9.313 2.754 9.313 .394 7.86-1.015 5.646-1.615L9.933-8.075Z" fill="#003592"/>
<path transform="matrix(.66994,0,0,-.66994,443.69029,140.3762)" d="M0 0 1.619 1.657C2.882 .56 4.597-.145 6.288-.145 8.407-.145 9.599 .725 9.599 2.009 9.599 3.396 8.407 3.831 6.788 4.452L4.358 5.363C2.667 5.984 .785 7.144 .785 9.359 .785 11.762 3.215 13.563 6.55 13.563 8.599 13.563 10.527 12.817 11.861 11.637L10.408 10.104C9.313 10.954 8.098 11.472 6.55 11.472 4.764 11.472 3.597 10.727 3.597 9.505 3.597 8.2 5.002 7.703 6.431 7.206L8.836 6.315C10.908 5.55 12.409 4.432 12.409 2.195 12.409-.248 10.075-2.236 6.24-2.236 3.834-2.236 1.596-1.408 0 0" fill="#003592"/>
<path transform="matrix(.66994,0,0,-.66994,119.33695,141.87439)" d="M499.874 15.51H502.637V.27000047H499.874Z" fill="#003592"/>
<path transform="matrix(.66994,0,0,-.66994,461.54707,132.82953)" d="M0 0H-5.145V2.009H7.933V0H2.764V-13.231H0Z" fill="#003592"/>
<path transform="matrix(.66994,0,0,-.66994,470.54804,137.82334)" d="M0 0-5.264 9.463H-2.311L-.286 5.425C.262 4.286 .763 3.229 1.357 2.07H1.453C2.024 3.229 2.597 4.286 3.12 5.425L5.169 9.463H8.051L2.763 0V-5.777H0Z" fill="#003592"/>
<path transform="matrix(.66994,0,0,-.66994,119.382778,74.490489)" d="M0 0H84.712L84.643-69.278 42.356-99.989-.068-69.278Z" fill="#083683"/>
</g>
<text fill="#ffffff" xml:space="preserve" transform="matrix(.6792697 0 -0 .6607384 119.33695 141.87439)" font-size="12.523003" font-family="SourceHanSansCN-Heavy"><tspan y="-84.312328" x="4.335129 16.858132 29.381134 41.904138 54.42714 66.95015">&#x6df1;&#x5733;&#x6280;&#x672f;&#x5927;&#x5b66;</tspan></text>
<text fill="#ffffff" xml:space="preserve" transform="matrix(.6792745 0 -0 .66073378 119.33695 141.87439)" font-size="3.9204748" font-family="SourceHanSansCN-Heavy"><tspan y="-78.98582" x="4.3350985 6.2953355 8.255572 10.21581 12.176047 14.136285 16.096522 18.05676 20.016999 21.977236 23.937476 25.897713 27.857953 29.81819 31.778426 33.738664 35.6989 37.659135 39.61937 41.57961 43.539846 45.50008 47.460317 49.42055 51.38079 53.341028 55.30126 57.261499 59.221735 61.181974">SHENZHEN TECHNOLOGY UNIVERSITY</tspan></text>
<g clip-path="url(#clip_2)">
<path transform="matrix(.66994,0,0,-.66994,121.68094,91.21782)" d="M0 0H77.851" fill="#ffffff"/>
<path transform="matrix(.66994,0,0,-.66994,121.68094,91.21782)" stroke-width=".21" stroke-linecap="butt" stroke-miterlimit="10" stroke-linejoin="miter" fill="none" stroke="#ffffff" d="M0 0H77.851"/>
<path transform="matrix(.66994,0,0,-.66994,128.9916,125.88393)" d="M0 0-4.728 3.523-4.659 14.091H.068Z" fill="#ffffff"/>
<path transform="matrix(.66994,0,0,-.66994,137.14048,131.87226)" d="M0 0-4.774 3.479-4.705 23.03H.068Z" fill="#ffffff"/>
<path transform="matrix(.66994,0,0,-.66994,142.09134,135.55966)" d="M0 0 .068 28.534H4.796L4.728-3.479Z" fill="#ffffff"/>
<path transform="matrix(.66994,0,0,-.66994,153.40763,135.55966)" d="M0 0-4.728-3.479-4.659 28.534H.068Z" fill="#ffffff"/>
<path transform="matrix(.66994,0,0,-.66994,161.57158,116.44387)" d="M0 0-.068-19.551-4.796-23.03-4.728 0Z" fill="#ffffff"/>
<path transform="matrix(.66994,0,0,-.66994,166.50736,125.88393)" d="M0 0 .068 14.091H4.796L4.728 3.523Z" fill="#ffffff"/>
<path transform="matrix(.66994,0,0,-.66994,119.33695,141.87439)" d="M41.199 40.603H30.346V50.422H41.199Z" fill="#ffffff"/>
<path transform="matrix(.66994,0,0,-.66994,119.33695,141.87439)" d="M16.981 50.423H27.787V40.604H16.981Z" fill="#ffffff"/>
<path transform="matrix(.66994,0,0,-.66994,119.33695,141.87439)" d="M3.569 50.423H14.422V40.604H3.569Z" fill="#ffffff"/>
<path transform="matrix(.66994,0,0,-.66994,119.33695,141.87439)" d="M43.759 40.603H54.612V50.422H43.759Z" fill="#ffffff"/>
<path transform="matrix(.66994,0,0,-.66994,119.33695,141.87439)" d="M57.124 40.603H67.977V50.422H57.124Z" fill="#ffffff"/>
<path transform="matrix(.66994,0,0,-.66994,119.33695,141.87439)" d="M81.389 50.423H70.536V40.604H81.389Z" fill="#ffffff"/>
<path transform="matrix(.66994,0,0,-.66994,121.68094,76.70671)" stroke-width=".209" stroke-linecap="round" stroke-linejoin="round" fill="none" stroke="#ffffff" d="M0 0H77.851L77.783-64.629 38.857-93.915-.068-64.629 0 0Z"/>
</g>
<text fill="#ffffff" xml:space="preserve" transform="matrix(.7738078 0 -0 .5800143 119.33695 141.87439)" font-size="25.00778" font-family="SourceHanSansCN-Heavy"><tspan y="-64.30099" x="3.3422206 16.096188 28.850155 41.604124">SZTU</tspan></text>
<g clip-path="url(#clip_3)">
<path transform="matrix(.66994,0,0,-.66994,128.68865,100.75548)" stroke-width=".213" stroke-linecap="butt" stroke-miterlimit="10" stroke-linejoin="miter" fill="none" stroke="#ffffff" d="M0 0C.714-.535 1.071-1.085 1.071-1.647 1.071-2.719 .751-3.537 .112-4.101-.527-4.664-1.486-4.946-2.765-4.946-3.969-4.946-5.041-4.679-5.98-4.143-6.922-3.607-7.655-2.635-8.181-1.225L-8.857-1.394-7.955-5.538C-7.655-5.369-7.391-5.229-7.165-5.115-6.939-5.003-6.714-4.946-6.488-4.946-6.112-4.946-5.585-5.03-4.908-5.199-4.308-5.426-3.63-5.538-2.877-5.538-1.072-5.538 .3-5.143 1.241-4.352 2.181-3.56 2.651-2.654 2.651-1.637 2.651-.676 2.257 .157 1.467 .864 .677 1.57-.621 2.198-2.426 2.746-4.608 3.479-5.943 4.029-6.432 4.396-6.922 4.765-7.165 5.259-7.165 5.88-7.165 6.557-6.902 7.19-6.375 7.782-5.85 8.375-4.871 8.671-3.441 8.671-2.313 8.671-1.393 8.459-.677 8.036 .037 7.613 .733 6.81 1.41 5.626L1.975 5.795 1.523 9.263C1.371 9.037 1.202 8.882 1.016 8.798 .827 8.713 .62 8.671 .395 8.671 .094 8.671-.396 8.783-1.072 9.009-1.749 9.178-2.465 9.263-3.216 9.263-4.947 9.263-6.281 8.882-7.222 8.121-8.163 7.359-8.632 6.557-8.632 5.711-8.632 4.639-8.256 3.85-7.504 3.343-6.753 2.835-5.359 2.243-3.329 1.566-1.825 1.058-.716 .535 0 0Z"/>
<path transform="matrix(.66994,0,0,-.66994,133.98473,104.01233)" stroke-width=".213" stroke-linecap="butt" stroke-miterlimit="10" stroke-linejoin="miter" fill="none" stroke="#ffffff" d="M0 0 9.929 13.955H-.339L-1.692 11.079-1.016 10.91C-.415 11.756 .282 12.391 1.071 12.813 1.861 13.236 2.745 13.447 3.723 13.447H7.672L-2.257-.508H8.575L9.816 2.791 9.139 2.876C8.688 1.916 8.104 1.197 7.391 .719 6.675 .239 5.828 0 4.852 0H0Z"/>
<path transform="matrix(.66994,0,0,-.66994,148.38904,104.01233)" stroke-width=".213" stroke-linecap="butt" stroke-miterlimit="10" stroke-linejoin="miter" fill="none" stroke="#ffffff" d="M0 0H-1.016C-1.317 0-1.562 .056-1.749 .169-1.937 .281-2.031 .45-2.031 .677V12.433C-2.031 12.939-1.994 13.222-1.918 13.278-1.844 13.334-1.43 13.362-.677 13.362 .376 13.362 1.072 13.207 1.41 12.897 1.749 12.587 2.218 11.841 2.821 10.656L3.385 10.741 2.482 13.955H-8.236L-9.252 10.741-8.575 10.656C-7.974 11.896-7.466 12.657-7.052 12.939-6.64 13.222-5.906 13.362-4.852 13.362-4.326 13.362-4.024 13.334-3.949 13.278-3.875 13.222-3.836 12.968-3.836 12.517V.677C-3.836 .45-3.912 .281-4.062 .169-4.214 .056-4.477 0-4.852 0H-5.867V-.508H0V0Z"/>
<path transform="matrix(.66994,0,0,-.66994,154.74301,103.61586)" stroke-width=".213" stroke-linecap="butt" stroke-miterlimit="10" stroke-linejoin="miter" fill="none" stroke="#ffffff" d="M0 0C-.64 .395-.959 1.155-.959 2.284V12.179C-.959 12.403-.865 12.572-.677 12.687-.489 12.799-.244 12.855 .057 12.855H.621V13.363H-4.344V12.855H-3.779C-3.404 12.855-3.142 12.799-2.989 12.687-2.84 12.572-2.764 12.403-2.764 12.179V2.284C-2.764 1.043-2.256 .141-1.24-.423-.226-.987 .96-1.269 2.313-1.269 3.592-1.269 4.739-.944 5.755-.296 6.771 .352 7.278 1.24 7.278 2.368V12.179C7.278 12.403 7.371 12.572 7.561 12.687 7.747 12.799 7.992 12.855 8.294 12.855H8.971V13.363H4.908V12.855H5.586C5.961 12.855 6.224 12.799 6.375 12.687 6.525 12.572 6.602 12.403 6.602 12.179V2.368C6.602 1.522 6.206 .817 5.416 .254 4.627-.311 3.668-.592 2.539-.592 1.485-.592 .639-.395 0 0Z"/>
</g>
<text fill="#ffffff" xml:space="preserve" transform="matrix(.7738078 0 -0 .5800143 119.33695 141.87439)" font-size="25.00778" font-family="SourceHanSansCN-Heavy"><tspan y="-64.30099" x="54.358354"> </tspan></text>
<g clip-path="url(#clip_4)">
<path transform="matrix(.66994,0,0,-.66994,121.68094,106.00895)" d="M0 0H77.851" fill="#ffffff"/>
<path transform="matrix(.66994,0,0,-.66994,121.68094,106.00895)" stroke-width=".21" stroke-linecap="butt" stroke-miterlimit="10" stroke-linejoin="miter" fill="none" stroke="#ffffff" d="M0 0H77.851"/>
<path transform="matrix(.66994,0,0,-.66994,119.382778,74.490489)" d="M0 0H84.712L84.643-69.278 42.356-99.989-.068-69.278Z" fill="#023592"/>
<path transform="matrix(.66994,0,0,-.66994,121.650928,76.70671)" stroke-width=".417" stroke-linecap="butt" stroke-miterlimit="10" stroke-linejoin="miter" fill="none" stroke="#ffffff" d="M0 0H77.935L77.872-64.427 38.968-92.681-.063-64.427 0 0Z"/>
<path transform="matrix(.66994,0,0,-.66994,127.45307,81.046588)" d="M0 0C-.647-1.074-1.701-2.197-2.653-2.864-2.933-2.543-3.542-1.926-3.91-1.63-3.326-1.297-2.742-.815-2.272-.297H-3.669V2.406H4.266V-.223H2.679C3.275-.815 3.847-1.444 4.164-1.938L2.755-2.877C2.323-2.136 1.295-1 .444-.198L1.752 .629C2.019 .395 2.311 .136 2.59-.136V.9H-2.069V-.062C-1.917 .136-1.765 .333-1.65 .53ZM2.184-4.679C2.844-5.543 3.783-6.357 4.71-6.852 4.304-7.173 3.72-7.802 3.428-8.246 2.628-7.703 1.879-6.913 1.244-6.012V-8.654H-.635V-5.938C-1.358-6.937-2.26-7.777-3.288-8.333-3.555-7.926-4.101-7.309-4.494-6.987-3.352-6.493-2.323-5.642-1.6-4.679H-3.656V-3.087H-.635V-1.926H1.244V-3.087H4.253V-4.679ZM-4.875 .197C-5.332 .543-6.31 1.086-6.982 1.432L-6.068 2.814C-5.421 2.53-4.418 2.049-3.923 1.728ZM-4.024-4.827C-4.596-6.123-5.243-7.456-5.903-8.69L-7.274-7.444C-6.703-6.53-5.891-5.037-5.218-3.593ZM-5.23-3.346C-5.713-2.926-6.729-2.297-7.439-1.901L-6.614-.556C-5.929-.89-4.875-1.444-4.354-1.84Z" fill="#ffffff"/>
<path transform="matrix(.66994,0,0,-.66994,119.33695,141.87439)" d="M29.103 82.13H27.211V93.411998H29.103ZM24.85 92.647H26.589V83.69701H24.85ZM22.489 93.313H24.317V88.993C24.317 86.623 24.19 84.03 22.946 82.031 22.514 82.34 21.676 82.809 21.13 83.006 21.549 83.611 21.841 84.253 22.044 84.92 20.673 84.352 19.175 83.784 17.956 83.314L17.36 85.166C17.817 85.29 18.363 85.463 18.972 85.66V89.03H17.601V90.796H18.972V93.523H20.826V90.796H22.121V89.03H20.826V86.277L21.854 86.636 22.146 85.29C22.438 86.475 22.489 87.734 22.489 89.006Z" fill="#ffffff"/>
<path transform="matrix(.66994,0,0,-.66994,144.10015,83.246799)" d="M0 0C.33-.666 .749-1.271 1.27-1.814 1.828-1.283 2.272-.691 2.615 0ZM4.951 1.223C4.494-.519 3.732-1.864 2.691-2.926 3.479-3.395 4.393-3.765 5.446-3.999 5.053-4.357 4.532-5.086 4.278-5.543 3.085-5.209 2.082-4.728 1.219-4.11 .292-4.703-.774-5.16-1.968-5.493-2.158-5.024-2.603-4.259-2.958-3.876-1.904-3.653-.965-3.309-.152-2.839-.812-2.086-1.346-1.185-1.79-.16L-1.206 0H-2.019V1.617H.368V2.889H-2.222V4.53H.368V6.197H2.196V4.53H4.938V2.889H2.196V1.617H3.453L3.758 1.679ZM-2.272-.642C-2.691-.753-3.11-.852-3.542-.963V-3.604C-3.542-4.419-3.682-4.852-4.164-5.123-4.646-5.395-5.307-5.443-6.221-5.443-6.284-4.987-6.513-4.271-6.729-3.814-6.284-3.826-5.764-3.826-5.599-3.826-5.408-3.826-5.357-3.765-5.357-3.592V-1.395L-6.437-1.642-6.894 .074C-6.449 .148-5.929 .247-5.357 .37V2.271H-6.729V3.926H-5.357V6.197H-3.542V3.926H-2.374V2.271H-3.542V.766L-2.488 1Z" fill="#ffffff"/>
<path transform="matrix(.66994,0,0,-.66994,153.30399,82.279148)" d="M0 0C1.054-1.556 2.729-3.147 4.329-4.123 3.859-4.493 3.187-5.234 2.844-5.74 1.536-4.765 .241-3.333-.8-1.79V-6.987H-2.844V-2.419C-3.885-3.827-5.18-5.024-6.627-5.839-6.957-5.37-7.592-4.629-8.036-4.246-6.119-3.333-4.38-1.703-3.352 0H-7.478V1.766H-2.844V4.74H-.8V1.766H1.447C1.028 2.271 .114 3.062-.533 3.604L.838 4.691C1.473 4.197 2.45 3.456 2.92 2.963L1.498 1.766H3.732V0Z" fill="#ffffff"/>
<path transform="matrix(.66994,0,0,-.66994,161.48784,82.485889)" d="M0 0C.825-2.234 2.298-4.036 4.634-4.913 4.177-5.308 3.555-6.098 3.263-6.616 1.028-5.616-.368-3.975-1.346-1.79-2.069-3.69-3.415-5.407-5.916-6.616-6.208-6.123-6.767-5.48-7.312-5.086-4.532-3.863-3.364-2.012-2.856 0H-7.059V1.864H-2.552C-2.463 2.95-2.476 4.037-2.463 5.062H-.432C-.444 4.037-.457 2.95-.559 1.864H4.316V0Z" fill="#ffffff"/>
<path transform="matrix(.66994,0,0,-.66994,166.47319,82.29555)" d="M0 0H-1.727V2.863H.14C-.076 3.234-.368 3.653-.635 3.987L.939 4.666C1.371 4.197 1.866 3.555 2.069 3.086L1.574 2.863H3.364C3.187 3.32 2.895 3.876 2.615 4.308L4.253 4.9C4.646 4.382 5.065 3.666 5.23 3.172L4.405 2.863H5.84C6.221 3.432 6.602 4.135 6.83 4.69L8.76 4.147C8.442 3.703 8.112 3.259 7.795 2.863H9.509V0H7.693V1.296H0ZM9.61-3.864H4.786V-5.012C4.786-5.889 4.57-6.345 3.897-6.592 3.225-6.852 2.374-6.876 1.333-6.876 1.219-6.37 .876-5.604 .597-5.147 1.308-5.185 2.311-5.185 2.564-5.173 2.818-5.173 2.895-5.123 2.895-4.963V-3.864H-1.828V-2.223H2.895V-1.506C3.225-1.37 3.58-1.197 3.897-1.013H.521V.53H5.992L6.373 .617 7.541-.284C6.792-.951 5.827-1.617 4.786-2.148V-2.223H9.61Z" fill="#ffffff"/>
<path transform="matrix(.66994,0,0,-.66994,122.38599,89.44502)" d="M0 0 .402 .475C.613 .301 .888 .181 1.123 .181 1.386 .181 1.51 .277 1.51 .432 1.51 .598 1.346 .652 1.091 .756L.713 .911C.402 1.03 .111 1.281 .111 1.698 .111 2.181 .558 2.566 1.187 2.566 1.529 2.566 1.892 2.439 2.15 2.188L1.796 1.756C1.601 1.899 1.418 1.977 1.187 1.977 .968 1.977 .832 1.892 .832 1.737 .832 1.578 1.02 1.517 1.282 1.416L1.652 1.273C2.02 1.131 2.238 .892 2.238 .486 2.238 .008 1.824-.413 1.107-.413 .721-.413 .307-.274 0 0" fill="#ffffff"/>
<path transform="matrix(.66994,0,0,-.66994,124.21331,87.76166)" d="M0 0H.713V-1.093H1.688V0H2.394V-2.872H1.688V-1.69H.713V-2.872H0Z" fill="#ffffff"/>
<path transform="matrix(.66994,0,0,-.66994,126.27412,87.76166)" d="M0 0H1.88V-.571H.713V-1.104H1.704V-1.683H.713V-2.293H1.923V-2.872H0Z" fill="#ffffff"/>
<path transform="matrix(.66994,0,0,-.66994,127.95225,87.76166)" d="M0 0H.725L1.461-1.374 1.752-2.011H1.771C1.732-1.706 1.677-1.293 1.677-.949V0H2.354V-2.872H1.629L.896-1.486 .605-.856H.585C.617-1.178 .677-1.571 .677-1.919V-2.872H0Z" fill="#ffffff"/>
<path transform="matrix(.66994,0,0,-.66994,129.86132,89.40643)" d="M0 0 1.278 1.884H.123V2.455H2.154V2.042L.876 .162H2.167V-.417H0Z" fill="#ffffff"/>
<path transform="matrix(.66994,0,0,-.66994,131.63498,87.76166)" d="M0 0H.713V-1.093H1.688V0H2.394V-2.872H1.688V-1.69H.713V-2.872H0Z" fill="#ffffff"/>
<path transform="matrix(.66994,0,0,-.66994,133.69644,87.76166)" d="M0 0H1.88V-.571H.713V-1.104H1.704V-1.683H.713V-2.293H1.923V-2.872H0Z" fill="#ffffff"/>
<path transform="matrix(.66994,0,0,-.66994,135.3739,87.76166)" d="M0 0H.725L1.461-1.374 1.752-2.011H1.771C1.732-1.706 1.677-1.293 1.677-.949V0H2.354V-2.872H1.629L.896-1.486 .605-.856H.585C.617-1.178 .677-1.571 .677-1.919V-2.872H0Z" fill="#ffffff"/>
<path transform="matrix(.66994,0,0,-.66994,138.40244,88.144397)" d="M0 0H-.801V.571H1.518V0H.713V-2.301H0Z" fill="#ffffff"/>
<path transform="matrix(.66994,0,0,-.66994,139.72269,87.76166)" d="M0 0H1.88V-.571H.713V-1.104H1.704V-1.683H.713V-2.293H1.923V-2.872H0Z" fill="#ffffff"/>
<path transform="matrix(.66994,0,0,-.66994,141.30918,88.73388)" d="M0 0C0 .957 .661 1.505 1.414 1.505 1.8 1.505 2.11 1.332 2.313 1.131L1.939 .69C1.792 .822 1.637 .915 1.426 .915 1.044 .915 .729 .583 .729 .022 .729-.549 1-.881 1.418-.881 1.652-.881 1.844-.765 1.983-.618L2.357-1.05C2.106-1.332 1.776-1.475 1.39-1.475 .638-1.475 0-.973 0 0" fill="#ffffff"/>
<path transform="matrix(.66994,0,0,-.66994,143.17636,87.76166)" d="M0 0H.713V-1.093H1.688V0H2.394V-2.872H1.688V-1.69H.713V-2.872H0Z" fill="#ffffff"/>
<path transform="matrix(.66994,0,0,-.66994,145.2379,87.76166)" d="M0 0H.725L1.461-1.374 1.752-2.011H1.771C1.732-1.706 1.677-1.293 1.677-.949V0H2.354V-2.872H1.629L.896-1.486 .605-.856H.585C.617-1.178 .677-1.571 .677-1.919V-2.872H0Z" fill="#ffffff"/>
<path transform="matrix(.66994,0,0,-.66994,148.51566,88.71358)" d="M0 0C0 .557-.243 .885-.633 .885-1.023 .885-1.263 .557-1.263 0-1.263-.56-1.023-.911-.633-.911-.243-.911 0-.56 0 0M-1.991 0C-1.991 .942-1.441 1.475-.633 1.475 .176 1.475 .725 .938 .725 0 .725-.941 .176-1.505-.633-1.505-1.441-1.505-1.991-.941-1.991 0" fill="#ffffff"/>
<path transform="matrix(.66994,0,0,-.66994,149.36548,87.76166)" d="M0 0H.713V-2.293H1.863V-2.872H0Z" fill="#ffffff"/>
<path transform="matrix(.66994,0,0,-.66994,152.08382,88.71358)" d="M0 0C0 .557-.243 .885-.633 .885-1.023 .885-1.263 .557-1.263 0-1.263-.56-1.023-.911-.633-.911-.243-.911 0-.56 0 0M-1.991 0C-1.991 .942-1.441 1.475-.633 1.475 .176 1.475 .725 .938 .725 0 .725-.941 .176-1.505-.633-1.505-1.441-1.505-1.991-.941-1.991 0" fill="#ffffff"/>
<path transform="matrix(.66994,0,0,-.66994,152.8434,88.73388)" d="M0 0C0 .957 .665 1.505 1.458 1.505 1.892 1.505 2.202 1.328 2.405 1.131L2.027 .69C1.884 .818 1.729 .915 1.481 .915 1.044 .915 .729 .583 .729 .022 .729-.549 .992-.881 1.541-.881 1.648-.881 1.761-.854 1.824-.807V-.344H1.354V.22H2.457V-1.124C2.25-1.316 1.884-1.475 1.47-1.475 .646-1.475 0-.973 0 0" fill="#ffffff"/>
<path transform="matrix(.66994,0,0,-.66994,155.23006,89.0054)" d="M0 0-.893 1.856H-.136L.111 1.22C.191 1.003 .267 .803 .351 .579H.366C.45 .803 .529 1.003 .613 1.22L.86 1.856H1.604L.709 0V-1.016H0Z" fill="#ffffff"/>
<path transform="matrix(.66994,0,0,-.66994,157.10382,88.780307)" d="M0 0V1.521H.709V-.074C.709-.618 .877-.812 1.203-.812 1.525-.812 1.705-.618 1.705-.074V1.521H2.39V0C2.39-.97 1.991-1.405 1.203-1.405 .41-1.405 0-.97 0 0" fill="#ffffff"/>
<path transform="matrix(.66994,0,0,-.66994,159.147,87.76166)" d="M0 0H.725L1.461-1.374 1.752-2.011H1.771C1.732-1.706 1.677-1.293 1.677-.949V0H2.354V-2.872H1.629L.896-1.486 .605-.856H.585C.617-1.178 .677-1.571 .677-1.919V-2.872H0Z" fill="#ffffff"/>
<path transform="matrix(.66994,0,0,-.66994,119.33695,141.87439)" d="M62.46 80.772H63.173V77.9H62.46Z" fill="#ffffff"/>
<path transform="matrix(.66994,0,0,-.66994,161.85945,87.76166)" d="M0 0H.753L1.092-1.309C1.179-1.617 1.235-1.915 1.322-2.228H1.343C1.426-1.915 1.49-1.617 1.573-1.309L1.908 0H2.633L1.74-2.872H.889Z" fill="#ffffff"/>
<path transform="matrix(.66994,0,0,-.66994,163.82546,87.76166)" d="M0 0H1.88V-.571H.713V-1.104H1.704V-1.683H.713V-2.293H1.923V-2.872H0Z" fill="#ffffff"/>
<path transform="matrix(.66994,0,0,-.66994,165.98119,88.64357)" d="M0 0H.318C.657 0 .836 .143 .836 .413 .836 .684 .657 .772 .318 .772H0ZM.888-1.556 .342-.544H0V-1.556H-.713V1.316H.374C1.007 1.316 1.533 1.108 1.533 .413 1.533-.008 1.33-.278 1.023-.417L1.685-1.556Z" fill="#ffffff"/>
<path transform="matrix(.66994,0,0,-.66994,167.22098,89.44502)" d="M0 0 .402 .475C.613 .301 .888 .181 1.123 .181 1.386 .181 1.51 .277 1.51 .432 1.51 .598 1.346 .652 1.091 .756L.713 .911C.402 1.03 .111 1.281 .111 1.698 .111 2.181 .558 2.566 1.187 2.566 1.529 2.566 1.892 2.439 2.15 2.188L1.796 1.756C1.601 1.899 1.418 1.977 1.187 1.977 .968 1.977 .832 1.892 .832 1.737 .832 1.578 1.02 1.517 1.282 1.416L1.652 1.273C2.02 1.131 2.238 .892 2.238 .486 2.238 .008 1.824-.413 1.107-.413 .721-.413 .307-.274 0 0" fill="#ffffff"/>
<path transform="matrix(.66994,0,0,-.66994,119.33695,141.87439)" d="M74.203 80.772H74.916V77.9H74.203Z" fill="#ffffff"/>
<path transform="matrix(.66994,0,0,-.66994,170.36394,88.144397)" d="M0 0H-.801V.571H1.518V0H.713V-2.301H0Z" fill="#ffffff"/>
<path transform="matrix(.66994,0,0,-.66994,171.97006,89.0054)" d="M0 0-.893 1.856H-.136L.111 1.22C.191 1.003 .267 .803 .351 .579H.366C.45 .803 .529 1.003 .613 1.22L.86 1.856H1.604L.709 0V-1.016H0Z" fill="#ffffff"/>
<path transform="matrix(.66994,0,0,-.66994,121.68094,91.21782)" d="M0 0H77.851" fill="#ffffff"/>
<path transform="matrix(.66994,0,0,-.66994,121.68094,91.21782)" stroke-width=".21" stroke-linecap="butt" stroke-miterlimit="10" stroke-linejoin="miter" fill="none" stroke="#ffffff" d="M0 0H77.851"/>
<path transform="matrix(.66994,0,0,-.66994,119.33695,141.87439)" d="M41.199 40.877H30.346V50.696H41.199Z" fill="#ffffff"/>
<path transform="matrix(.66994,0,0,-.66994,119.33695,141.87439)" d="M16.981 50.696H27.787V40.877H16.981Z" fill="#ffffff"/>
<path transform="matrix(.66994,0,0,-.66994,119.33695,141.87439)" d="M3.569 50.696H14.422V40.877H3.569Z" fill="#ffffff"/>
<path transform="matrix(.66994,0,0,-.66994,119.33695,141.87439)" d="M43.759 40.877H54.612V50.696H43.759Z" fill="#ffffff"/>
<path transform="matrix(.66994,0,0,-.66994,119.33695,141.87439)" d="M57.124 40.877H67.977V50.696H57.124Z" fill="#ffffff"/>
<path transform="matrix(.66994,0,0,-.66994,119.33695,141.87439)" d="M81.389 50.696H70.536V40.877H81.389Z" fill="#ffffff"/>
<path transform="matrix(.66994,0,0,-.66994,125.87007,116.44387)" d="M0 0-.068-9.706 4.659-13.151 4.728 0Z" fill="#ffffff"/>
<path transform="matrix(.66994,0,0,-.66994,133.98827,116.44387)" d="M0 0-.068-18.537 4.705-22.016 4.774 0Z" fill="#ffffff"/>
<path transform="matrix(.66994,0,0,-.66994,142.13722,116.44387)" d="M0 0-.068-27.402 4.659-30.848 4.728 0Z" fill="#ffffff"/>
<path transform="matrix(.66994,0,0,-.66994,150.2861,116.44387)" d="M0 0-.068-30.768 4.659-27.323 4.728 0Z" fill="#ffffff"/>
<path transform="matrix(.66994,0,0,-.66994,158.4043,116.44387)" d="M0 0-.068-21.937 4.659-18.491 4.728 0Z" fill="#ffffff"/>
<path transform="matrix(.66994,0,0,-.66994,166.55319,116.44387)" d="M0 0-.068-13.072 4.659-9.626 4.728 0Z" fill="#ffffff"/>
<path transform="matrix(.66994,0,0,-.66994,122.481517,102.90927)" d="M0 0 2.917 2.663C4.448 1.688 6.44 1.018 8.146 1.018 10.052 1.018 10.947 1.559 10.947 2.425 10.947 3.356 9.763 3.659 7.914 4.244L5.17 5.11C2.917 5.781 .809 7.188 .809 9.527 .809 12.233 4.043 14.398 8.607 14.398 11.092 14.398 13.72 13.685 15.598 12.276L13.026 9.852C11.611 10.653 10.282 11.086 8.607 11.086 7.019 11.086 6.036 10.609 6.036 9.743 6.036 8.855 7.395 8.51 9.301 7.946L11.986 7.146C14.645 6.344 16.232 5.002 16.232 2.729 16.232 .043 13.229-2.316 8.029-2.316 5.228-2.316 2.224-1.537 0 0" fill="#ffffff"/>
<path transform="matrix(.66994,0,0,-.66994,135.04029,102.69141)" d="M0 0 9.271 10.565H.895V13.771H15.626V11.453L6.354 .909H15.713V-2.339H0Z" fill="#ffffff"/>
<path transform="matrix(.66994,0,0,-.66994,150.90753,95.61323)" d="M0 0H-5.806V3.205H11.005V0H5.17V-12.904H0Z" fill="#ffffff"/>
<path transform="matrix(.66994,0,0,-.66994,160.62168,99.1814)" d="M0 0V8.531H5.142V-.411C5.142-3.464 6.355-4.547 8.724-4.547 11.063-4.547 12.363-3.464 12.363-.411V8.531H17.331V0C17.331-5.435 14.442-7.881 8.724-7.881 2.976-7.881 0-5.435 0 0" fill="#ffffff"/>
<path transform="matrix(.66994,0,0,-.66994,121.68094,106.00895)" d="M0 0H77.851" fill="#ffffff"/>
<path transform="matrix(.66994,0,0,-.66994,121.68094,106.00895)" stroke-width=".21" stroke-linecap="butt" stroke-miterlimit="10" stroke-linejoin="miter" fill="none" stroke="#ffffff" d="M0 0H77.851"/>
</g>
</g>
<text xml:space="preserve" transform="matrix(1 0 -0 1 72 72)" font-size="26" font-family="SimHei"><tspan y="142.577" x="51.458 98.258 145.058 191.858 238.658 285.458 311.458 337.458 363.458 389.458">&#x672c;&#x79d1;&#x6bd5;&#x4e1a;&#x8bba;&#x6587;&#xff08;&#x8bbe;&#x8ba1;&#xff09;</tspan></text>
<text xml:space="preserve" transform="matrix(1 0 -0 1 72 72)" font-size="22" font-family="KaiTi"><tspan y="233.096" x="23.148 45.148004 67.148 89.148 111.148 133.14801 155.14801 177.14801 199.14801 221.14801 243.14801 265.148">&#x6df1;&#x5733;&#x6280;&#x672f;&#x5927;&#x5b66;&#x672c;&#x79d1;&#x5b66;&#x4f4d;&#x8bba;&#x6587;</tspan></text>
<text xml:space="preserve" transform="matrix(1 0 -0 1 72 72)" font-size="22" font-family="KaiTi"><tspan y="233.096" x="23.148 45.148004 67.148 89.148 111.148 133.14801 155.14801 177.14801 199.14801 221.14801 243.14801 265.148">&#x6df1;&#x5733;&#x6280;&#x672f;&#x5927;&#x5b66;&#x672c;&#x79d1;&#x5b66;&#x4f4d;&#x8bba;&#x6587;</tspan></text>
<text xml:space="preserve" transform="matrix(1 0 -0 1 72 72)" font-size="22" font-family="TimesNewRomanPS" font-weight="bold"><tspan y="233.096" x="292.648 307.32203 318.32203 330.99403 340.76203">LaTeX</tspan></text>
<text xml:space="preserve" transform="matrix(1 0 -0 1 72 72)" font-size="22" font-family="KaiTi"><tspan y="233.096" x="362.12803 384.12803 406.12803">&#x6a21;&#x677f;&#x6807;</tspan><tspan y="272.69599" x="115.638019 137.63802 159.63802 181.63802 203.63802 225.63802 247.63802 269.638 291.638 313.638">&#x9898;&#x53ef;&#x80fd;&#x5f88;&#x957f;&#x5219;&#x4e24;&#x884c;&#x5448;&#x73b0;</tspan></text>
<text xml:space="preserve" transform="matrix(1 0 -0 1 72 72)" font-size="22" font-family="KaiTi"><tspan y="233.096" x="362.12803 384.12803 406.12803">&#x6a21;&#x677f;&#x6807;</tspan><tspan y="272.69599" x="115.638019 137.63802 159.63802 181.63802 203.63802 225.63802 247.63802 269.638 291.638 313.638">&#x9898;&#x53ef;&#x80fd;&#x5f88;&#x957f;&#x5219;&#x4e24;&#x884c;&#x5448;&#x73b0;</tspan></text>
<text xml:space="preserve" transform="matrix(1 0 -0 1 72 72)" font-size="16" font-family="SimHei"><tspan y="400.914" x="65.66002 113.66002 129.66002">&#x59d3;&#x540d;&#xff1a;</tspan></text>
<path transform="matrix(1,0,0,-1,72,72)" stroke-width=".3985" stroke-linecap="butt" stroke-miterlimit="10" stroke-linejoin="miter" fill="none" stroke="#000000" d="M157.375-404.566H245.735"/>
<path transform="matrix(1,0,0,-1,72,72)" stroke-width=".3985" stroke-linecap="butt" stroke-miterlimit="10" stroke-linejoin="miter" fill="none" stroke="#000000" d="M245.255-404.566H293.735"/>
<text xml:space="preserve" transform="matrix(1 0 -0 1 72 72)" font-size="16" font-family="KaiTi"><tspan y="400.914" x="245.495 261.495 277.495">&#x90ed;&#x5927;&#x4fa0;</tspan></text>
<text xml:space="preserve" transform="matrix(1 0 -0 1 72 72)" font-size="16" font-family="KaiTi"><tspan y="400.914" x="245.495 261.495 277.495">&#x90ed;&#x5927;&#x4fa0;</tspan></text>
<path transform="matrix(1,0,0,-1,72,72)" stroke-width=".3985" stroke-linecap="butt" stroke-miterlimit="10" stroke-linejoin="miter" fill="none" stroke="#000000" d="M293.255-404.566H381.615"/>
<text xml:space="preserve" transform="matrix(1 0 -0 1 72 72)" font-size="16" font-family="SimHei"><tspan y="440.658" x="65.66 113.66 129.66">&#x5b66;&#x9662;&#xff1a;</tspan></text>
<path transform="matrix(1,0,0,-1,72,72)" stroke-width=".3985" stroke-linecap="butt" stroke-miterlimit="10" stroke-linejoin="miter" fill="none" stroke="#000000" d="M157.375-444.31H197.735"/>
<path transform="matrix(1,0,0,-1,72,72)" stroke-width=".3985" stroke-linecap="butt" stroke-miterlimit="10" stroke-linejoin="miter" fill="none" stroke="#000000" d="M197.255-444.31H341.735"/>
<text xml:space="preserve" transform="matrix(1 0 -0 1 72 72)" font-size="16" font-family="KaiTi"><tspan y="440.658" x="197.495 213.495 229.495 245.495 261.495 277.495 293.495 309.495 325.495">&#x5927;&#x6570;&#x636e;&#x4e0e;&#x4e92;&#x8054;&#x7f51;&#x5b66;&#x9662;</tspan></text>
<text xml:space="preserve" transform="matrix(1 0 -0 1 72 72)" font-size="16" font-family="KaiTi"><tspan y="440.658" x="197.495 213.495 229.495 245.495 261.495 277.495 293.495 309.495 325.495">&#x5927;&#x6570;&#x636e;&#x4e0e;&#x4e92;&#x8054;&#x7f51;&#x5b66;&#x9662;</tspan></text>
<path transform="matrix(1,0,0,-1,72,72)" stroke-width=".3985" stroke-linecap="butt" stroke-miterlimit="10" stroke-linejoin="miter" fill="none" stroke="#000000" d="M341.255-444.31H381.615"/>
<text xml:space="preserve" transform="matrix(1 0 -0 1 72 72)" font-size="16" font-family="SimHei"><tspan y="480.402" x="65.66 113.66 129.66">&#x4e13;&#x4e1a;&#xff1a;</tspan></text>
<path transform="matrix(1,0,0,-1,72,72)" stroke-width=".3985" stroke-linecap="butt" stroke-miterlimit="10" stroke-linejoin="miter" fill="none" stroke="#000000" d="M157.375-484.055H229.735"/>
<path transform="matrix(1,0,0,-1,72,72)" stroke-width=".3985" stroke-linecap="butt" stroke-miterlimit="10" stroke-linejoin="miter" fill="none" stroke="#000000" d="M229.255-484.055H309.735"/>
<text xml:space="preserve" transform="matrix(1 0 -0 1 72 72)" font-size="16" font-family="KaiTi"><tspan y="480.402" x="229.495 245.495 261.495 277.495 293.495">&#x7269;&#x8054;&#x7f51;&#x5de5;&#x7a0b;</tspan></text>
<text xml:space="preserve" transform="matrix(1 0 -0 1 72 72)" font-size="16" font-family="KaiTi"><tspan y="480.402" x="229.495 245.495 261.495 277.495 293.495">&#x7269;&#x8054;&#x7f51;&#x5de5;&#x7a0b;</tspan></text>
<path transform="matrix(1,0,0,-1,72,72)" stroke-width=".3985" stroke-linecap="butt" stroke-miterlimit="10" stroke-linejoin="miter" fill="none" stroke="#000000" d="M309.255-484.055H381.615"/>
<text xml:space="preserve" transform="matrix(1 0 -0 1 72 72)" font-size="16" font-family="SimHei"><tspan y="520.146" x="65.66 113.66 129.66">&#x5b66;&#x53f7;&#xff1a;</tspan></text>
<path transform="matrix(1,0,0,-1,72,72)" stroke-width=".3985" stroke-linecap="butt" stroke-miterlimit="10" stroke-linejoin="miter" fill="none" stroke="#000000" d="M157.375-523.799H233.735"/>
<path transform="matrix(1,0,0,-1,72,72)" stroke-width=".3985" stroke-linecap="butt" stroke-miterlimit="10" stroke-linejoin="miter" fill="none" stroke="#000000" d="M233.255-523.799H305.735"/>
<text xml:space="preserve" transform="matrix(1 0 -0 1 72 72)" font-size="16" font-family="TimesNewRomanPS" font-weight="bold"><tspan y="520.146" x="233.495 241.495 249.495 257.495 265.495 273.495 281.495 289.495 297.495">123456789</tspan></text>
<path transform="matrix(1,0,0,-1,72,72)" stroke-width=".3985" stroke-linecap="butt" stroke-miterlimit="10" stroke-linejoin="miter" fill="none" stroke="#000000" d="M305.255-523.799H381.615"/>
<text xml:space="preserve" transform="matrix(1 0 -0 1 72 72)" font-size="16" font-family="SimHei"><tspan y="559.89" x="65.66 81.66 97.66 113.66 129.66">&#x6307;&#x5bfc;&#x6559;&#x5e08;&#xff1a;</tspan></text>
<path transform="matrix(1,0,0,-1,72,72)" stroke-width=".3985" stroke-linecap="butt" stroke-miterlimit="10" stroke-linejoin="miter" fill="none" stroke="#000000" d="M157.375-563.543H245.735"/>
<path transform="matrix(1,0,0,-1,72,72)" stroke-width=".3985" stroke-linecap="butt" stroke-miterlimit="10" stroke-linejoin="miter" fill="none" stroke="#000000" d="M245.255-563.543H293.735"/>
<text xml:space="preserve" transform="matrix(1 0 -0 1 72 72)" font-size="16" font-family="KaiTi"><tspan y="559.89" x="245.495 261.495 277.495">&#x6211;&#x81ea;&#x5df1;</tspan></text>
<text xml:space="preserve" transform="matrix(1 0 -0 1 72 72)" font-size="16" font-family="KaiTi"><tspan y="559.89" x="245.495 261.495 277.495">&#x6211;&#x81ea;&#x5df1;</tspan></text>
<path transform="matrix(1,0,0,-1,72,72)" stroke-width=".3985" stroke-linecap="butt" stroke-miterlimit="10" stroke-linejoin="miter" fill="none" stroke="#000000" d="M293.255-563.543H381.615"/>
<text xml:space="preserve" transform="matrix(1 0 -0 1 72 72)" font-size="16" font-family="SimHei"><tspan y="599.635" x="65.66 113.66 129.66">&#x804c;&#x79f0;&#xff1a;</tspan></text>
<path transform="matrix(1,0,0,-1,72,72)" stroke-width=".3985" stroke-linecap="butt" stroke-miterlimit="10" stroke-linejoin="miter" fill="none" stroke="#000000" d="M157.375-603.287H237.735"/>
<path transform="matrix(1,0,0,-1,72,72)" stroke-width=".3985" stroke-linecap="butt" stroke-miterlimit="10" stroke-linejoin="miter" fill="none" stroke="#000000" d="M237.255-603.287H301.735"/>
<text xml:space="preserve" transform="matrix(1 0 -0 1 72 72)" font-size="16" font-family="KaiTi"><tspan y="599.635" x="237.495 253.495 269.495 285.495">&#x52a9;&#x7406;&#x6559;&#x6388;</tspan></text>
<text xml:space="preserve" transform="matrix(1 0 -0 1 72 72)" font-size="16" font-family="KaiTi"><tspan y="599.635" x="237.495 253.495 269.495 285.495">&#x52a9;&#x7406;&#x6559;&#x6388;</tspan></text>
<path transform="matrix(1,0,0,-1,72,72)" stroke-width=".3985" stroke-linecap="butt" stroke-miterlimit="10" stroke-linejoin="miter" fill="none" stroke="#000000" d="M301.255-603.287H381.615"/>
<text xml:space="preserve" transform="matrix(1 0 -0 1 72 72)" font-size="16" font-family="SimHei"><tspan y="639.379" x="65.66 81.66 97.66 113.66 129.66">&#x63d0;&#x4ea4;&#x65e5;&#x671f;&#xff1a;</tspan></text>
<path transform="matrix(1,0,0,-1,72,72)" stroke-width=".3985" stroke-linecap="butt" stroke-miterlimit="10" stroke-linejoin="miter" fill="none" stroke="#000000" d="M157.375-643.031H211.735"/>
<path transform="matrix(1,0,0,-1,72,72)" stroke-width=".3985" stroke-linecap="butt" stroke-miterlimit="10" stroke-linejoin="miter" fill="none" stroke="#000000" d="M211.255-643.031H327.735"/>
<text xml:space="preserve" transform="matrix(1 0 -0 1 72 72)" font-size="16" font-family="TimesNewRomanPS" font-weight="bold"><tspan y="639.379" x="211.495 219.495 227.495 235.495">2023</tspan></text>
<text xml:space="preserve" transform="matrix(1 0 -0 1 72 72)" font-size="16" font-family="KaiTi"><tspan y="639.379" x="247.495">&#x5e74;</tspan></text>
<text xml:space="preserve" transform="matrix(1 0 -0 1 72 72)" font-size="16" font-family="KaiTi"><tspan y="639.379" x="247.495">&#x5e74;</tspan></text>
<text xml:space="preserve" transform="matrix(1 0 -0 1 72 72)" font-size="16" font-family="TimesNewRomanPS" font-weight="bold"><tspan y="639.379" x="267.495">5</tspan></text>
<text xml:space="preserve" transform="matrix(1 0 -0 1 72 72)" font-size="16" font-family="KaiTi"><tspan y="639.379" x="279.495">&#x6708;</tspan></text>
<text xml:space="preserve" transform="matrix(1 0 -0 1 72 72)" font-size="16" font-family="KaiTi"><tspan y="639.379" x="279.495">&#x6708;</tspan></text>
<text xml:space="preserve" transform="matrix(1 0 -0 1 72 72)" font-size="16" font-family="TimesNewRomanPS" font-weight="bold"><tspan y="639.379" x="299.495">1</tspan></text>
<text xml:space="preserve" transform="matrix(1 0 -0 1 72 72)" font-size="16" font-family="KaiTi"><tspan y="639.379" x="311.495">&#x65e5;</tspan></text>
<text xml:space="preserve" transform="matrix(1 0 -0 1 72 72)" font-size="16" font-family="KaiTi"><tspan y="639.379" x="311.495">&#x65e5;</tspan></text>
<path transform="matrix(1,0,0,-1,72,72)" stroke-width=".3985" stroke-linecap="butt" stroke-miterlimit="10" stroke-linejoin="miter" fill="none" stroke="#000000" d="M327.255-643.031H381.615"/>
</svg>
